<svg xmlns="http://www.w3.org/2000/svg" xmlns:xlink="http://www.w3.org/1999/xlink" viewBox="0 0 348.86 105.41"><defs><style>.cls-1{fill:none;}.cls-2,.cls-5{fill:#070709;}.cls-10,.cls-11,.cls-12,.cls-13,.cls-2,.cls-3,.cls-4,.cls-7,.cls-9{fill-rule:evenodd;}.cls-3{fill:url(#Degradado_sin_nombre_3);}.cls-4{fill:#020202;}.cls-6{fill:#11222a;}.cls-7{fill:#f0be1b;}.cls-8{clip-path:url(#clip-path);}.cls-9{fill:#f99f29;}.cls-10{fill:#101316;}.cls-11,.cls-13{fill:#f6fcfe;}.cls-11{stroke:#010101;stroke-miterlimit:10;stroke-width:0.25px;}.cls-12{fill:#f7f9fd;}.cls-14{fill:#e4e6ea;}.cls-15{fill:#b3b3b3;}.cls-16{fill:#231f20;}</style><linearGradient id="Degradado_sin_nombre_3" x1="-126" y1="992.01" x2="-111.69" y2="988.44" gradientTransform="matrix(-1, 0, 0, 1, 89.25, -978.79)" gradientUnits="userSpaceOnUse"><stop offset="0" stop-color="#f0be1b"/><stop offset="0.46" stop-color="#f99f29"/><stop offset="1" stop-color="#f99f29"/></linearGradient><clipPath id="clip-path"><path id="SVGID" class="cls-1" d="M187.16,69.87l-.82,2.53s1.45,2.48,3.09,5.33,2.23,4.32,2.28,5.24a1.44,1.44,0,0,0-.83,1,4.45,4.45,0,0,0-1.45,1.15c-.62.14-.58.41-.53.6.73.18.44.82.2,1.37,0,1,1.93.46,2.12.1,1.07-.05,1.5-.65,1.55-1.06s-.05-1,.92-1.29c1.45-.64,2.13.28,2.46.28a2.4,2.4,0,0,0,1.94.37c1.06.82,2.75.09,2.61-.46s-1.11-1.24,0-1.47a2.55,2.55,0,0,1,2.27.78l.82.09c1.26.14,1.65-1.56,1.65-1.56l-.63-.28a2.79,2.79,0,0,1-.63-.36c-.39-.56.19-.65.19-.88-.67-.27-2.32.51-2.94,1-.73,0-1.17.27-1.65.27.19-.14,0-.5-.29-1.15-.34-.32-1.35,0-1.93.51a5.07,5.07,0,0,1-2,.69s-1.65-2-2.66-3.49a76.59,76.59,0,0,1-4-7.58Z"/></clipPath></defs><title>LohoCaracaraNatureRecurso 4</title><g id="Capa_2" data-name="Capa 2"><g id="Capa_1-2" data-name="Capa 1"><path class="cls-2" d="M210.61,12.27l-4.69,2.62-.63,2.71.44,1.65,1.21.19-.1-1.47.43.59-.19-1.93,1.11,1.15-.92-1.65.63.5-.29-.78,1,1.38L208.19,16l.82.5s-.38-.5-.91-1.24a1.42,1.42,0,0,0,.72.28c-.19-.33-.48-.42-.39-.69a.59.59,0,0,1,.73.5v-.69l.43.51-.19-.69.29.28s0,.36-.1-.37.92,0,.92,0l-1-.69,1.11.37-.63-.51h.53L212,14.57l-.92-1,.63.09-.53-.41.73.37-.73-.78,1.31.78a3,3,0,0,0-.54-.78c-.53-.6-.33-.37.92.41s-.29-.78-.29-.78Z"/><path class="cls-3" d="M214.82,10.11l-1.13,1.38-.44,1.37-1.45.19-1.35.09-.82.69-1.36,1-1.93,1.29-2.76-.51-.91-2.8L201,10.43,202.47,8l2.47-.69s-.24-.73,1.55-1a2.6,2.6,0,0,1,2.65,1.28,8.42,8.42,0,0,1,3.29-.27,6.5,6.5,0,0,1,2.85,2Z"/><path class="cls-2" d="M199.92,8.27l2.13-1.56,4.59-1.06S213,8.32,213.8,8.77c.68-.36.77-.73.73-.87-.15.23-.87.6-.54.28s.39-.55.29-.78c0,.23-.14.27-.38.27a1.82,1.82,0,0,0,.19-.69.91.91,0,0,1-.53.6s.1,0,.19-.41a.89.89,0,0,0,0-.78l-.29.36V6.48l-.29.18V5.93l-.43.36V5.7l-.63.23.09-.69-.72.18.39-.41-.29-.09-.1-.19-.39.19.1-.42-.53.19V4.32L210,4l-.39.1V3.45L209,3.36,209.3,3c-.17.1-.35.19-.53.28s-.29-.37-.29-.37l-.53.37V2.85s-.1,0-.39.28a1.47,1.47,0,0,1,0-.78s-.19-.05-.38.41-.15,0-.29.28a6.4,6.4,0,0,1,.19-1l-.63.42.2-.6-.44.37L206,1.75l-.39.18-.19-1-.44.6a3.31,3.31,0,0,1-.43-.69,1.79,1.79,0,0,1-.2.59s-.05,0-.19-.18a4.23,4.23,0,0,1-.39,2.07,2,2,0,0,0-.19-1.93,1.29,1.29,0,0,1-.29.69,2.88,2.88,0,0,0-.53-1.15V2.62l-1-1.14.44,1.28-1.11-1,.19.59-.53-.37s.48.69.82,1.25a3.24,3.24,0,0,1-1.21-.88v.37h-.29l-.63-.41.19.78-.43.09.43.27a.58.58,0,0,0-.38.1.86.86,0,0,1,.63.41h-.63l.43.51a4.32,4.32,0,0,1-1-.28A2.61,2.61,0,0,0,200,5.29c-.67.27-1.3.14-1.54.41.58-.14,1.16-.14,1.3.6-1.4-.14-2,.14-2.27.5,1.11-.27.92.37.92.37Z"/><path class="cls-2" d="M208.43,6.21s-2.61-.23-5.31-.42-2.47-2.48-2.86-3.9a16,16,0,0,1,3.05,2.16A4,4,0,0,1,202,2c.92,1.24,1,1.15,1,1.15s.39.27.1-1.38.72,1.38.72,1.38-.53-4.78.19-2.53A19,19,0,0,1,204.76,3a9,9,0,0,1,.29-2.25c-.1,1.37.43,1.6,2,2.61s1-.59,3,1.47.62,2.72.62,2.72"/><path class="cls-4" d="M208.24,9.51a1.56,1.56,0,0,1-1.45-1c.05-.19-.53-.87,1.31-.6s1.3.87,1.3.87A1.33,1.33,0,0,1,208.24,9.51Z"/><path class="cls-5" d="M208.15,9.75a1.81,1.81,0,0,1-1.58-1.2l0-.07V8.37a.6.6,0,0,1,.1-.59c.22-.22.68-.27,1.5-.14,1,.16,1.5.4,1.6.75a.49.49,0,0,1-.13.46,1.57,1.57,0,0,1-1.34.88h-.11ZM207,8.41c.19.37.58.92,1.19.87a1,1,0,0,0,1-.62l0-.06,0,0s0,0,0-.05-.09-.24-1.21-.42c-.92-.14-1.06,0-1.07,0a.33.33,0,0,0,0,.17.76.76,0,0,1,0,.15Z"/><g id="Shape_12_copy" data-name="Shape 12 copy"><path class="cls-4" d="M213.75,9.24a.49.49,0,0,0-.43.32s-.15.28.38.18.39-.27.39-.27A.36.36,0,0,0,213.75,9.24Z"/></g><path class="cls-5" d="M213.5,10a.58.58,0,0,1-.36-.12.37.37,0,0,1-.07-.35V9.46a.76.76,0,0,1,.66-.46.61.61,0,0,1,.55.35.31.31,0,0,1,0,.28c-.08.22-.38.3-.6.33Zm.25-.53a.16.16,0,0,0-.11,0h0l.15,0Z"/><path class="cls-6" d="M221.57,43.09a51.52,51.52,0,0,0-19.19-21.4,53.19,53.19,0,0,0-55.84-.05A51.8,51.8,0,0,0,127.29,43a46.2,46.2,0,0,1,17.94-23.11,52,52,0,0,1,13.83-6.61,52.81,52.81,0,0,1,30.65,0,50.67,50.67,0,0,1,13.83,6.62A45.68,45.68,0,0,1,221.57,43.09Z"/><path class="cls-2" d="M207,14.2c-.68-1.15-1.59-.87-2-.41a8.39,8.39,0,0,1-.53-2.9c.1-1.65-.68-.82-1.35-1-1.21-.32-.78-.65-.63-.87a3.1,3.1,0,0,1,1.83-1.15,2.22,2.22,0,0,0,1.74-.51c1.46-1.06,1.84-.64,2.13-.41,1.07,1.28,3.19,1,4.69.78S210.8,5.52,210.13,5c-7.88-4.78-9.62-.65-10.88.41A11.31,11.31,0,0,0,197,8.6a30,30,0,0,0-2.37,2.8,29,29,0,0,1-5.42,6.34c-5.8,5.23-3,2.84-2.27,2.62a26.68,26.68,0,0,1-6,6.33c-3.24,1.8-5.37,2.53-8.51,4.6a72.81,72.81,0,0,0-9.09,7.49,28.54,28.54,0,0,1-8.09,5.14c-10.44,4.78-10.83,6.2-12.18,7.86a9.5,9.5,0,0,0-.63,3.49,30.23,30.23,0,0,1-4.3,2.94c-2.86,1.65-6,3.53-6.87,4.27a26.25,26.25,0,0,0-6,4.55s.53-.28,7.68-3.72,19.49-5.84,22.82-6.53,14.36-5.19,11.46-3.72c1.94,4.78,7.74,3.72,8.61,3.31,4.69,0,7.78-.51,8.6-1a10,10,0,0,0,3.1-.5c1-.23.63.37,1.11.78-4.16,3-2.66,2.39-1.35,1.56a13.86,13.86,0,0,1,4-2c2.56-.41,2.42-.32,3.19-1.24-.58,1.65-.87,1.79-1.21,3,.19-.55.48-.92,1.11-2.34a5.07,5.07,0,0,0-.38,2.07,20.89,20.89,0,0,1,3.48-6,69.81,69.81,0,0,0,4.78-5.83c2.08-1.29,2.9-1.93,3.39-3.4-.15.82,0,1-.29,2.52a14.22,14.22,0,0,0,1.83-5.37,17.49,17.49,0,0,0-.53-7.4,14.94,14.94,0,0,1-.92-5.92c.1-.65.29-3.31.29-3.31s.54-.05.1,1.65a7.45,7.45,0,0,0,.39-5.23c-.2-1-.82-1.47,1.74-3.31a6.79,6.79,0,0,0,2.27-1.93A5.2,5.2,0,0,1,207,14.2Z"/><rect class="cls-1" y="46.63" width="151.85" height="35.69"/><rect class="cls-1" x="192.76" y="46.63" width="153.6" height="36.75"/><path class="cls-6" d="M34.61,67.26,34,75.19c-2.8,4.35-7.55,7.52-14.94,7.52C7.9,82.69,0,75.44,0,64.27c0-11,7.6-18.33,19.31-18.33a23.62,23.62,0,0,1,12.57,3.41L33,56.48h-.44c-1.6-5.9-6.82-9-13.2-9C10,47.44,4,54.16,4,64.21s6.06,16.78,15,17c7.55,0,13.94-3.59,15.15-13.94Z"/><path class="cls-6" d="M70.59,78.32a5.27,5.27,0,0,0,4.67,3.18h.44V82h-12v-.5h.49a2.16,2.16,0,0,0,2-3.17l-3.39-8.61H48.49l-3.56,8.64a2.15,2.15,0,0,0,2,3.14h.48V82H36.74v-.5h.49a5.23,5.23,0,0,0,4.65-3.18L54,51.13s2-4.1,2-5.21h.48ZM62.21,68.21,55.8,52,49.11,68.21Z"/><path class="cls-6" d="M92.65,46.63c6.45,0,10.4,3.61,10.4,9.5,0,4.89-3.92,9.65-9,9.65a12.64,12.64,0,0,1,3.81,3.55s4.59,6.22,6.64,8.36,4.11,3.8,7.25,3.82V82h-2.9a11.65,11.65,0,0,1-9.28-4.43c-.6-.69-6.59-9-7-9.46-1.39-1.66-3-3.41-4.89-3.41v-.46h2.82c2.75-.07,6.76-.69,8.3-5.24a10.33,10.33,0,0,0,.33-3c-.13-4.59-2.64-7.5-6.59-7.7-2.72-.14-5.94,0-6.62,0V78.32a3.31,3.31,0,0,0,3.38,3.18h.66V82H78.32V81.5H79a3.31,3.31,0,0,0,3.39-3.16v-28A3.32,3.32,0,0,0,79,47.15h-.65v-.51Z"/><path class="cls-6" d="M142.86,78.32a5.27,5.27,0,0,0,4.67,3.18H148V82H136v-.5h.48a2.16,2.16,0,0,0,2-3.17l-3.38-8.61H120.76l-3.56,8.64a2.15,2.15,0,0,0,2,3.14h.48V82H109v-.5h.48a5.26,5.26,0,0,0,4.67-3.18l12-27.19s2-4.1,2-5.21h.48Zm-8.38-10.11L128.07,52l-6.69,16.21Z"/><path class="cls-6" d="M235.48,67.26l-.65,7.93c-2.8,4.35-7.56,7.52-14.94,7.52-11.12,0-19-7.27-19-18.44,0-11,7.61-18.34,19.31-18.34a23.62,23.62,0,0,1,12.57,3.41l1.07,7.13h-.44c-1.62-5.89-6.83-9-13.22-9-9.35,0-15.31,6.72-15.31,16.77s6.06,16.78,15,17c7.55,0,13.94-3.59,15.14-13.94Z"/><path class="cls-6" d="M271.45,78.32a5.28,5.28,0,0,0,4.67,3.18h.45V82h-12v-.5h.49a2.16,2.16,0,0,0,2-3.17l-3.39-8.61H249.35l-3.56,8.64a2.16,2.16,0,0,0,2,3.14h.48V82H237.59v-.5h.48a5.24,5.24,0,0,0,4.66-3.18l12.05-27.19s2-4.1,2-5.21h.48Zm-8.37-10.11L256.67,52,250,68.21Z"/><path class="cls-6" d="M293.52,46.63c6.44,0,10.39,3.61,10.39,9.5,0,4.89-3.92,9.65-9,9.65a12.64,12.64,0,0,1,3.81,3.55s4.58,6.22,6.64,8.36,4.11,3.8,7.25,3.82V82h-2.9a11.65,11.65,0,0,1-9.28-4.43c-.6-.69-6.59-9-7-9.46-1.39-1.66-2.94-3.41-4.89-3.41v-.46h2.81c2.76-.07,6.77-.69,8.3-5.24a9.7,9.7,0,0,0,.34-3c-.13-4.57-2.63-7.5-6.59-7.7-2.71-.14-5.93,0-6.63,0V78.32a3.33,3.33,0,0,0,3.41,3.18h.67V82h-11.6V81.5h.68a3.3,3.3,0,0,0,3.38-3.16v-28a3.32,3.32,0,0,0-3.38-3.17h-.67v-.51Z"/><path class="cls-6" d="M343.74,78.32a5.28,5.28,0,0,0,4.67,3.18h.45V82h-12v-.5h.49a2.16,2.16,0,0,0,2-3.17L336,69.72H321.63l-3.57,8.64a2.15,2.15,0,0,0,2,3.14h.49V82H309.86v-.5h.48A5.24,5.24,0,0,0,315,78.32l12.06-27.19s2-4.1,2-5.21h.48Zm-8.37-10.11L329,52l-6.69,16.21Z"/><path class="cls-7" d="M187.21,69.87l-.83,2.53s1.45,2.48,3.1,5.33,2.22,4.32,2.27,5.24a1.41,1.41,0,0,0-.82,1,4.34,4.34,0,0,0-1.45,1.15c-.63.14-.58.41-.53.6.72.18.43.82.19,1.37,0,1,1.93.46,2.13.1,1.06-.05,1.49-.65,1.54-1.06s-.05-1,.92-1.29c1.45-.64,2.13.28,2.47.28a2.39,2.39,0,0,0,1.93.37c1.06.82,2.76.09,2.61-.46s-1.11-1.24-.05-1.47a2.58,2.58,0,0,1,2.28.78l.82.09c1.25.14,1.64-1.56,1.64-1.56l-.63-.28a3.3,3.3,0,0,1-.63-.36c-.38-.56.2-.65.2-.88-.68-.27-2.32.51-3,1-.73,0-1.16.27-1.64.27.19-.14-.05-.5-.3-1.15-.33-.32-1.35,0-1.93.51a5.07,5.07,0,0,1-2,.69s-1.64-2-2.66-3.49a78.94,78.94,0,0,1-4-7.58Z"/><g class="cls-8"><path class="cls-9" d="M186.34,72s-.63-2.2,1.31.42a64.67,64.67,0,0,1,5.31,10c0,.88-.63,1.2-2,2.07-1,.65-1.16.78-1.16.78s.76-.62.89-.76a1.92,1.92,0,0,0,.27-.46l.82-1.14-.53-1.29-4.3-8.77Z"/></g><path class="cls-10" d="M154.19,80.44a1.53,1.53,0,0,1-.1-1.93c.15-.28.29-.55.44-.78,0,0-.05,0,0-.69s-.29-.6-.44-.51a2.73,2.73,0,0,0-1,3.31,3.25,3.25,0,0,0,2.75,1.89A3.94,3.94,0,0,1,154.19,80.44Z"/><g id="Shape_48_copy_2" data-name="Shape 48 copy 2"><path class="cls-10" d="M200.75,84.85c.53-.32,1.59.28,2.32,1.24s.77,1.7,1,1.56a3.94,3.94,0,0,0-2.41-4.18c-.92-.23-1.84.19-1.5.55A.72.72,0,0,0,200.75,84.85Z"/></g><g id="Shape_48_copy_4" data-name="Shape 48 copy 4"><path class="cls-10" d="M162.55,87.15c.44-.28,1.36.23,1.94,1s.63,1.42.87,1.33a3.31,3.31,0,0,0-2-3.49c-.78-.19-1.55.14-1.26.46A.62.62,0,0,0,162.55,87.15Z"/></g><path class="cls-10" d="M204.37,82.37c.68.41.49.18.82.6.92-.74,2.66.41,2.66.41a2.18,2.18,0,0,0-1-1.38,3.05,3.05,0,0,0-2.61-.6C203.31,81.86,204.08,82.19,204.37,82.37Z"/><path class="cls-10" d="M189.1,87.28c-.65.09-.89.73-.73,1.93s.63,1.74.39,1.84a3.68,3.68,0,0,1-1-4.28c.34-.87,1.6-1.33,1.74-1a.89.89,0,0,1-.29,1.15A1.43,1.43,0,0,1,189.1,87.28Z"/><g id="Shape_47_copy" data-name="Shape 47 copy"><path class="cls-10" d="M199.25,82.28c.63.5.43.27.72.69,1-.56,2.57.78,2.57.78a2.17,2.17,0,0,0-.73-1.47,3.12,3.12,0,0,0-2.47-1C198.33,81.59,199,82,199.25,82.28Z"/></g><path class="cls-7" d="M162.89,86.41c-.29.41,0,.41.1.69s-.1.37-.29.37c-.44,0-1-.19-1.94-1.29a2.42,2.42,0,0,0-1-.37,4.87,4.87,0,0,1-1.21-1.14c-.58,0-1.79-.83-1.74-1.66a2.1,2.1,0,0,1,.19-.6s-.43-.5-.43-.68c-.05-.69.24-.6.29-1a2.44,2.44,0,0,1,.92-1.84c-.58-.13-1.36-.92-.92-1.28a.92.92,0,0,1-.82-.09c-.1.36-.29,1.1-1.55.68a.54.54,0,0,1-.29-.5s.14-1.06-.19-1.15c-.1-.32,0-.87.62-.78a.86.86,0,0,1,1-.28c.29,0,.73-.09.92.19.34,0,1.26,0,1.35.41a1.47,1.47,0,0,1,.63-.27A55.33,55.33,0,0,0,161.1,69c.63-1.89,1.36-4,1.36-4L164.39,66v1s-1.21,3.22-1.93,5.47a38.6,38.6,0,0,0-1.21,5.92c-.29.92-2.61,4.78.43,6.2a2,2,0,0,1,1.55,1.24C163.18,86.23,163.18,86,162.89,86.41Z"/><path class="cls-9" d="M160.86,75.57c.39-1.75,2.71-8.54,2.71-8.54l1.11.59s-1.64,4.32-2.27,5.93-.24,4.27-.82,5.37a7.93,7.93,0,0,0-1.12,2.94c-.24,1.34.25,2.9.63,3-.09.41-.09.32-.19.68-.34,0-.24,0-.29.42a3.83,3.83,0,0,0-1.21-.19,3.08,3.08,0,0,0,.19-2c.25-.78-.24-.92-.43-1.24.14-.41-.19-.73-.44-.59.15-.51.39-1.29.39-1.29a7,7,0,0,1,.53-1.15c.34-.6.87-.87,1.07-1.42A13.38,13.38,0,0,1,160.86,75.57Z"/><path class="cls-11" d="M186.82,53.11l-4.2-.42-12.57-2.06-12.81,1-11,4.46L138,60.82l3.77,1.66,5-.87,9.14.27,4,.37-.43.41.82.42h-.53l-.29,1.28a1.71,1.71,0,0,1,.82.28c.43.87.39,1.61.72,1.93.58,2.06,1.12,1.15,1.46,1.56,1.35-.87,1.06,0,1.64-.41,1.26-.83,1.21-1.38,1.21-1.38l1-.69,2.47-1.84,4.3-1.38c1.46-.34,2.89-.76,4.3-1.24-.19,2.9-.43,3.08-1.3,4,.72-.09.72-.28,1.11-.37-.1.28-.92.55-1.64.69a11.46,11.46,0,0,0,1.74.37l-.82.27s0,0,1.11,2.35a8.52,8.52,0,0,0,2.46,3.21l.44-1.28V72s.58-.51,1.93-1.84a13.66,13.66,0,0,0,1.45,4.46,8.66,8.66,0,0,1,.92-1.24c.29-.65.92,0,.92,0l.43-.1.1.42.53-.28a1.85,1.85,0,0,1,.2.6c.77-.69.72-1.06.72-1.06a6.25,6.25,0,0,1-.1,1c.15-.14.3,0,.54-.88a4.26,4.26,0,0,0,.53,1.66,4.22,4.22,0,0,1,.29-2,5.54,5.54,0,0,0,1.21,1.65,12.48,12.48,0,0,1-.82-1.47,4,4,0,0,1,0-1.75A88.74,88.74,0,0,1,192,61.28a73.51,73.51,0,0,1,3-7.58Z"/><path class="cls-2" d="M194.17,49l-7.49,1.24s-14.41,4.91-15.42,5.83c0,.88,1.3,1.38,3.09.88a13.52,13.52,0,0,1,3.58-.51c1.06-.14,3.33-.18,4.74-.27a8.35,8.35,0,0,0,2.56-.79c-.2,4.83-9.09,5.61-13.06,6.89s-5.65,1.06-5.85,1.93-1.25,2.39-.91,2.26a3.3,3.3,0,0,1,2.85-.88,14.6,14.6,0,0,1,4.64-2.8,17.75,17.75,0,0,1,5-1.24A17.48,17.48,0,0,0,179,65.28c.39-1,0-.83,2.37-2.94s8.27-6.48,10.05-7c2.91-.78,2.66-1.65,2.66-1.65Z"/><path class="cls-5" d="M165.37,66.71a.24.24,0,0,1-.2-.07c-.16-.17,0-.36.26-.92a5.89,5.89,0,0,0,.65-1.51c.15-.67.84-.81,2.2-1.11a38.27,38.27,0,0,0,3.82-1c.86-.28,1.93-.54,3.12-.81,4.14-1,9.26-2.17,9.73-5.51l-.07,0a5.79,5.79,0,0,1-2.2.62c-.51,0-1.15.07-1.8.1-1.11,0-2.26.09-2.9.18-.27,0-.48,0-.73,0a11.08,11.08,0,0,0-2.81.46,3.56,3.56,0,0,1-2.9-.17,1.13,1.13,0,0,1-.49-.92V56l.08-.07c1-.92,14-5.38,15.5-5.88l7.82-1.3,0,4.89c0,.25,0,1.14-2.83,1.9-1.69.52-7.44,4.73-10,7-1.93,1.69-2,1.9-2.15,2.4,0,.13-.08.27-.15.46l-.23.56-.23-.56a15.28,15.28,0,0,1-1-3.31.92.92,0,0,0-.05-.26A19.87,19.87,0,0,0,173,63a13.71,13.71,0,0,0-4.55,2.76l-.06,0h-.07a2,2,0,0,1-.49,0,2.69,2.69,0,0,0-2.26.82l-.06,0A.25.25,0,0,1,165.37,66.71Zm20.11-11.57v.27c-.16,4-5.7,5.26-10.15,6.31-1.15.27-2.24.52-3.08.8a39.27,39.27,0,0,1-3.87,1c-1.25.27-1.76.39-1.83.74a5.7,5.7,0,0,1-.66,1.55,2.9,2.9,0,0,1,2-.46h.27a15.28,15.28,0,0,1,4.66-2.8,17.54,17.54,0,0,1,5.14-1.26h.16l0,.15a4.21,4.21,0,0,1,.12.48,13.48,13.48,0,0,0,.75,2.62c.16-.46.43-.85,2.22-2.42,2.25-2,8.22-6.48,10.15-7.07,2.12-.57,2.53-1.2,2.5-1.38v0h0l.05-4.37-7.21,1.19c-5.56,1.9-14.07,4.94-15.21,5.72a.61.61,0,0,0,.3.45,3,3,0,0,0,2.47.11,11.56,11.56,0,0,1,2.93-.46c.22,0,.45,0,.69,0,.68-.09,1.84-.14,3-.19.65,0,1.27-.05,1.79-.09a5.5,5.5,0,0,0,2-.57,1.67,1.67,0,0,1,.52-.21Z"/><path class="cls-2" d="M159.94,61.47a2.37,2.37,0,0,1-2-1.06c-3,1-3.62-1.56-3.67-1.84a58.13,58.13,0,0,1-5.51,1.93l1.54-1.65-2.37,1.84.2-.6-.78.51.1-.37-1.11.59.1-.5-.83.69-.91.37s0-.23.62-.88a11.91,11.91,0,0,0-1.45.88c-1.06,0-2.75.18-2.75.18a1.8,1.8,0,0,1,.09-.69,9.6,9.6,0,0,1,2.28-1l.38-.51,2.76-.78-.39-1.47,1.31-3a11.76,11.76,0,0,0-5.22,1.24A20.71,20.71,0,0,1,139,57.79a118.27,118.27,0,0,0-11,7c-4,3-3.72,3.81-3.48,5-1.69,1.1-1.79.92-1.64,1.28.53.79,1.35,1.84,1.35,1.84s20.94-10.2,22.53-11.07c.92,1.1.92,1.06,1.94,1.06a5.16,5.16,0,0,1,3.38.87,11.91,11.91,0,0,1,3.29-.37,13,13,0,0,0,4.49-1.15C159.8,62,159.54,61.74,159.94,61.47Z"/><polygon class="cls-12" points="133.21 67.99 134.42 67.03 129.49 69.37 130.79 68.4 131.32 67.99 130.5 68.08 132.53 67.12 131.81 67.03 132.43 66.75 132.05 66.47 130.69 66.47 122.28 71.02 123.3 73.18 126.68 71.11 126.97 71.3 142.44 63.99 133.21 67.99"/><path class="cls-10" d="M158.69,86.69a1.42,1.42,0,0,1-1.55-.6c1.06.55,1.3-.18,1.4-.51a2.6,2.6,0,0,0,.1-1.33c-.15-.32-.1-.92.38-.92C159.94,83.38,159.94,86.14,158.69,86.69Z"/><path class="cls-13" d="M187,50.67l-2.08,1s-1.69,1-2.66,1.74c.24.55,2,.14,3.19-.36A3.16,3.16,0,0,0,187,51.18Z"/><path class="cls-5" d="M182.93,53.87a1.66,1.66,0,0,1-.55-.07.64.64,0,0,1-.37-.33l-.07-.16.14-.11c1-.73,2.61-1.71,2.68-1.76l2.45-1.13v.91a3.34,3.34,0,0,1-1.68,2A7.33,7.33,0,0,1,182.93,53.87Zm-.31-.48a5.76,5.76,0,0,0,2.7-.58,2.91,2.91,0,0,0,1.41-1.66V51l-1.73.8h0s-1.42.85-2.38,1.55Z"/><path class="cls-13" d="M182.42,51.87a6.21,6.21,0,0,1-2,1.74c-1.11.51-2.08.74-1.93,1.15.68,1.06,3.92-.87,3.92-.87C183.29,52,182.42,51.87,182.42,51.87Z"/><path class="cls-5" d="M179.19,55.31a1.39,1.39,0,0,1-.35,0,.93.93,0,0,1-.59-.39l0-.05c-.18-.51.48-.76,1.26-1.09.25-.09.52-.21.8-.33a6.25,6.25,0,0,0,1.93-1.68l.09-.11h.15a.67.67,0,0,1,.46.34c.22.42.11,1.09-.33,2l0,.07-.06,0A8.39,8.39,0,0,1,179.19,55.31Zm3.29-3.13a6.23,6.23,0,0,1-2,1.64c-.28.13-.56.24-.81.34s-1,.4-1,.52a.46.46,0,0,0,.26.15c.81.17,2.55-.7,3.24-1.1.48-1,.37-1.4.3-1.53S182.49,52.18,182.48,52.18Z"/><path class="cls-13" d="M188.71,50.9s-1.06,1.29-1.55,1.75c-2.46,1.61-1.45,2.43-1.55,2.25a17.31,17.31,0,0,0,3.2-2.16,5.42,5.42,0,0,0,.43-2Z"/><path class="cls-5" d="M185.61,55.16a.31.31,0,0,1-.25-.16c-.11-.17-.55-1.09,1.66-2.54.44-.42,1.49-1.69,1.5-1.7l0,0,.9-.31v.31a5.58,5.58,0,0,1-.43,2.12,15.3,15.3,0,0,1-3.1,2.16h0l-.2.13Zm3.24-4.06c-.2.24-1.08,1.3-1.52,1.71-1.29.84-1.55,1.41-1.59,1.68a.09.09,0,0,0,0,.07,17.3,17.3,0,0,0,2.85-1.91,5.87,5.87,0,0,0,.4-1.6Z"/><path class="cls-13" d="M193.83,51.5l.39-1.24a4.1,4.1,0,0,0-.53,1c-.29.69-1.11,2.07-1.11,2.07l2.27-2.07Z"/><path class="cls-5" d="M192.74,53.46l-.38-.28s.82-1.38,1.1-2a4.34,4.34,0,0,1,.57-1l.42.21-.26.84.59-.16.23.39Zm1-1.68-.18.34.48-.42Z"/><g id="Shape_13_copy_82" data-name="Shape 13 copy 82"><path class="cls-13" d="M178.56,53.61c-.78-.27.09-1.51.38-1.93.49-.64,1.84-2,2.32-1.74s.92.87.15,1.79C181,52.1,179.14,53.8,178.56,53.61Z"/></g><path class="cls-5" d="M178.63,53.86h-.15a.69.69,0,0,1-.43-.42c-.18-.51.28-1.26.7-1.83,0,0,1.8-2.3,2.65-1.84a1.39,1.39,0,0,1,.64.88,1.54,1.54,0,0,1-.43,1.25C181.07,52.37,179.45,53.86,178.63,53.86Zm0-.46a7.09,7.09,0,0,0,2.61-1.84,1.1,1.1,0,0,0,.31-.87.82.82,0,0,0-.42-.56c-.2-.12-1.3.76-2,1.68-.51.72-.72,1.21-.64,1.45A.2.2,0,0,0,178.63,53.4Z"/><g id="Shape_13_copy_74" data-name="Shape 13 copy 74"><path class="cls-13" d="M183.83,52.46c-.68-.45.62-1.6,1.11-1.92.72-.56,2.51-1.7,2.9-1.29s.58,1.15-.53,1.88C186.82,51.45,184.36,52.83,183.83,52.46Z"/></g><path class="cls-5" d="M184.07,52.75a.64.64,0,0,1-.68-.57v-.06c0-.8,1.39-1.76,1.41-1.77.25-.2,2.58-1.93,3.22-1.25a1.26,1.26,0,0,1,.31,1,1.74,1.74,0,0,1-.89,1.21S185.16,52.75,184.07,52.75Zm3.51-3.37a7.06,7.06,0,0,0-2.48,1.33c-.49.34-1.21,1-1.22,1.41a.18.18,0,0,0,.1.16h0c.3.21,2.36-.78,3.2-1.34a1.33,1.33,0,0,0,.68-.89.82.82,0,0,0-.2-.65Z"/><g id="Shape_13_copy_81" data-name="Shape 13 copy 81"><path class="cls-13" d="M173.82,54.58c-1-.55,1-1.93,1.64-2.35,1.07-.64,3.82-2.06,4.35-1.56s.87,1.38-.77,2.3C178.31,53.38,174.64,55,173.82,54.58Z"/></g><path class="cls-5" d="M174.22,54.88a1.15,1.15,0,0,1-.52-.1.69.69,0,0,1-.41-.59c0-.83,1.56-1.84,2-2.15.16-.09,3.84-2.29,4.65-1.53a1.35,1.35,0,0,1,.49,1.13c-.05.39-.3,1-1.29,1.53C178.81,53.37,175.69,54.88,174.22,54.88Zm5.23-4.09a11.74,11.74,0,0,0-3.87,1.64c-.89.54-1.82,1.34-1.82,1.75,0,0,0,.11.17.2h0c.63.35,4-1.07,5-1.61.65-.36,1-.76,1-1.17a.87.87,0,0,0-.31-.75A.31.31,0,0,0,179.45,50.79Z"/><g id="Shape_13_copy_79" data-name="Shape 13 copy 79"><path class="cls-13" d="M178.07,51.91c-.67-.46.63-1.61,1.11-1.93.73-.55,2.52-1.7,2.91-1.29s0,1.11-.73,1.79A3.68,3.68,0,0,1,178.07,51.91Z"/></g><path class="cls-5" d="M178.59,52.18a3.52,3.52,0,0,1-.56,0H178l0,0a.64.64,0,0,1-.29-.53c0-.81,1.39-1.77,1.4-1.78.26-.18,2.59-1.92,3.22-1.24.42.45.1,1.37-.74,2.11a2.44,2.44,0,0,0-.29.27A3.6,3.6,0,0,1,178.59,52.18Zm-.42-.46a3,3,0,0,0,2.71-1.09l.33-.3c.68-.61.87-1.26.69-1.46s-1.45.46-2.57,1.32c-.48.33-1.2,1-1.21,1.4a.16.16,0,0,0,0,.11Z"/><g id="Shape_13_copy_80" data-name="Shape 13 copy 80"><path class="cls-13" d="M170.53,53.93c-.68-.45.63-1.6,1.11-1.92.73-.56,2.52-1.7,2.9-1.29s.05,1.1-.72,1.79C173.29,52.88,172.42,54.16,170.53,53.93Z"/></g><path class="cls-5" d="M171,54.21a3.91,3.91,0,0,1-.49,0h-.06l0,0a.63.63,0,0,1-.3-.54c0-.8,1.39-1.76,1.41-1.77.25-.19,2.58-1.93,3.22-1.25.41.46.09,1.38-.74,2.11a3.65,3.65,0,0,0-.36.31A3.79,3.79,0,0,1,171,54.21Zm-.34-.46a3.23,3.23,0,0,0,2.66-1.06,3.9,3.9,0,0,1,.38-.33c.68-.61.86-1.26.69-1.46s-1.45.46-2.57,1.32c-.48.33-1.21,1-1.21,1.4a.11.11,0,0,0,0,.09Z"/><g id="Shape_13_copy_78" data-name="Shape 13 copy 78"><path class="cls-13" d="M180.39,50c-.67-.46.63-1.61,1.12-1.93.72-.55,2.51-1.7,2.9-1.29s.58,1.15-.54,1.89C183.34,49,180.88,50.4,180.39,50Z"/></g><path class="cls-5" d="M180.63,50.31a.56.56,0,0,1-.38-.1.6.6,0,0,1-.29-.52c0-.81,1.39-1.77,1.4-1.78.26-.19,2.59-1.93,3.22-1.25a1.28,1.28,0,0,1,.32,1,1.77,1.77,0,0,1-.89,1.21A10.18,10.18,0,0,1,180.63,50.31Zm-.09-.45c.28.15,2-.61,3.2-1.35a1.33,1.33,0,0,0,.68-.89.82.82,0,0,0-.2-.65,5.63,5.63,0,0,0-2.57,1.31c-.43.29-1.2,1-1.21,1.41a.19.19,0,0,0,.09.16Z"/><g id="Shape_13_copy_77" data-name="Shape 13 copy 77"><path class="cls-13" d="M181.46,48.88c-.63-.5.77-1.51,1.3-1.84.78-.46,2.71-1.47,3-1s.43,1.2-.73,1.84C184.5,48.15,181.94,49.29,181.46,48.88Z"/></g><path class="cls-5" d="M181.8,49.19a.73.73,0,0,1-.5-.13.6.6,0,0,1-.24-.53c.05-.74,1.42-1.58,1.57-1.68.37-.22,2.27-1.32,3-1.14a.57.57,0,0,1,.32.2,1.27,1.27,0,0,1,.18,1,1.81,1.81,0,0,1-1,1.16A10.92,10.92,0,0,1,181.8,49.19Zm3.65-3a7.72,7.72,0,0,0-2.56,1.1c-.65.39-1.33,1-1.35,1.32a.17.17,0,0,0,.07.15h0c.26.22,2.24-.49,3.3-1.05a1.39,1.39,0,0,0,.76-.85.83.83,0,0,0-.11-.65Z"/><g id="Shape_13_copy_76" data-name="Shape 13 copy 76"><path class="cls-13" d="M183.15,48c-.58-.55.87-1.47,1.4-1.75.77-.41,2.76-1.28,3-.87s.38,1.19-.83,1.79C186.24,47.46,183.58,48.47,183.15,48Z"/></g><path class="cls-5" d="M183.59,48.35a.87.87,0,0,1-.62-.18.63.63,0,0,1-.19-.55c.11-.74,1.5-1.48,1.65-1.56s2.87-1.5,3.36-.8a1.25,1.25,0,0,1,.16,1,1.88,1.88,0,0,1-1.06,1.1A11.5,11.5,0,0,1,183.59,48.35Zm3.7-2.87a8.61,8.61,0,0,0-2.62,1c-.55.28-1.36.85-1.41,1.22a.17.17,0,0,0,.06.16h0c.26.26,2.53-.46,3.33-.88a1.44,1.44,0,0,0,.83-.81.79.79,0,0,0-.1-.65A.14.14,0,0,0,187.29,45.48Z"/><g id="Shape_13_copy_72" data-name="Shape 13 copy 72"><path class="cls-13" d="M197.85,48c-.83-.73-1.6.92-1.6.92s-1.4,2.21-1.06,2.53,1.88-1.52,1.88-1.52S198.18,48.42,197.85,48Z"/></g><path class="cls-5" d="M195.24,51.67a.32.32,0,0,1-.21-.08c-.33-.32,0-1.26,1-2.83,0-.08.52-1.07,1.21-1.2a.85.85,0,0,1,.76.24l0,0c.41.55-.48,1.84-.77,2.2C196,51.39,195.49,51.67,195.24,51.67ZM197.41,48h-.06c-.38.07-.78.74-.88,1a8.91,8.91,0,0,0-1.08,2.16,10.84,10.84,0,0,0,1.5-1.37c.48-.67.86-1.43.77-1.63a.41.41,0,0,0-.25-.11Z"/><g id="Shape_13_copy_71" data-name="Shape 13 copy 71"><path class="cls-13" d="M197.22,48.33c-.82-.78-1.4-.09-1.4-.09S195,49.39,194,51.09s2.66-1.47,2.66-1.47S197.56,48.79,197.22,48.33Z"/></g><path class="cls-5" d="M193.87,51.84a.32.32,0,0,1-.19-.07c-.26-.19,0-.58.09-.79,1-1.69,1.84-2.86,1.85-2.87a1.12,1.12,0,0,1,.77-.38,1.35,1.35,0,0,1,1,.46l0,0c.45.6-.48,1.48-.61,1.58C194.83,51.52,194.14,51.84,193.87,51.84ZM196,48.38s-.82,1.15-1.82,2.82c0,0,0,0,0,0a22.35,22.35,0,0,0,2.31-1.8c.31-.28.67-.77.55-1a.85.85,0,0,0-.62-.29A.61.61,0,0,0,196,48.38Z"/><g id="Shape_13_copy_69" data-name="Shape 13 copy 69"><path class="cls-13" d="M199.83,44.84c-.92-.6-1.4,1.15-1.4,1.15s-1.07,2.39-.68,2.62,1.64-1.75,1.64-1.75S200.26,45.25,199.83,44.84Z"/></g><path class="cls-5" d="M197.81,48.85a.3.3,0,0,1-.2-.06c-.13-.07-.55-.32.59-2.89,0-.09.33-1.13,1-1.38a.87.87,0,0,1,.78.12l0,0c.53.49-.17,1.87-.39,2.3s-1.23,1.79-1.71,1.88Zm1.64-3.91h-.1c-.35.13-.62.85-.69,1.09a8.88,8.88,0,0,0-.76,2.3,8.23,8.23,0,0,0,1.29-1.6c.35-.66.64-1.52.48-1.73a.79.79,0,0,0-.22-.06Z"/><g id="Shape_13_copy_70" data-name="Shape 13 copy 70"><path class="cls-13" d="M197.7,46.68c-.92-.6-1.4,1.15-1.4,1.15s-1.06,2.38-.68,2.61,1.63-1.75,1.63-1.75S198.14,47.09,197.7,46.68Z"/></g><path class="cls-5" d="M195.68,50.69a.36.36,0,0,1-.2-.06c-.12-.07-.55-.32.6-2.89,0-.09.33-1.14,1-1.38a.86.86,0,0,1,.78.12l0,0c.52.49-.17,1.87-.4,2.29s-1.22,1.79-1.71,1.89Zm1.64-3.91h-.09c-.32.11-.6.73-.7,1.09a8.91,8.91,0,0,0-.75,2.29,8.5,8.5,0,0,0,1.28-1.59c.36-.66.64-1.53.48-1.73a.4.4,0,0,0-.22-.06Z"/><g id="Shape_13_copy_75" data-name="Shape 13 copy 75"><path class="cls-13" d="M184.41,47.37c-.29-.65.91-1.52,1.3-1.7.58-.28,3-1.57,3.1-1.06A4,4,0,0,1,187,47C186.62,47.18,184.65,47.92,184.41,47.37Z"/></g><path class="cls-5" d="M184.9,47.8a1.5,1.5,0,0,1-.37,0,.56.56,0,0,1-.35-.29c-.37-.83,1-1.8,1.42-2l.31-.15c1.84-.92,2.57-1.16,2.91-1a.35.35,0,0,1,.21.25c.14.53-1,2.2-2,2.64A6.44,6.44,0,0,1,184.9,47.8Zm3.66-3.08a9.4,9.4,0,0,0-2.41,1l-.33.16c-.44.21-1.38,1-1.19,1.38h0l.06,0a4.81,4.81,0,0,0,2.16-.52,3.9,3.9,0,0,0,1.7-2.05Z"/><g id="Shape_13_copy_28" data-name="Shape 13 copy 28"><path class="cls-13" d="M184.84,50.63c-.34-.6.73-1.38,1.11-1.61.58-.32,2-1,2.13-.51a1.45,1.45,0,0,1-.77,1.7C187,50.44,185.08,51.13,184.84,50.63Z"/></g><path class="cls-5" d="M185.29,51a1,1,0,0,1-.29,0,.56.56,0,0,1-.38-.27c-.48-.88,1.13-1.86,1.2-1.9.28-.16,1.63-.88,2.22-.66a.44.44,0,0,1,.27.28,1.67,1.67,0,0,1-.89,2A5.46,5.46,0,0,1,185.29,51Zm2.5-2.48a5.29,5.29,0,0,0-1.72.66c-.52.31-1.22.94-1,1.3h0l.07,0a4.43,4.43,0,0,0,2-.53,1.25,1.25,0,0,0,.68-1.46S187.8,48.56,187.79,48.56Z"/><g id="Shape_13_copy_73" data-name="Shape 13 copy 73"><path class="cls-13" d="M189.1,53c-.68-.37.38-1.56.77-1.93.58-.6,2.13-1.88,2.46-1.52s.63,1-.29,1.84C191.66,51.73,189.63,53.29,189.1,53Z"/></g><path class="cls-5" d="M189.26,53.24a.59.59,0,0,1-.29-.07.65.65,0,0,1-.33-.46c-.1-.7.94-1.72,1.06-1.84.31-.32,1.75-1.65,2.46-1.65h0a.46.46,0,0,1,.34.14,1.25,1.25,0,0,1,.38.92,1.77,1.77,0,0,1-.68,1.26S190.24,53.24,189.26,53.24Zm2.88-3.55a6,6,0,0,0-2.09,1.51c-.42.4-1,1.1-.93,1.44a.14.14,0,0,0,.1.13h0c.27.16,2-.92,2.65-1.57a1.37,1.37,0,0,0,.52-.92.75.75,0,0,0-.24-.58Z"/><g id="Shape_13_copy_29" data-name="Shape 13 copy 29"><path class="cls-13" d="M186.44,47.5c-.34-.59.82-1.56,1.21-1.79.58-.32,2.85-1.74,3-1.28A4,4,0,0,1,189,46.91C188.61,47.14,186.68,48,186.44,47.5Z"/></g><path class="cls-5" d="M186.79,47.89a1.07,1.07,0,0,1-.25,0,.51.51,0,0,1-.32-.25c-.46-.82,1-1.91,1.29-2.09l.37-.21c1.49-.88,2.38-1.32,2.77-1.17a.32.32,0,0,1,.22.22,4,4,0,0,1-1.76,2.76A6.86,6.86,0,0,1,186.79,47.89Zm-.14-.46a4.76,4.76,0,0,0,2.22-.69,4.16,4.16,0,0,0,1.53-2.15,12.54,12.54,0,0,0-2.26,1.13l-.37.21c-.45.27-1.34,1.1-1.12,1.49Z"/><g id="Shape_13_copy_26" data-name="Shape 13 copy 26"><path class="cls-13" d="M186.24,49.52c-.29-.55.63-1.24,1-1.47s1.69-.87,1.79-.45a1.4,1.4,0,0,1-.63,1.56C188,49.34,186.44,50,186.24,49.52Z"/></g><path class="cls-5" d="M186.62,49.92a1,1,0,0,1-.3-.05.5.5,0,0,1-.3-.25c-.34-.67.51-1.38,1-1.75.25-.17,1.38-.81,1.9-.61a.42.42,0,0,1,.27.28,1.61,1.61,0,0,1-.74,1.81A5.69,5.69,0,0,1,186.62,49.92Zm-.15-.46a4.11,4.11,0,0,0,1.78-.46,1.18,1.18,0,0,0,.52-1.29,3.46,3.46,0,0,0-1.42.57c-.51.35-1,.87-.89,1.18Z"/><g id="Shape_13_copy_25" data-name="Shape 13 copy 25"><path class="cls-13" d="M188,49.2c.54.42,1.45-.27,1.74-.5.44-.37,1.41-1.47.92-1.56s-1.5.5-2.12.82C188.23,48.1,187.55,48.88,188,49.2Z"/></g><path class="cls-5" d="M188.38,49.57a.92.92,0,0,1-.55-.19.56.56,0,0,1-.23-.53,1.78,1.78,0,0,1,.8-1.08l.42-.22a3.05,3.05,0,0,1,1.88-.62.38.38,0,0,1,.3.27c.15.55-1.1,1.68-1.12,1.69A2.57,2.57,0,0,1,188.38,49.57Zm2.09-2.22a3.53,3.53,0,0,0-1.4.58c-.16.08-.3.17-.44.23a1.35,1.35,0,0,0-.55.74.12.12,0,0,0,0,.12h0c.25.2.79,0,1.45-.5a4.36,4.36,0,0,0,1-1.17Z"/><g id="Shape_13_copy_22" data-name="Shape 13 copy 22"><path class="cls-13" d="M205.87,36.75c-.48-.14-1.06.78-1.21,1.06-.24.5-.38,1,0,1.14s.92-.73,1.07-1S206.26,36.85,205.87,36.75Z"/></g><path class="cls-5" d="M204.68,39.19h-.06a.52.52,0,0,1-.37-.27,1.42,1.42,0,0,1,.19-1.2c.08-.15.76-1.37,1.49-1.18a.43.43,0,0,1,.28.21c.14.25,0,.62-.16,1.07l-.09.24v.07S205.22,39.19,204.68,39.19ZM205.77,37c-.23,0-.65.49-.89,1s-.24.7-.2.79.63-.52.82-.81a1,1,0,0,1,.09-.24,2.09,2.09,0,0,0,.19-.69Z"/><g id="Shape_13_copy_20" data-name="Shape 13 copy 20"><path class="cls-13" d="M203.21,35.83c-.67,0-.82,1.06-.92,1.43s-.14,1.88.34,1.79.82-1.52.87-1.89S203.74,35.83,203.21,35.83Z"/></g><path class="cls-5" d="M202.57,39.29a.5.5,0,0,1-.31-.14c-.39-.39-.29-1.67-.22-1.95,0,0,0-.09,0-.15.12-.51.33-1.44,1.12-1.44a.51.51,0,0,1,.44.21,1.89,1.89,0,0,1,.08,1.41h0s-.4,2-1.07,2.05Zm.63-3.22c-.4,0-.56.7-.65,1.08a.47.47,0,0,1,0,.17,2.74,2.74,0,0,0,.1,1.52,4.74,4.74,0,0,0,.64-1.7,1.68,1.68,0,0,0,0-1s0,0,0,0Z"/><g id="Shape_13_copy_23" data-name="Shape 13 copy 23"><path class="cls-13" d="M202.2,35.51c-.63,0-.78.83-.87,1.11s-.1,1.47.34,1.42.77-1.19.82-1.47S202.68,35.51,202.2,35.51Z"/></g><path class="cls-5" d="M201.64,38.27a.46.46,0,0,1-.32-.13c-.39-.39-.23-1.55-.23-1.56a1.26,1.26,0,0,1,0-.16c.1-.37.33-1.14,1.06-1.14a.56.56,0,0,1,.41.18,1.49,1.49,0,0,1,.12,1.13s-.43,1.6-1,1.68Zm.56-2.53c-.34,0-.49.42-.6.8l0,.15a2.46,2.46,0,0,0,.1,1.11,3.54,3.54,0,0,0,.6-1.27c.09-.53.05-.71,0-.77l-.05,0Z"/><g id="Shape_13_copy_21" data-name="Shape 13 copy 21"><path class="cls-13" d="M205.19,34.32c.54.18.49,1.19.44,1.52,0,.5-.34,1.65-.73,1.47a2.29,2.29,0,0,1-.33-1.89C204.71,35.1,204.76,34.18,205.19,34.32Z"/></g><path class="cls-5" d="M205,37.56a.46.46,0,0,1-.2-.05c-.48-.22-.65-1.61-.48-2.16a2.19,2.19,0,0,0,.1-.34c.09-.36.18-.73.45-.88a.53.53,0,0,1,.39,0h0c.8.28.6,1.71.59,1.77s-.15,1.38-.67,1.63A.64.64,0,0,1,205,37.56Zm.12-3a1.61,1.61,0,0,0-.2.57,2.64,2.64,0,0,1-.12.4,2.57,2.57,0,0,0,.2,1.57,2.87,2.87,0,0,0,.4-1.26c.07-.46,0-1.18-.28-1.28Z"/><g id="Shape_13_copy_16" data-name="Shape 13 copy 16"><path class="cls-13" d="M192.29,46.31c-.54-.32-1.41.41-1.65.69s-1.16,1.47-.72,1.65a2.51,2.51,0,0,0,1.88-1C192,47.27,192.77,46.58,192.29,46.31Z"/></g><path class="cls-5" d="M190,48.9a.52.52,0,0,1-.21,0,.41.41,0,0,1-.26-.3c-.14-.6.89-1.7.9-1.71.28-.32,1.25-1.15,1.93-.73a.47.47,0,0,1,.26.34c.07.33-.21.69-.48,1a1.65,1.65,0,0,0-.19.25A3,3,0,0,1,190,48.9ZM192,46.46a2.08,2.08,0,0,0-1.15.69,2.78,2.78,0,0,0-.79,1.31,2.77,2.77,0,0,0,1.56-1,3.46,3.46,0,0,1,.22-.31c.15-.18.41-.5.38-.64l0,0h0a.37.37,0,0,0-.17,0Z"/><g id="Shape_13_copy_24" data-name="Shape 13 copy 24"><path class="cls-13" d="M192.29,46.31c-.54-.32-1.41.41-1.65.69s-1.16,1.47-.72,1.65a2.51,2.51,0,0,0,1.88-1C192,47.27,192.77,46.58,192.29,46.31Z"/></g><path class="cls-5" d="M190,48.9a.52.52,0,0,1-.21,0,.41.41,0,0,1-.26-.3c-.14-.6.89-1.7.9-1.71.28-.32,1.25-1.15,1.93-.73a.47.47,0,0,1,.26.34c.07.33-.21.69-.48,1a1.65,1.65,0,0,0-.19.25A3,3,0,0,1,190,48.9ZM192,46.46a2.08,2.08,0,0,0-1.15.69,2.78,2.78,0,0,0-.79,1.31,2.77,2.77,0,0,0,1.56-1,3.46,3.46,0,0,1,.22-.31c.15-.18.41-.5.38-.64l0,0h0a.37.37,0,0,0-.17,0Z"/><g id="Shape_13_copy_14" data-name="Shape 13 copy 14"><path class="cls-13" d="M192.58,44.89c-.58-.37-1.41.41-1.7.68s-1.16,1.47-.72,1.66,1.55-.46,1.93-1.06C192.29,45.9,193,45.16,192.58,44.89Z"/></g><path class="cls-5" d="M190.28,47.48a.57.57,0,0,1-.22,0,.43.43,0,0,1-.26-.31c-.13-.59.89-1.7.9-1.71.35-.33,1.27-1.2,2-.72a.46.46,0,0,1,.23.34c.07.36-.27.79-.52,1.09l-.13.17A3.14,3.14,0,0,1,190.28,47.48ZM192.21,45a2.13,2.13,0,0,0-1.18.72,2.3,2.3,0,0,0-.77,1.3,3,3,0,0,0,1.61-1l.15-.2c.14-.17.48-.57.43-.74l0,0a.31.31,0,0,0-.19-.06Z"/><g id="Shape_13_copy_27" data-name="Shape 13 copy 27"><path class="cls-13" d="M192.82,42.72c-.58-.5-2.32.69-2.71,1s-1.64,1.51-1.11,1.79a3.12,3.12,0,0,0,2.42-.92C191.71,44.24,193.3,43.09,192.82,42.72Z"/></g><path class="cls-5" d="M189.27,45.77a.9.9,0,0,1-.4-.09.46.46,0,0,1-.25-.37c-.07-.68,1.32-1.78,1.34-1.79.85-.61,2.36-1.53,3-1a.43.43,0,0,1,.18.34c0,.42-.54.92-1.21,1.51-.15.14-.28.25-.34.32A3.86,3.86,0,0,1,189.27,45.77Zm3.15-2.94a5.06,5.06,0,0,0-2.18,1c-.67.52-1.23,1.24-1.15,1.38a3.06,3.06,0,0,0,2.12-.85,3.33,3.33,0,0,1,.39-.36c.28-.23,1.09-.95,1.05-1.16h0A.37.37,0,0,0,192.42,42.83Z"/><g id="Shape_13_copy_68" data-name="Shape 13 copy 68"><path class="cls-13" d="M197.6,40.25c-.58-.51-1.74.27-2.07.55-.54.41-1.65,1.51-1.12,1.79a3.11,3.11,0,0,0,2.42-.92C197.07,41.39,198.09,40.66,197.6,40.25Z"/></g><path class="cls-5" d="M194.68,42.87a.8.8,0,0,1-.4-.08.48.48,0,0,1-.25-.38c-.07-.69,1.33-1.78,1.34-1.79s1.57-1.26,2.42-.54a.57.57,0,0,1,.21.42c0,.41-.44.83-.77,1.13l-.2.19A3.75,3.75,0,0,1,194.68,42.87Zm2.42-2.56a2.88,2.88,0,0,0-1.45.66c-.68.53-1.24,1.25-1.16,1.41a3.06,3.06,0,0,0,2.12-.85l.24-.23c.21-.2.61-.58.61-.79a.11.11,0,0,0-.05-.09h0a.46.46,0,0,0-.29-.11Z"/><g id="Shape_13_copy_11" data-name="Shape 13 copy 11"><path class="cls-13" d="M199.3,39.88c-.58-.28-1.21.6-1.41.92s-1,1.65-.48,1.79,1.4-1.06,1.6-1.33S199.78,40.11,199.3,39.88Z"/></g><path class="cls-5" d="M197.44,42.82h-.1a.43.43,0,0,1-.31-.3c-.17-.53.49-1.65.68-1.86s.87-1.37,1.69-1h0a.51.51,0,0,1,.3.34c.09.32-.08.78-.48,1.38C199.19,41.4,198.07,42.82,197.44,42.82Zm1.62-2.75c-.32,0-.74.46-1,.85a3.14,3.14,0,0,0-.62,1.44,5.3,5.3,0,0,0,1.32-1.22c.37-.53.48-.86.43-1s0,0,0-.06a.21.21,0,0,0-.12,0Z"/><g id="Shape_13_copy_12" data-name="Shape 13 copy 12"><path class="cls-13" d="M194.12,44.66c-.58-.37-1.3.45-1.54.73s-1.16,1.52-.73,1.7,1.55-.87,1.79-1.1S194.56,44.93,194.12,44.66Z"/></g><path class="cls-5" d="M191.9,47.32a.4.4,0,0,1-.15,0,.43.43,0,0,1-.25-.31c-.11-.56.72-1.59.9-1.76s1.09-1.25,1.86-.77h0a.54.54,0,0,1,.24.35c.07.38-.29.84-.56,1.17l-.1.14S192.55,47.32,191.9,47.32Zm1.9-2.54c-.26,0-.6.25-1,.74a3.27,3.27,0,0,0-.79,1.34,5.79,5.79,0,0,0,1.5-1l.08-.11a2.34,2.34,0,0,0,.49-.82.1.1,0,0,0,0-.05h0a.45.45,0,0,0-.2,0Z"/><g id="Shape_13_copy_13" data-name="Shape 13 copy 13"><path class="cls-13" d="M195,43.18c-.58-.37-1.3.46-1.55.74s-1.16,1.56-.72,1.74,1.55-.87,1.79-1.15S195.48,43.46,195,43.18Z"/></g><path class="cls-5" d="M192.83,45.9a.3.3,0,0,1-.16,0,.43.43,0,0,1-.25-.32c-.11-.54.69-1.6.91-1.8s1.09-1.25,1.85-.76a.51.51,0,0,1,.24.35c.07.38-.3.84-.56,1.17l-.11.13S193.5,45.9,192.83,45.9Zm1.89-2.58c-.26,0-.61.26-1,.75a3.24,3.24,0,0,0-.79,1.38,5.38,5.38,0,0,0,1.46-1.08l.1-.13a2.17,2.17,0,0,0,.49-.82.08.08,0,0,0,0,0h0A.28.28,0,0,0,194.72,43.32Z"/><g id="Shape_13_copy_2" data-name="Shape 13 copy 2"><path class="cls-13" d="M193.3,48.93c-.82-.78-1.4-.09-1.4-.09s-.82,1.14-1.84,2.84,2.66-1.47,2.66-1.47S193.64,49.43,193.3,48.93Z"/></g><path class="cls-5" d="M190,52.43a.31.31,0,0,1-.19-.06c-.26-.2,0-.59.09-.8,1-1.69,1.84-2.85,1.85-2.86a1.12,1.12,0,0,1,.77-.38,1.33,1.33,0,0,1,1,.46l0,0c.44.65-.51,1.49-.62,1.59C190.9,52.12,190.22,52.43,190,52.43ZM192.09,49s-.82,1.15-1.82,2.82l0,.05A20.34,20.34,0,0,0,192.56,50c.24-.2.69-.71.55-1a.9.9,0,0,0-.62-.28.61.61,0,0,0-.4.19Z"/><path class="cls-13" d="M194.7,48.74c-.58-.64-1.06-.13-1.06-.13a24.43,24.43,0,0,0-1.5,2.25c-.82,1.37,2.08-1.11,2.08-1.11S195,49.11,194.7,48.74Z"/><path class="cls-5" d="M192,51.51a.22.22,0,0,1-.17-.07c-.25-.18-.05-.51.06-.69a21.77,21.77,0,0,1,1.52-2.3.88.88,0,0,1,.65-.29,1.12,1.12,0,0,1,.79.41v0c.33.5-.38,1.17-.52,1.3C192.84,51.25,192.29,51.51,192,51.51Zm1.78-2.76s-.63.82-1.4,2.09a18.28,18.28,0,0,0,1.64-1.26c.25-.23.48-.58.45-.71a.61.61,0,0,0-.41-.23h0a.43.43,0,0,0-.28.11Z"/><g id="Shape_13_copy_7" data-name="Shape 13 copy 7"><path class="cls-13" d="M197.22,46.17c-.82-.69-1.21.09-1.21.09a10.92,10.92,0,0,0-1.21,3c-.48,1.88,1.84-.87,2.18-1.7S197.51,46.54,197.22,46.17Z"/></g><path class="cls-5" d="M194.86,50.12a.14.14,0,0,1-.09,0c-.41-.12-.26-.69-.21-.92a11.06,11.06,0,0,1,1.24-3.05,1,1,0,0,1,.62-.46,1.19,1.19,0,0,1,1,.33l0,0c.35.46.18.8-.15,1.48l-.07.14C197,48.14,195.56,50.12,194.86,50.12Zm1.72-4h-.06a.44.44,0,0,0-.29.24,10.65,10.65,0,0,0-1.2,2.93,1.91,1.91,0,0,0-.06.33,7.22,7.22,0,0,0,1.78-2.16l.08-.15c.32-.67.36-.78.21-1A.87.87,0,0,0,196.58,46.12Z"/><g id="Shape_13_copy_5" data-name="Shape 13 copy 5"><path class="cls-13" d="M194.83,47.55c-.82-.78-1.4-.09-1.4-.09s-.82,1.15-1.84,2.85,2.66-1.47,2.66-1.47S195.19,48,194.83,47.55Z"/></g><path class="cls-5" d="M191.49,51.05a.25.25,0,0,1-.18-.06c-.26-.2,0-.58.09-.79,1-1.7,1.84-2.86,1.84-2.87A1.14,1.14,0,0,1,194,47a1.34,1.34,0,0,1,1,.46l0,0c.44.6-.49,1.48-.62,1.58C192.45,50.74,191.77,51.05,191.49,51.05Zm2.15-3.45s-.83,1.15-1.82,2.82l0,0a20.4,20.4,0,0,0,2.31-1.8c.31-.28.68-.77.56-1a.87.87,0,0,0-.62-.29A.58.58,0,0,0,193.64,47.6Z"/><g id="Shape_13_copy_3" data-name="Shape 13 copy 3"><path class="cls-13" d="M199.1,45.21c-.92-.6-1.4,1.15-1.4,1.15S196.64,48.74,197,49s1.65-1.74,1.65-1.74S199.49,45.62,199.1,45.21Z"/></g><path class="cls-5" d="M197.09,49.22a.37.37,0,0,1-.21-.06c-.12-.07-.55-.32.6-2.89,0-.09.33-1.14,1-1.38a.82.82,0,0,1,.77.12l.05,0c.46.49-.19,1.86-.4,2.29-.36.55-1.23,1.8-1.72,1.89Zm1.64-3.91h-.1c-.36.13-.63.84-.7,1.09a8.91,8.91,0,0,0-.75,2.29,8.5,8.5,0,0,0,1.28-1.59,3.12,3.12,0,0,0,.48-1.73.39.39,0,0,0-.21-.06Z"/><g id="Shape_13_copy_4" data-name="Shape 13 copy 4"><path class="cls-13" d="M200.55,43.09c-1-.59-1.45,1.15-1.45,1.15s-1.06,2.34-.67,2.62,1.64-1.75,1.64-1.75S201,43.51,200.55,43.09Z"/></g><path class="cls-5" d="M198.49,47.11a.36.36,0,0,1-.2-.06c-.37-.26-.16-1.23.59-2.9a2.21,2.21,0,0,1,1-1.38.93.93,0,0,1,.81.11l0,0c.53.5-.2,1.88-.44,2.3S199,47,198.55,47.09Zm1.66-3.93H200c-.37.13-.64.84-.71,1.08a8.52,8.52,0,0,0-.76,2.3A7.87,7.87,0,0,0,199.86,45c.38-.66.68-1.53.53-1.72A.5.5,0,0,0,200.15,43.18Z"/><g id="Shape_13_copy_10" data-name="Shape 13 copy 10"><path class="cls-13" d="M196.44,42.13c-.53-.32-1.83,1.06-1.83,1.06s-1.16,1.51-.73,1.7,1.74-1.15,1.74-1.15S196.93,42.4,196.44,42.13Z"/></g><path class="cls-5" d="M193.92,45.12a.34.34,0,0,1-.14,0,.38.38,0,0,1-.22-.26c-.13-.46.55-1.4.85-1.79s1.51-1.51,2.16-1.11a.4.4,0,0,1,.2.32c.08.51-.74,1.38-1,1.64C194.91,44.71,194.28,45.12,193.92,45.12Zm2.32-2.81a3.41,3.41,0,0,0-1.45,1,4.58,4.58,0,0,0-.76,1.32,7.61,7.61,0,0,0,1.43-1.09,3,3,0,0,0,.85-1.25Z"/><g id="Shape_13_copy_67" data-name="Shape 13 copy 67"><path class="cls-13" d="M198.18,38.82c-.53-.32-1.54.74-1.54.74s-1.16,1.51-.73,1.7,1.74-1.15,1.74-1.15S198.62,39.1,198.18,38.82Z"/></g><path class="cls-5" d="M196,41.49h-.13a.38.38,0,0,1-.23-.25c-.13-.46.55-1.38.85-1.79.21-.22,1.21-1.2,1.87-.8h0a.46.46,0,0,1,.22.34c.06.46-.58,1.16-.7,1.29C196.94,41.09,196.31,41.49,196,41.49Zm2-2.5a2.32,2.32,0,0,0-1.13.72,4.49,4.49,0,0,0-.76,1.32,8.09,8.09,0,0,0,1.45-1.09c.37-.38.61-.82.57-.92A.31.31,0,0,0,198,39Z"/><g id="Shape_13_copy_8" data-name="Shape 13 copy 8"><path class="cls-13" d="M202.87,40c-1-.37-1.06,1.28-1.06,1.28s-.53,2.34-.1,2.53,1.12-1.89,1.12-1.89S203.31,40.29,202.87,40Z"/></g><path class="cls-5" d="M201.75,44a.28.28,0,0,1-.13,0c-.41-.17-.43-1.11-.05-2.78,0-.08.08-1.07.64-1.41a.83.83,0,0,1,.75,0l.06,0c.53.39.16,1.76,0,2.17-.27.7-.77,1.86-1.17,2A.32.32,0,0,1,201.75,44Zm.86-3.87a.28.28,0,0,0-.15,0c-.27.16-.39.8-.41,1.08a8.17,8.17,0,0,0-.25,2.2,8.83,8.83,0,0,0,.8-1.67,2.88,2.88,0,0,0,.14-1.65Z"/><g id="Shape_13_copy_17" data-name="Shape 13 copy 17"><path class="cls-13" d="M204.5,39c-1-.37-1.06,1.28-1.06,1.28s-.53,2.34-.1,2.53,1.11-1.89,1.11-1.89S205,39.33,204.5,39Z"/></g><path class="cls-5" d="M203.39,43.06a.31.31,0,0,1-.13,0c-.41-.18-.42-1.11,0-2.78,0-.08.07-1.08.63-1.41a.83.83,0,0,1,.75-.05l.07,0c.52.38.16,1.76,0,2.17-.26.69-.76,1.84-1.16,2A.28.28,0,0,1,203.39,43.06Zm.86-3.88a.33.33,0,0,0-.14,0c-.26.16-.39.75-.41,1.09a7.68,7.68,0,0,0-.26,2.19,8,8,0,0,0,.8-1.64,3,3,0,0,0,.15-1.65A.35.35,0,0,0,204.25,39.18Z"/><path class="cls-13" d="M200.7,42.72c.14-.27.58-.78.14-1.06s-.77.33-1.45,1a7.59,7.59,0,0,0-1.5,2.11c-.62,1.29,1,.19,1.7-.55A5.87,5.87,0,0,0,200.7,42.72Z"/><path class="cls-5" d="M197.89,45.56a.31.31,0,0,1-.21-.05c-.33-.2-.1-.68,0-.86A6.79,6.79,0,0,1,199,42.72l.22-.24.42-.42c.44-.46.83-.86,1.33-.6s.21.92,0,1.22l-.08.14a6.09,6.09,0,0,1-1.15,1.52C199.57,44.56,198.5,45.56,197.89,45.56Zm2.75-3.72c-.13,0-.3.17-.66.53a5.56,5.56,0,0,1-.42.43l-.21.23a6.77,6.77,0,0,0-1.24,1.84.85.85,0,0,0-.09.24,4.9,4.9,0,0,0,1.38-1,5.46,5.46,0,0,0,1.08-1.41h0l.1-.17c.23-.38.26-.51.12-.59s0,0-.06,0Z"/><g id="Shape_14_copy_2" data-name="Shape 14 copy 2"><path class="cls-13" d="M203.21,39.6c.1-.32.39-1-.09-1.19s-.68.5-1.26,1.28a8.09,8.09,0,0,0-1,2.58c-.33,1.47,1.07,0,1.55-.92A5.2,5.2,0,0,0,203.21,39.6Z"/></g><path class="cls-5" d="M200.94,43.13h-.12c-.39-.13-.26-.68-.21-.89a7.12,7.12,0,0,1,.86-2.3l.17-.32c.18-.25.31-.46.43-.64.31-.5.6-1,1.13-.76s.4,1,.28,1.35l0,.11a4.88,4.88,0,0,1-.75,1.66l-.09.14C202.35,42,201.52,43.13,200.94,43.13Zm2-4.54c-.11,0-.22.15-.49.58-.12.19-.25.41-.42.64l-.17.3a6.89,6.89,0,0,0-.81,2.19,1.64,1.64,0,0,0-.05.32,4.2,4.2,0,0,0,1.14-1.38l.1-.16a4.69,4.69,0,0,0,.71-1.54l0-.15c.14-.43.19-.69,0-.79Z"/><g id="Shape_14_copy_3" data-name="Shape 14 copy 3"><path class="cls-13" d="M204.57,38.13c0-.32.19-1-.29-1.15s-.58.6-1,1.47a8.43,8.43,0,0,0-.58,2.71c-.05,1.52,1-.14,1.35-1.15A4.48,4.48,0,0,0,204.57,38.13Z"/></g><path class="cls-5" d="M202.87,42h-.06c-.4-.06-.38-.62-.37-.84a7.59,7.59,0,0,1,.45-2.35c.05-.13.09-.26.14-.42s.22-.49.3-.68c.23-.57.45-1.1,1-.92s.52.78.49,1.15a.81.81,0,0,0,0,.22,4.89,4.89,0,0,1-.55,2C204.16,40.42,203.49,42,202.87,42Zm1.31-4.79c-.11,0-.2.18-.4.67-.08.2-.18.45-.3.68s-.08.26-.13.4a7.11,7.11,0,0,0-.43,2.23,1.61,1.61,0,0,0,0,.31A4.43,4.43,0,0,0,203.8,40a4.28,4.28,0,0,0,.52-1.84v-.25c.05-.4,0-.63-.13-.68Z"/><g id="Shape_14_copy" data-name="Shape 14 copy"><path class="cls-13" d="M197,43.69a20.41,20.41,0,0,0-2.61,4.09c-.82,1.74.87.27,1.89-.69C199.73,43.74,198.38,43.23,197,43.69Z"/></g><path class="cls-5" d="M194.31,48.83a.29.29,0,0,1-.2-.07c-.27-.17-.16-.55.08-1.07a20.74,20.74,0,0,1,2.64-4.14l0-.06h.07c.78-.26,1.39-.19,1.65.18.42.62-.28,1.8-2.12,3.6C195.09,48.57,194.56,48.83,194.31,48.83Zm2.86-4.95a21,21,0,0,0-2.54,4,3.07,3.07,0,0,0-.17.42,8.82,8.82,0,0,0,1.66-1.38c2.42-2.34,2.1-3,2.06-3S197.66,43.74,197.17,43.88Z"/><g id="Shape_13_copy_6" data-name="Shape 13 copy 6"><path class="cls-13" d="M198.47,42.36c-1.35-.6-2,1.15-2,1.15s-1.54,2.39-1,2.62,2.32-1.75,2.32-1.75S199.1,42.77,198.47,42.36Z"/></g><path class="cls-5" d="M195.55,46.37a.37.37,0,0,1-.18,0,.41.41,0,0,1-.24-.26c-.2-.6.8-2.2,1.11-2.68a2.43,2.43,0,0,1,1.18-1.29,1.51,1.51,0,0,1,1.16,0h0a.62.62,0,0,1,.27.42c.11.68-.79,1.81-.89,1.93C197.17,45.39,196.14,46.37,195.55,46.37Zm2.37-3.91a1.14,1.14,0,0,0-.32.07,2,2,0,0,0-.93,1.06,5.52,5.52,0,0,0-1.07,2.35,7.41,7.41,0,0,0,2-1.71c.33-.41.85-1.21.79-1.57a.19.19,0,0,0-.05-.1A1.23,1.23,0,0,0,197.92,42.46Z"/><g id="Shape_13_copy_30" data-name="Shape 13 copy 30"><path class="cls-13" d="M194.56,40.29c-.68-.41-1.94,1.06-2.32,1.33-.53.42-1.65,1.47-1.07,1.66s1.94-.55,2.57-1S195.14,40.61,194.56,40.29Z"/></g><path class="cls-5" d="M191.34,43.53a.63.63,0,0,1-.27,0,.41.41,0,0,1-.29-.33c-.12-.59,1.16-1.6,1.3-1.71s.24-.21.36-.32c.62-.57,1.55-1.45,2.24-1a.65.65,0,0,1,.34.58,2.51,2.51,0,0,1-1.15,1.83A7,7,0,0,1,191.34,43.53Zm2.94-3.08c-.41,0-1.13.67-1.51,1a4.4,4.4,0,0,1-.39.35c-.64.5-1.15,1.11-1.13,1.27a5.61,5.61,0,0,0,2.35-1,2.11,2.11,0,0,0,.93-1.43.2.2,0,0,0-.09-.2h0A.32.32,0,0,0,194.28,40.45Z"/><g id="Shape_13_copy_31" data-name="Shape 13 copy 31"><path class="cls-13" d="M194.9,39.56c-.49-.42-1.45.18-1.74.36-.44.33-1.41,1.24-1,1.47a2.72,2.72,0,0,0,2.08-.69C194.41,40.48,195.28,39.88,194.9,39.56Z"/></g><path class="cls-5" d="M192.42,41.67a.74.74,0,0,1-.39-.08.42.42,0,0,1-.2-.33c0-.58,1.19-1.51,1.2-1.52.94-.6,1.63-.71,2.05-.35a.44.44,0,0,1,.18.35c0,.34-.35.67-.64.92a1.54,1.54,0,0,0-.19.17A3.37,3.37,0,0,1,192.42,41.67Zm2.07-2a2.55,2.55,0,0,0-1.17.46c-.49.35-1,.95-1,1.12a3.11,3.11,0,0,0,1.75-.68s.12-.12.21-.22.49-.46.49-.58h0a.4.4,0,0,0-.31-.1Z"/><g id="Shape_13_copy_9" data-name="Shape 13 copy 9"><path class="cls-13" d="M194.08,39.79a1.14,1.14,0,0,1,.58-1.38s1.25-1.06,1.4-.64-.92,1.56-.92,1.56S194.32,40.15,194.08,39.79Z"/></g><path class="cls-5" d="M194.25,40.11h0a.42.42,0,0,1-.34-.2v0a1.34,1.34,0,0,1,.68-1.65c.36-.31,1.1-.86,1.49-.76a.34.34,0,0,1,.26.24c.11.37-.46,1.17-1,1.77C195.16,39.63,194.66,40.11,194.25,40.11Zm1.55-2.18a4.61,4.61,0,0,0-1,.66,1,1,0,0,0-.52,1.08,2.32,2.32,0,0,0,.67-.49A6.73,6.73,0,0,0,195.8,37.93Z"/><g id="Shape_13_copy_15" data-name="Shape 13 copy 15"><path class="cls-13" d="M199.73,41c.44.51-.29,1.29-.58,1.56s-1.45,1.33-1.69.92.68-1.56,1-1.84S199.39,40.57,199.73,41Z"/></g><path class="cls-5" d="M197.63,43.79h-.06a.43.43,0,0,1-.32-.21c-.33-.55.89-2,1-2.11.49-.56.91-.84,1.24-.83a.54.54,0,0,1,.43.2c.56.65-.23,1.52-.6,1.87C198.79,43.2,198.09,43.79,197.63,43.79Zm1.85-2.7c-.13,0-.43.18-.87.68a4.38,4.38,0,0,0-.94,1.56,4.12,4.12,0,0,0,1.31-.95c.42-.39.81-1,.56-1.25h0A.07.07,0,0,0,199.48,41.09Z"/><g id="Shape_13_copy_63" data-name="Shape 13 copy 63"><path class="cls-13" d="M192.53,39.46c-.39-.59.29-1.47.29-1.47s1.26-1.24,1.45-.82-.34,1.1-.34,1.1S193.38,39.6,192.53,39.46Z"/></g><path class="cls-5" d="M192.66,39.7h-.28l-.06-.09c-.48-.71.27-1.68.3-1.72.43-.42,1.16-1.08,1.58-1a.38.38,0,0,1,.29.21c.18.4-.23,1.11-.35,1.32C194.13,38.41,193.61,39.7,192.66,39.7Zm1.4-2.37a4.33,4.33,0,0,0-1.07.83,1.41,1.41,0,0,0-.31,1.08c.6,0,1-1,1-1.05A2.25,2.25,0,0,0,194.06,37.33Z"/><g id="Shape_13_copy_35" data-name="Shape 13 copy 35"><path class="cls-13" d="M197.41,40.06a1.15,1.15,0,0,1,.44-1.42s1.11-1.2,1.3-.83-.72,1.65-.72,1.65S197.65,40.42,197.41,40.06Z"/></g><path class="cls-5" d="M197.56,40.37h0a.4.4,0,0,1-.34-.18h0a1.34,1.34,0,0,1,.49-1.7c.36-.39,1-1,1.4-1a.34.34,0,0,1,.28.19c.14.26-.11.88-.73,1.87C198.43,39.84,198,40.37,197.56,40.37ZM198.9,38a4.91,4.91,0,0,0-.88.76l0,0a.92.92,0,0,0-.39,1.08,2.64,2.64,0,0,0,.62-.58A7.32,7.32,0,0,0,198.9,38Z"/><g id="Shape_13_copy_36" data-name="Shape 13 copy 36"><path class="cls-13" d="M196.28,40.06a.94.94,0,0,1,.25-1.28s.87-1.15,1.11-.83-.49,1.51-.49,1.51S196.59,40.34,196.28,40.06Z"/></g><path class="cls-5" d="M196.43,40.35a.52.52,0,0,1-.31-.12l0,0a1.16,1.16,0,0,1,.27-1.57c.28-.37.79-1,1.18-1h0a.38.38,0,0,1,.31.16c.06.09.22.34-.48,1.74-.13.19-.52.74-.91.78Zm1-2.15a4.15,4.15,0,0,0-.68.71l0,0a.73.73,0,0,0-.23.92,1.83,1.83,0,0,0,.48-.52,6.36,6.36,0,0,0,.48-1.15Z"/><g id="Shape_13_copy_37" data-name="Shape 13 copy 37"><path class="cls-13" d="M206.4,38.45a.78.78,0,0,1-.19-1.05s.34-1.1.58-.92.05,1.29.05,1.29S206.69,38.59,206.4,38.45Z"/></g><path class="cls-5" d="M206.47,38.7a.39.39,0,0,1-.18,0h0a1,1,0,0,1-.28-1.33c.2-.64.42-1,.65-1.06a.33.33,0,0,1,.29,0c.08.06.3.22.14,1.49,0,.23-.16.73-.44.87A.3.3,0,0,1,206.47,38.7Zm.17-1.78c-.07.18-.14.36-.2.54l0,0a.57.57,0,0,0,0,.68,2.44,2.44,0,0,0,.14-.46A5.49,5.49,0,0,0,206.64,36.92Z"/><g id="Shape_13_copy_39" data-name="Shape 13 copy 39"><path class="cls-13" d="M206.79,36.2a.85.85,0,0,1-.39-.92s0-1,.29-.91.34,1.14.34,1.14S207,36.29,206.79,36.2Z"/></g><path class="cls-5" d="M206.83,36.44a.29.29,0,0,1-.13,0h0a1.06,1.06,0,0,1-.5-1.16c0-.58.13-.92.32-1.06a.3.3,0,0,1,.29,0c.11.05.33.15.48,1.33,0,.35,0,.77-.25.92A.28.28,0,0,1,206.83,36.44Zm-.15-1.5c0,.11,0,.23,0,.35a.8.8,0,0,0,.12.6,2.43,2.43,0,0,0,0-.38C206.76,35.32,206.72,35.11,206.68,34.94Z"/><g id="Shape_13_copy_32" data-name="Shape 13 copy 32"><path class="cls-13" d="M198.91,40.52a1.71,1.71,0,0,1,.43-2s1.26-1.65,1.5-1.1-.77,2.39-.77,2.39S199.25,41.07,198.91,40.52Z"/></g><path class="cls-5" d="M199.13,40.88h0a.48.48,0,0,1-.42-.25h0a1.92,1.92,0,0,1,.48-2.27c.39-.51,1.11-1.33,1.57-1.29a.41.41,0,0,1,.33.25c.22.46-.48,2-.77,2.58C200.15,40.14,199.61,40.88,199.13,40.88Zm0-.46h0c.11,0,.48-.37.72-.76a7.21,7.21,0,0,0,.79-2.13,4.64,4.64,0,0,0-1.1,1.11l0,0a1.48,1.48,0,0,0-.39,1.75Z"/><g id="Shape_13_copy_38" data-name="Shape 13 copy 38"><path class="cls-13" d="M200.41,41.44a1.73,1.73,0,0,1,.1-2.07s1-1.83,1.25-1.33-.34,2.48-.34,2.48S200.8,41.9,200.41,41.44Z"/></g><path class="cls-5" d="M200.59,41.77a.51.51,0,0,1-.37-.18h0a2,2,0,0,1,.11-2.33c.34-.67.87-1.5,1.31-1.51a.4.4,0,0,1,.35.2c.26.4-.14,2-.32,2.65-.16.36-.56,1.12-1,1.18Zm0-.46h0a2.62,2.62,0,0,0,.61-.89,8.18,8.18,0,0,0,.37-2.2,5.52,5.52,0,0,0-.85,1.25,1.55,1.55,0,0,0-.12,1.84Z"/><g id="Shape_13_copy_34" data-name="Shape 13 copy 34"><path class="cls-13" d="M198.22,38.27a1.69,1.69,0,0,1,.43-2s1.26-1.65,1.5-1.1-.77,2.39-.77,2.39S198.57,38.78,198.22,38.27Z"/></g><path class="cls-5" d="M198.44,38.62a.47.47,0,0,1-.41-.23v0a1.92,1.92,0,0,1,.48-2.27c.39-.52,1.11-1.33,1.57-1.29a.41.41,0,0,1,.34.25c.21.46-.49,1.95-.78,2.57-.16.25-.69,1-1.17,1Zm0-.46h0c.12,0,.48-.36.74-.74a7.39,7.39,0,0,0,.76-2.14,4.94,4.94,0,0,0-1.09,1.1l0,0a1.48,1.48,0,0,0-.38,1.74Z"/><path class="cls-13" d="M203.7,32.57c-.1.65-.49-.13-.63-.68a1.52,1.52,0,0,1,.29-1.15A5.25,5.25,0,0,1,203.7,32.57Z"/><path class="cls-5" d="M203.57,33.05c-.42,0-.67-.85-.74-1.11a1.77,1.77,0,0,1,.33-1.33l.27-.37.15.42a5.22,5.22,0,0,1,.35,1.95h0c0,.28-.16.43-.35.46Zm-.26-1.65a1,1,0,0,0,0,.43,3.57,3.57,0,0,0,.16.46A4.49,4.49,0,0,0,203.31,31.4Z"/><path class="cls-13" d="M204.81,33.91c-.05-.46-.1-1.24-.1-1.24l-.43-.6v1.06c0,1,.14,1.74.43,1.74S204.86,34.37,204.81,33.91Z"/><path class="cls-5" d="M204.73,35.1c-.23,0-.7-.09-.7-2v-1.8l.92,1.26v.06s.05.78.09,1.23v.2c.06.46.12.92-.3,1Zm-.23-1.68a4.6,4.6,0,0,0,.09.84v-.13l0-.2A3.34,3.34,0,0,0,204.5,33.42Z"/><path class="cls-13" d="M200,34.09c-.14.64.15,1.7.29,1.56a3.32,3.32,0,0,0,.39-2.34C200.6,32.67,200.21,33.45,200,34.09Z"/><path class="cls-5" d="M200.37,36l-.22-.09c-.32-.16-.49-1.26-.37-1.83h0c.25-.81.52-1.22.81-1.19s.3.16.34.46a3.57,3.57,0,0,1-.43,2.51Zm-.12-1.8a2.54,2.54,0,0,0,.07,1.06,3.52,3.52,0,0,0,.17-1.67A4.54,4.54,0,0,0,200.25,34.15Z"/><path class="cls-13" d="M198.28,32.34c-.05.79.19,1.2.44.6a2.37,2.37,0,0,0,.19-1.15C198.62,31.66,198.38,32.07,198.28,32.34Z"/><path class="cls-5" d="M198.49,33.46h-.07c-.39-.09-.4-.74-.38-1.12v-.06a1.23,1.23,0,0,1,.55-.7.51.51,0,0,1,.42,0l.11.05v.13a2.58,2.58,0,0,1-.2,1.25C198.82,33.31,198.67,33.46,198.49,33.46Zm0-1.07a2.29,2.29,0,0,0,0,.37,2.44,2.44,0,0,0,.15-.66A.89.89,0,0,0,198.52,32.39Z"/><g id="Shape_32_copy_4" data-name="Shape 32 copy 4"><path class="cls-13" d="M198.62,31c.1.69.34,1.05.48.46a2.3,2.3,0,0,0,0-1C198.76,30.32,198.62,30.74,198.62,31Z"/></g><path class="cls-5" d="M198.92,32h0c-.09,0-.39,0-.53-1v0a.9.9,0,0,1,.32-.71.49.49,0,0,1,.44-.06l.12,0,0,.12a2.41,2.41,0,0,1,0,1.1C199.31,31.6,199.22,32,198.92,32Zm-.06-1a.34.34,0,0,0,0,.18,1.71,1.71,0,0,0,0-.32A.39.39,0,0,0,198.86,31Z"/><g id="Shape_32_copy_5" data-name="Shape 32 copy 5"><path class="cls-13" d="M197.73,30.87c.15.65.49.92.54.37a1.48,1.48,0,0,0-.15-.92C197.85,30.28,197.73,30.69,197.73,30.87Z"/></g><path class="cls-5" d="M198.13,31.77c-.4,0-.57-.65-.62-.84v-.06a1,1,0,0,1,.28-.67.5.5,0,0,1,.39-.1h.12l.06.1a1.77,1.77,0,0,1,.16,1.06c0,.39-.21.46-.36.49Zm-.14-.92a.64.64,0,0,0,.06.22,1.14,1.14,0,0,0,0-.37Z"/><g id="Shape_32_copy_3" data-name="Shape 32 copy 3"><path class="cls-13" d="M197,31.38c0,.55.34.83.54.37a1.67,1.67,0,0,0,0-.83.5.5,0,0,0-.57.42S197,31.37,197,31.38Z"/></g><path class="cls-5" d="M197.33,32.21h-.05c-.27,0-.46-.34-.49-.81h0a.73.73,0,0,1,.26-.52.78.78,0,0,1,.59-.16h.18l0,.17a1.8,1.8,0,0,1-.06.92C197.65,32.16,197.46,32.21,197.33,32.21Zm-.08-.83a1.4,1.4,0,0,0,.06.28h0a1.1,1.1,0,0,0,.07-.48l0,0A.27.27,0,0,0,197.25,31.38Z"/><g id="Shape_32_copy_6" data-name="Shape 32 copy 6"><path class="cls-13" d="M194.75,30.32c.05.41.34.6.53.27a.65.65,0,0,0,.05-.59A.48.48,0,0,0,194.75,30.32Z"/></g><path class="cls-5" d="M195.06,31H195c-.24,0-.42-.29-.48-.63v-.08a.72.72,0,0,1,.86-.5h.12l.06.11a.9.9,0,0,1-.05.8A.53.53,0,0,1,195.06,31Zm-.06-.65a.49.49,0,0,0,.06.17h0a.59.59,0,0,0,.07-.26A.21.21,0,0,0,195,30.34Z"/><g id="Shape_32_copy_7" data-name="Shape 32 copy 7"><path class="cls-13" d="M195.38,31.2c.05.41.34.59.53.27a.67.67,0,0,0,.05-.6A.5.5,0,0,0,195.38,31.2Z"/></g><path class="cls-5" d="M195.68,31.87h-.08a.71.71,0,0,1-.48-.64v-.07a.71.71,0,0,1,.86-.5h.12l.05.1a.89.89,0,0,1,0,.81A.57.57,0,0,1,195.68,31.87Zm-.05-.63a.75.75,0,0,0,.05.16h0a.45.45,0,0,0,.07-.25A.16.16,0,0,0,195.63,31.24Z"/><g id="Shape_32_copy_8" data-name="Shape 32 copy 8"><path class="cls-13" d="M194.35,31.2c.05.41.34.59.53.27a.67.67,0,0,0,.05-.6A.5.5,0,0,0,194.35,31.2Z"/></g><path class="cls-5" d="M194.67,31.87h-.08a.71.71,0,0,1-.49-.64v-.07a.63.63,0,0,1,.29-.39.79.79,0,0,1,.58-.11h.12l0,.1a.87.87,0,0,1,0,.8A.53.53,0,0,1,194.67,31.87Zm-.06-.63a.44.44,0,0,0,.06.16h0a.52.52,0,0,0,.07-.25l-.08,0S194.63,31.22,194.61,31.24Z"/><g id="Shape_32_copy_2" data-name="Shape 32 copy 2"><path class="cls-13" d="M195.43,32.53c-.34.73-.24,1.19.24.73a1.67,1.67,0,0,0,.53-1C196,31.93,195.57,32.3,195.43,32.53Z"/></g><path class="cls-5" d="M195.36,33.68a.36.36,0,0,1-.2-.06c-.34-.21-.11-.83.05-1.18h0a1,1,0,0,1,.73-.52.56.56,0,0,1,.45.22l.05.08v.08a1.93,1.93,0,0,1-.6,1.15A.78.78,0,0,1,195.36,33.68Zm.28-1a2.8,2.8,0,0,0-.16.46h0a1.5,1.5,0,0,0,.43-.71.57.57,0,0,0-.27.24Z"/><g id="Shape_32_copy" data-name="Shape 32 copy"><path class="cls-13" d="M203.12,33.45c.24.5.58.64.48.23a1.48,1.48,0,0,0-.34-.74C203.05,32.94,203.05,33.31,203.12,33.45Z"/></g><path class="cls-5" d="M203.54,34.15c-.26,0-.49-.3-.65-.61h0a.78.78,0,0,1,.08-.65.32.32,0,0,1,.3-.15h.12l.07.08a1.76,1.76,0,0,1,.39.84c.08.37-.12.46-.2.5Z"/><path class="cls-13" d="M200.94,33.45a1.73,1.73,0,0,0,.29.78,1.52,1.52,0,0,0,.29-.6c.1-.41-.39-.87-.39-.87A3.9,3.9,0,0,0,200.94,33.45Z"/><path class="cls-5" d="M201.22,34.63l-.19-.27a1.83,1.83,0,0,1-.33-.92v0l.24,0-.24,0a3.49,3.49,0,0,1,.2-.72l.14-.33.26.25a1.32,1.32,0,0,1,.45,1.08,1.64,1.64,0,0,1-.33.69Zm0-1.16a1.31,1.31,0,0,0,.06.27.75.75,0,0,0,0-.16.46.46,0,0,0-.06-.3A1.29,1.29,0,0,1,201.18,33.47Z"/><g id="Shape_26_copy" data-name="Shape 26 copy"><path class="cls-13" d="M198.22,37.72a1.44,1.44,0,0,0-.1,1.06,1.32,1.32,0,0,0,.63-.69,7.27,7.27,0,0,0,.19-1.38S198.52,37.35,198.22,37.72Z"/></g><path class="cls-5" d="M198,39.12l-.08-.28a1.59,1.59,0,0,1,.14-1.26c.28-.35.71-1,.71-1l.49-.72-.05.86a8.93,8.93,0,0,1-.21,1.44,1.52,1.52,0,0,1-.74.82Zm.64-1.52-.19.26h0a.86.86,0,0,0-.12.5.69.69,0,0,0,.22-.32A3.82,3.82,0,0,0,198.62,37.6Z"/><path class="cls-13" d="M203.7,30.6a4.28,4.28,0,0,0-.2,2.07c.34,1.19.63.73.63.36V31.75C204,30.78,203.7,30.6,203.7,30.6Z"/><path class="cls-5" d="M203.93,33.67c-.35,0-.53-.46-.66-.94a4.49,4.49,0,0,1,.2-2.21l.11-.27.25.16c.09.06.39.32.54,1.31V33c0,.28-.13.6-.4.63Zm-.16-2.44a4,4,0,0,0,0,1.38,3.52,3.52,0,0,0,.15.42V31.75a4.21,4.21,0,0,0-.12-.51Z"/><path class="cls-13" d="M204.71,31.38c-.19-.92-.87-.64-.92-.41.39.64.92,1.6,1.11,1.47S204.9,32.3,204.71,31.38Z"/><path class="cls-5" d="M204.86,32.68h-.07c-.27-.06-.53-.46-1.06-1.34l-.19-.33v-.09a.61.61,0,0,1,.6-.41c.18,0,.63.08.79.82a4.5,4.5,0,0,0,.21.74c.07.18.14.37-.11.55A.27.27,0,0,1,204.86,32.68ZM204.08,31l.08.12c.1.18.25.43.39.66,0-.1-.05-.22-.08-.34h0c-.05-.27-.16-.44-.28-.46A.14.14,0,0,0,204.08,31Z"/><g id="Shape_35_copy" data-name="Shape 35 copy"><path class="cls-13" d="M203,30.32c-.05-1.2-.05-1.15-.29-.37s-.1,1.38,0,1.38S203,30.87,203,30.32Z"/></g><path class="cls-5" d="M202.73,31.6l-.1,0a.28.28,0,0,1-.15-.08c-.06-.06-.21-.22,0-1.55l0-.11c.16-.53.21-.69.45-.65s.25.11.29,1.14h0c0,.4-.11,1.06-.37,1.21Z"/><g id="Shape_35_copy_3" data-name="Shape 35 copy 3"><path class="cls-13" d="M203.36,29.17c0-1,0-.91-.24-.27a3.38,3.38,0,0,0,0,1.1A1.42,1.42,0,0,0,203.36,29.17Z"/></g><path class="cls-5" d="M203.12,30.23H203l-.08-.07c-.06-.07-.15-.15-.06-1.28l0-.14c.15-.41.22-.57.44-.53s.24.12.24,1C203.6,29.4,203.48,30.23,203.12,30.23Z"/><g id="Shape_35_copy_2" data-name="Shape 35 copy 2"><path class="cls-13" d="M204.08,29c-.09-1.84-.09-1.74-.34-.55a6.7,6.7,0,0,0,.1,2.16A2.89,2.89,0,0,0,204.08,29Z"/></g><path class="cls-5" d="M203.84,30.83h-.1l-.09-.08a6.11,6.11,0,0,1-.15-2.3l0-.16c.17-.81.19-.92.45-.92s.26,0,.34,1.64a3.31,3.31,0,0,1-.28,1.76l-.07.08Z"/><path class="cls-13" d="M201.52,30.51c-.05-1.34-.24-.55-.29.09s-.19.27-.19.27a5.81,5.81,0,0,0-.2-1.37,10.37,10.37,0,0,0,0,1.93c0,1.6.2,1.14.39,1.24C201.71,32.76,201.57,31.84,201.52,30.51Z"/><path class="cls-5" d="M201.29,32.9h-.17a.25.25,0,0,1-.27,0c-.15-.12-.22-.34-.25-1.38v-.11a11.3,11.3,0,0,1,0-1.84l.09-.65.37.54a1.26,1.26,0,0,1,.1.33.25.25,0,0,1,.26-.16c.3,0,.32.35.35,1a4.23,4.23,0,0,0,0,.64c0,.92.07,1.44-.21,1.67A.44.44,0,0,1,201.29,32.9Zm-.12-.45a.2.2,0,0,1,.11,0,4.65,4.65,0,0,0,0-1.29h0a.2.2,0,0,1-.15.06h-.08v.22a6.73,6.73,0,0,0,.07,1Z"/><g id="Shape_36_copy" data-name="Shape 36 copy"><path class="cls-13" d="M202.49,29c0-1.93-.15-.78-.15.13s-.09.37-.09.37-.05-1.7-.1-2a21.18,21.18,0,0,0,0,2.76c0,2.25.1,1.7.24,1.74C202.57,32.25,202.49,31,202.49,29Z"/></g><path class="cls-5" d="M202.27,32.28a.27.27,0,0,1-.12,0c-.18-.09-.2-.11-.24-2a18.43,18.43,0,0,1,0-2.78h.48a2.45,2.45,0,0,1,0,.27c.26,0,.29.24.31.46s0,.44,0,.83v1.47c0,1.45,0,1.67-.22,1.75a.25.25,0,0,1-.17,0Z"/><g id="Shape_15_copy" data-name="Shape 15 copy"><path class="cls-13" d="M201.09,36.29c-.05.64-.68,1.61-.73,1.42a3.52,3.52,0,0,1,.34-2.38C201,34.78,201.12,35.65,201.09,36.29Z"/></g><path class="cls-5" d="M200.2,38l-.08-.22a3.72,3.72,0,0,1,.36-2.54c.16-.3.34-.33.48-.29.45.11.4,1.16.38,1.37h0c0,.53-.56,1.63-.92,1.66Zm.62-2.36a3.71,3.71,0,0,0-.32,1.61,2.76,2.76,0,0,0,.34-1h0A2.83,2.83,0,0,0,200.82,35.63Z"/><path class="cls-13" d="M199.49,32.76a6.09,6.09,0,0,0,.1,1.28,1.58,1.58,0,0,0,.43-.68,7.78,7.78,0,0,0,0-2.26A10.69,10.69,0,0,0,199.49,32.76Z"/><path class="cls-5" d="M199.43,34.52l-.08-.46a5.47,5.47,0,0,1-.1-1.34h0a10.4,10.4,0,0,1,.54-1.72l.49.06a8.2,8.2,0,0,1,0,2.32,1.74,1.74,0,0,1-.49.81Zm.3-1.74a3.64,3.64,0,0,0,0,.66.56.56,0,0,0,0-.12,4.83,4.83,0,0,0,.08-1.08A2.62,2.62,0,0,0,199.73,32.78Z"/><g id="Shape_16_copy" data-name="Shape 16 copy"><path class="cls-13" d="M198.33,29.82a2.84,2.84,0,0,0,.1.87s.38-.27.43-.46a3.5,3.5,0,0,0,0-1.51A4.14,4.14,0,0,0,198.33,29.82Z"/></g><path class="cls-5" d="M198.28,31.08l-.09-.33a2.86,2.86,0,0,1-.1-1,4.18,4.18,0,0,1,.56-1.19l.33-.5.12.57a3.74,3.74,0,0,1,0,1.63,1.5,1.5,0,0,1-.52.57Zm.42-1.6a1.63,1.63,0,0,0-.13.37h0a1.27,1.27,0,0,0,0,.39.43.43,0,0,0,0-.07A2,2,0,0,0,198.7,29.48Z"/><g id="Shape_16_copy_2" data-name="Shape 16 copy 2"><path class="cls-13" d="M196.83,27.52a1.53,1.53,0,0,0-.05.6,1,1,0,0,0,.39-.23,2,2,0,0,0,.24-1A4.11,4.11,0,0,0,196.83,27.52Z"/></g><path class="cls-5" d="M196.57,28.43l0-.28a1.63,1.63,0,0,1,.07-.73h0a4.06,4.06,0,0,1,.64-.67l.41-.34v.51a2.3,2.3,0,0,1-.28,1.09,1.19,1.19,0,0,1-.52.33Z"/><path class="cls-13" d="M199.49,36a3.83,3.83,0,0,0-.1,1.93,2,2,0,0,0,.63-1.47C200.07,34.45,199.67,35.42,199.49,36Z"/><path class="cls-5" d="M199.26,38.4l-.1-.46a3.82,3.82,0,0,1,.1-2h0c.22-.63.37-.92.66-.88s.37.37.34,1.42a2.18,2.18,0,0,1-.69,1.61Zm.48-2.36a3.64,3.64,0,0,0-.17,1.27,1.7,1.7,0,0,0,.23-.88v-.55a.8.8,0,0,0-.08.16Z"/><path class="cls-13" d="M199.59,33.72a1.71,1.71,0,0,0-.2,1.84,1.66,1.66,0,0,0,.39-1.47S199.63,33.72,199.59,33.72Z"/><path class="cls-5" d="M199.34,36l-.16-.29a1.91,1.91,0,0,1,.24-2.12l.07-.06h.1c.18,0,.26.14.42.52a1.9,1.9,0,0,1-.44,1.7Zm.21-1.77a1.72,1.72,0,0,0-.08.81,1.5,1.5,0,0,0,.08-.81Z"/><path class="cls-13" d="M198.47,35a1.3,1.3,0,0,0,.1-1.15"/><path class="cls-5" d="M198.7,35.06l-.43-.19a1.13,1.13,0,0,0,.09-.95l.44-.21A1.56,1.56,0,0,1,198.7,35.06Z"/><path class="cls-13" d="M202.87,34.23a3.2,3.2,0,0,0-.62,1.47,2.25,2.25,0,0,0,.19,1.28c.24,0,.53-.59.53-.87s.1-1.93.1-1.93A.35.35,0,0,1,202.87,34.23Z"/><path class="cls-5" d="M202.29,37.25l-.07-.17a2.63,2.63,0,0,1-.22-1.41,3.4,3.4,0,0,1,.73-1.63l.06,0h.14l.45-.42-.07.62s-.1,1.65-.1,1.92-.31,1-.72,1.09Zm.49-2.45a3.33,3.33,0,0,0-.31.92,2.48,2.48,0,0,0,.06.86.93.93,0,0,0,.18-.45c0-.18,0-.83.08-1.33Z"/><path class="cls-13" d="M202.15,33.63c-.19-.87-.44.23-.44.78a3,3,0,0,0,.2,1.15C202.44,35,202.34,34.5,202.15,33.63Z"/><path class="cls-5" d="M201.82,36l-.14-.37a3.13,3.13,0,0,1-.21-1.25h0s0-1.26.49-1.31c.3,0,.38.34.42.5h0c.19.87.32,1.44-.29,2.13Zm.16-2c0,.13,0,.26,0,.39a1.89,1.89,0,0,0,0,.58,1.69,1.69,0,0,0,0-1Z"/><g id="Shape_21_copy" data-name="Shape 21 copy"><path class="cls-13" d="M203.89,34.5c-.29-.82-.39.28-.34.83a3.27,3.27,0,0,0,.34,1.1C204.32,35.79,204.18,35.33,203.89,34.5Z"/></g><path class="cls-5" d="M203.86,36.9l-.19-.36a3.64,3.64,0,0,1-.36-1.19c0-.21-.09-1.28.34-1.38s.41.29.48.46h0a2.08,2.08,0,0,1,0,2.13Zm-.08-2a2.29,2.29,0,0,0,0,.37,3,3,0,0,0,.11.52A1.8,1.8,0,0,0,203.78,34.94Z"/><path class="cls-13" d="M203.16,37.81a3.68,3.68,0,0,0,.29-1.84c-.29.55-.67,1.06-.82,1.38a1.69,1.69,0,0,0,.1,1S202.87,38.27,203.16,37.81Z"/><path class="cls-5" d="M202.57,38.59l-.08-.21a1.86,1.86,0,0,1-.09-1.14,5.63,5.63,0,0,1,.37-.62,7.83,7.83,0,0,0,.46-.77l.46.12v.46a2.77,2.77,0,0,1-.31,1.47h0a1.44,1.44,0,0,1-.56.61Zm.59-1.7a3.6,3.6,0,0,0-.31.54.68.68,0,0,0,0,.4l.1-.15h0a1.63,1.63,0,0,0,.22-.77Z"/><path class="cls-13" d="M205,35.47s.09-.14.38.18c.1.37.1,1.52-.19,1.38s-.24-.73-.39-1.24a.26.26,0,0,1,.2-.32Z"/><path class="cls-5" d="M205.24,37.27a.41.41,0,0,1-.16,0c-.19-.06-.25-.32-.38-.89l-.12-.5a.45.45,0,0,1,.29-.58.55.55,0,0,1,.18-.06.74.74,0,0,1,.52.29l0,0v.05c.06.24.16,1.34-.18,1.6A.26.26,0,0,1,205.24,37.27Zm-.16-1.58h0s0,0,0,0,.09.35.13.53l0,.14a3.33,3.33,0,0,0,0-.63Z"/><g id="Shape_41_copy" data-name="Shape 41 copy"><path class="cls-13" d="M204.18,36.34a1.37,1.37,0,0,1,.77.78c.05.6-.48,2.34-.87,2-.19-.13-.09-1.19-.09-2C204.08,36.71,204.18,36.34,204.18,36.34Z"/></g><path class="cls-5" d="M204.18,39.41a.39.39,0,0,1-.26-.09c-.2-.15-.22-.54-.19-1.54v-.61c.1-.51.2-.88.2-.88l.06-.24.24.07a1.62,1.62,0,0,1,.93.92v.07c0,.51-.32,2-.84,2.27A.32.32,0,0,1,204.18,39.41Zm.16-2.72c0,.15-.08.33-.12.52a2.91,2.91,0,0,0,0,.59,9.73,9.73,0,0,0,0,1.08,4,4,0,0,0,.49-1.7,1.48,1.48,0,0,0-.37-.49Z"/><path class="cls-13" d="M205.19,35.28a1.24,1.24,0,0,1,.39.69s-.39.14-.72-.36-.1-.69-.1-.69Z"/><path class="cls-5" d="M205.47,36.22a1,1,0,0,1-.8-.49c-.44-.66-.08-1,0-1l.16-.13.16.15.42.35h0a1.4,1.4,0,0,1,.45.81l0,.19-.19.07A.65.65,0,0,1,205.47,36.22Zm-.39-.73.12.14a.93.93,0,0,0-.14-.14Z"/><path class="cls-13" d="M202.57,31.89c0,.5,0,.64-.39.59a2.68,2.68,0,0,0,.39,1.93c.29.19.39-.64.39-1.15A2.78,2.78,0,0,0,202.57,31.89Z"/><path class="cls-5" d="M202.65,34.67a.35.35,0,0,1-.22-.08c-.41-.26-.61-1.61-.48-2.16l.05-.2.22,0h.07a1.52,1.52,0,0,0,0-.21l.08-.84.37.54a2.9,2.9,0,0,1,.43,1.51c0,.05,0,1.18-.42,1.38A.28.28,0,0,1,202.65,34.67Zm-.25-2a3.26,3.26,0,0,0,.22,1.38,3.16,3.16,0,0,0,.11-.81,3.63,3.63,0,0,0-.09-.65h0a.43.43,0,0,1-.24.1Z"/><path class="cls-13" d="M202.15,38c-.19.42.19,1,.19,1a1.26,1.26,0,0,0,.44-.83,9.18,9.18,0,0,0-.2-1.38A12.6,12.6,0,0,1,202.15,38Z"/><path class="cls-5" d="M202.29,39.36l-.16-.24a1.46,1.46,0,0,1-.2-1.22h0a11.91,11.91,0,0,0,.42-1.16h.49a9.69,9.69,0,0,1,.19,1.42,1.48,1.48,0,0,1-.51,1Zm.08-1.27a.69.69,0,0,0,0,.49.84.84,0,0,0,.14-.4c0-.14,0-.27,0-.41C202.46,37.88,202.41,38,202.37,38.09Z"/><path class="cls-13" d="M198.14,34.32a5.36,5.36,0,0,0-.1,1.06,1.5,1.5,0,0,0,.43-.51,3,3,0,0,0,.2-1.15S198.18,34,198.14,34.32Z"/><path class="cls-5" d="M197.8,35.83v-.46a5.06,5.06,0,0,1,.1-1.1,1.4,1.4,0,0,1,.64-.74l.37-.2v.4a2.84,2.84,0,0,1-.24,1.28,1.61,1.61,0,0,1-.48.56Zm.58-1.52v.07a1.85,1.85,0,0,0,0,.23,2.54,2.54,0,0,0,0-.29Z"/><g id="Shape_27_copy" data-name="Shape 27 copy"><path class="cls-13" d="M195.48,34.5a5.44,5.44,0,0,0-.1,1.06,1.55,1.55,0,0,0,.44-.51,3.14,3.14,0,0,0,.19-1.14S195.53,34.14,195.48,34.5Z"/></g><path class="cls-5" d="M195.14,36v-.46a5.06,5.06,0,0,1,.1-1.1,1.18,1.18,0,0,1,.66-.76l.35-.17v.38a2.79,2.79,0,0,1-.24,1.27,1.44,1.44,0,0,1-.48.56Zm.59-1.53v.08a1.55,1.55,0,0,0,0,.23C195.69,34.71,195.71,34.6,195.73,34.49Z"/><g id="Shape_27_copy_2" data-name="Shape 27 copy 2"><path class="cls-13" d="M199.59,30.23a7.5,7.5,0,0,0,.14,1.06,2.57,2.57,0,0,0,.34-.6,2.63,2.63,0,0,0,0-1.15A1.07,1.07,0,0,0,199.59,30.23Z"/></g><path class="cls-5" d="M199.6,31.84l-.11-.51a10,10,0,0,1-.15-1.1,1.32,1.32,0,0,1,.53-.87l.31-.22.08.35a2.81,2.81,0,0,1,0,1.29,2.48,2.48,0,0,1-.37.65Zm.27-1.76a.28.28,0,0,0,0,.15c0,.12,0,.23,0,.35a1.39,1.39,0,0,0,0-.5Z"/><path class="cls-13" d="M198.18,35.83a1.08,1.08,0,0,0,.15-.55c0-.32-.39.37-.39.37s.15-.83-.05-.55c0,.09-.14.18-.19.27a1.17,1.17,0,0,0,0,1A2.57,2.57,0,0,0,198.18,35.83Z"/><path class="cls-5" d="M197.61,36.72l-.13-.28a1.38,1.38,0,0,1,0-1.16.57.57,0,0,1,.12-.18s.05-.07.07-.1c.16-.22.32-.19.38-.17a.25.25,0,0,1,.15.15h.15a.3.3,0,0,1,.22.31,1.54,1.54,0,0,1-.17.66h0a3.64,3.64,0,0,1-.54.57Zm.24-1.06a1,1,0,0,0,0,.24,1.09,1.09,0,0,0,.13-.17h0v0Z"/><path class="cls-13" d="M196.4,37.49c-.54.37-.44.64-.39,1.06a1.33,1.33,0,0,0,1-.6,6.14,6.14,0,0,0,.54-1.65A13,13,0,0,1,196.4,37.49Z"/><path class="cls-5" d="M196,38.78h-.21l0-.32a1,1,0,0,1,.49-1.15,7.15,7.15,0,0,0,.86-.88l.27-.3.54-.5-.13.7a5.9,5.9,0,0,1-.54,1.73A1.57,1.57,0,0,1,196,38.78Zm1.09-1.62a4.43,4.43,0,0,1-.55.51h0c-.32.21-.35.35-.32.6a1.15,1.15,0,0,0,.6-.46A3.08,3.08,0,0,0,197.1,37.16Z"/><path class="cls-13" d="M196.4,36.43a2,2,0,0,0-.54,1c0,.41-.14.5-.29.5s-.29-.36-.09-.78a1.31,1.31,0,0,1,.63-.6Z"/><path class="cls-5" d="M195.57,38.13a.37.37,0,0,1-.29-.17,1,1,0,0,1,0-.92,1.61,1.61,0,0,1,.75-.71l1.2-.38-.63.65a1.72,1.72,0,0,0-.48.81C196.11,38,195.77,38.13,195.57,38.13Z"/><path class="cls-13" d="M193.74,37.12a.85.85,0,0,0-.86.85.76.76,0,0,0,0,.21c.15.55.68.18,1.36-.41a2.1,2.1,0,0,0,.72-1.29C194.9,36.2,194.32,37.08,193.74,37.12Z"/><path class="cls-5" d="M193.19,38.68h-.14a.54.54,0,0,1-.37-.43,1,1,0,0,1,.16-.88,1.2,1.2,0,0,1,.88-.46,1.57,1.57,0,0,0,.7-.42c.23-.19.39-.32.59-.27a.3.3,0,0,1,.21.2v.09a2.3,2.3,0,0,1-.8,1.44C193.91,38.4,193.52,38.68,193.19,38.68Zm1.42-1.75a1.59,1.59,0,0,1-.85.42h0a.71.71,0,0,0-.52.26.59.59,0,0,0-.09.51.3.3,0,0,0,0,.1c.05,0,.25,0,.91-.62A2.06,2.06,0,0,0,194.61,36.93Z"/><path class="cls-13" d="M201.23,35.56c.15.41.34-.28.39-.41a1.91,1.91,0,0,0-.39-1.24C201,35,201.09,35.1,201.23,35.56Z"/><path class="cls-5" d="M201.33,35.92c-.1,0-.24-.05-.33-.29v-.05a2.81,2.81,0,0,1,0-1.71l.09-.55.34.46a2.13,2.13,0,0,1,.43,1.41v.09c-.12.37-.23.65-.48.65Zm0-1.22a1.19,1.19,0,0,0,0,.46h0v-.07A1.28,1.28,0,0,0,201.36,34.7Z"/><path class="cls-13" d="M201.76,32.16a2.32,2.32,0,0,1-.29.5,2.9,2.9,0,0,0,.2.87,4,4,0,0,0,.38-.59,1.91,1.91,0,0,0,0-1.06C202,31.79,201.86,31.89,201.76,32.16Z"/><path class="cls-5" d="M201.6,34l-.15-.42a2.66,2.66,0,0,1-.2-1v0a1.37,1.37,0,0,1,.13-.2.85.85,0,0,0,.15-.28h0c.1-.29.26-.46.45-.46a.29.29,0,0,1,.29.16v0a2.15,2.15,0,0,1,0,1.18,3.64,3.64,0,0,1-.43.67Zm.12-1.29a2.38,2.38,0,0,0,.05.26.91.91,0,0,0,.07-.14,1.32,1.32,0,0,0,.06-.39.86.86,0,0,1-.1.16.52.52,0,0,0-.1.11Z"/><path class="cls-13" d="M204.13,31.2c-.19.64-.48-.23-.48-.78a1.6,1.6,0,0,1,.48-1.06A5.68,5.68,0,0,1,204.13,31.2Z"/><path class="cls-5" d="M204,31.66h0c-.48-.07-.52-1.23-.52-1.24A1.84,1.84,0,0,1,204,29.2l.34-.32.07.46a5.69,5.69,0,0,1,0,1.93h0C204.27,31.58,204.11,31.66,204,31.66Zm0-1.61a1,1,0,0,0-.08.37,3.47,3.47,0,0,0,.06.45,3.75,3.75,0,0,0,0-.82Z"/><path class="cls-13" d="M205.77,32.21c0-.46-.09-1.24-.09-1.24l-.44-.6v1.06c0,1,.15,1.74.44,1.74S205.77,32.67,205.77,32.21Z"/><path class="cls-5" d="M205.68,33.4c-.17,0-.68,0-.68-2v-1.8l.91,1.26V31s.05.78.1,1.23h0a2.56,2.56,0,0,0,0,.39c0,.3,0,.55-.11.7A.31.31,0,0,1,205.68,33.4Zm-.21-1.68a2.75,2.75,0,0,0,0,.62v-.12A2.24,2.24,0,0,0,205.47,31.72Z"/><path class="cls-13" d="M200.89,32.48c-.14.65.15,1.7.29,1.56a3.32,3.32,0,0,0,.39-2.34C201.47,31.06,201.09,31.84,200.89,32.48Z"/><path class="cls-5" d="M201.24,34.34l-.22-.08c-.32-.17-.49-1.25-.37-1.84h0c.25-.81.51-1.22.81-1.19s.3.16.34.46a3.57,3.57,0,0,1-.43,2.51Zm-.12-1.8a2.71,2.71,0,0,0,.06,1.06,3.25,3.25,0,0,0,.17-1.66A3.92,3.92,0,0,0,201.12,32.54Z"/><path class="cls-13" d="M199.15,30.74c-.05.78.19,1.19.44.59a2.35,2.35,0,0,0,.19-1.14C199.49,30.05,199.25,30.46,199.15,30.74Z"/><path class="cls-5" d="M199.36,31.85h-.07c-.39-.08-.4-.74-.38-1.12v-.06a1.23,1.23,0,0,1,.55-.7.51.51,0,0,1,.42,0L200,30v.13a2.67,2.67,0,0,1-.21,1.25C199.69,31.7,199.54,31.85,199.36,31.85Zm0-1.07a2.28,2.28,0,0,0,0,.37,2.44,2.44,0,0,0,.15-.66.89.89,0,0,0-.15.29Z"/><g id="Shape_32_copy_9" data-name="Shape 32 copy 9"><path class="cls-13" d="M198.22,31.61c-.05.78.19,1.19.43.6a2.42,2.42,0,0,0,.2-1.15C198.57,30.92,198.33,31.33,198.22,31.61Z"/></g><path class="cls-5" d="M198.45,32.72h-.08c-.38-.08-.4-.73-.38-1.12v-.06a1.23,1.23,0,0,1,.55-.7.61.61,0,0,1,.42,0l.12.06V31a2.58,2.58,0,0,1-.21,1.25C198.77,32.58,198.62,32.72,198.45,32.72Zm0-1.06a2.28,2.28,0,0,0,0,.37,2.53,2.53,0,0,0,.15-.66,1,1,0,0,0-.13.29Z"/><g id="Shape_32_copy_4-2" data-name="Shape 32 copy 4-2"><path class="cls-13" d="M199.49,29.36c.1.69.34,1.06.48.46a2.3,2.3,0,0,0-.05-1C199.63,28.72,199.49,29.13,199.49,29.36Z"/></g><path class="cls-5" d="M199.79,30.35h0c-.09,0-.39,0-.53-1v0a.9.9,0,0,1,.32-.71.52.52,0,0,1,.44-.06l.12,0,0,.11a2.45,2.45,0,0,1,.05,1.11C200.18,30,200.09,30.35,199.79,30.35Zm-.06-1a.34.34,0,0,0,0,.18,1.71,1.71,0,0,0,0-.32A.39.39,0,0,0,199.73,29.34Z"/><g id="Shape_32_copy_5-2" data-name="Shape 32 copy 5-2"><path class="cls-13" d="M198.62,29.27c.14.64.48.92.53.36a1.51,1.51,0,0,0-.14-.91C198.7,28.67,198.62,29.08,198.62,29.27Z"/></g><path class="cls-5" d="M199,30.16c-.39,0-.57-.65-.62-.84v-.05a1,1,0,0,1,.28-.68.5.5,0,0,1,.39-.1h.12l.06.11a1.65,1.65,0,0,1,.16,1c0,.39-.21.46-.36.49Zm-.14-.92a.64.64,0,0,0,.06.22,1.14,1.14,0,0,0,0-.37Z"/><g id="Shape_32_copy_3-2" data-name="Shape 32 copy 3-2"><path class="cls-13" d="M197.89,29.77c.05.55.34.83.54.37a1.67,1.67,0,0,0,0-.83.51.51,0,0,0-.57.42A.06.06,0,0,1,197.89,29.77Z"/></g><path class="cls-5" d="M198.22,30.6h-.06c-.27,0-.45-.34-.48-.8h0a.68.68,0,0,1,.26-.52.74.74,0,0,1,.59-.17h.18l0,.17a1.8,1.8,0,0,1-.06.92C198.52,30.54,198.33,30.6,198.22,30.6Zm-.07-.83a1.5,1.5,0,0,0,.06.29h0a1.17,1.17,0,0,0,.07-.49l0,0a.25.25,0,0,0-.11.17Z"/><g id="Shape_32_copy_6-2" data-name="Shape 32 copy 6-2"><path class="cls-13" d="M195.62,28.72c0,.41.34.59.53.27a.64.64,0,0,0,0-.6A.5.5,0,0,0,195.62,28.72Z"/></g><path class="cls-5" d="M195.93,29.4h-.09a.71.71,0,0,1-.48-.63v-.08a.72.72,0,0,1,.86-.5h.12l.06.11a.9.9,0,0,1-.05.8A.55.55,0,0,1,195.93,29.4Zm-.06-.65a.44.44,0,0,0,.06.16h0a.54.54,0,0,0,.06-.25.24.24,0,0,0-.12.07Z"/><g id="Shape_32_copy_7-2" data-name="Shape 32 copy 7-2"><path class="cls-13" d="M196.25,29.59c.05.41.34.6.53.27a.65.65,0,0,0,.05-.59A.48.48,0,0,0,196.25,29.59Z"/></g><path class="cls-5" d="M196.56,30.26h-.09a.71.71,0,0,1-.48-.63v-.08a.71.71,0,0,1,.86-.5H197l.05.11a.87.87,0,0,1,0,.8A.55.55,0,0,1,196.56,30.26Zm-.06-.65a.52.52,0,0,0,.06.16h0a.72.72,0,0,0,.07-.25A.18.18,0,0,0,196.5,29.61Z"/><g id="Shape_32_copy_8-2" data-name="Shape 32 copy 8-2"><path class="cls-13" d="M195.24,29.59c0,.41.33.6.53.27a.65.65,0,0,0,0-.59A.48.48,0,0,0,195.24,29.59Z"/></g><path class="cls-5" d="M195.54,30.26h-.08a.7.7,0,0,1-.49-.63v-.08a.59.59,0,0,1,.29-.38.79.79,0,0,1,.58-.12l.12,0,0,.1a.89.89,0,0,1,0,.81A.55.55,0,0,1,195.54,30.26Zm-.06-.65a.52.52,0,0,0,.06.16h0a.52.52,0,0,0,.07-.25l-.07,0S195.5,29.59,195.48,29.61Z"/><g id="Shape_32_copy_2-2" data-name="Shape 32 copy 2-2"><path class="cls-13" d="M196.28,30.92c-.33.74-.24,1.19.25.74a1.84,1.84,0,0,0,.53-1C196.83,30.32,196.44,30.69,196.28,30.92Z"/></g><path class="cls-5" d="M196.23,32.07A.36.36,0,0,1,196,32c-.34-.21-.11-.83.05-1.18h0a1,1,0,0,1,.73-.52.59.59,0,0,1,.45.22l.05.08v.09a1.93,1.93,0,0,1-.6,1.14A.69.69,0,0,1,196.23,32.07Zm.28-1a2.27,2.27,0,0,0-.16.46h0a1.64,1.64,0,0,0,.44-.72A.55.55,0,0,0,196.51,31Z"/><g id="Shape_32_copy_10" data-name="Shape 32 copy 10"><path class="cls-13" d="M197.7,33.49c-.34.74-.24,1.2.24.74a1.69,1.69,0,0,0,.53-1C198.22,32.94,197.85,33.31,197.7,33.49Z"/></g><path class="cls-5" d="M197.63,34.64a.38.38,0,0,1-.19,0c-.34-.22-.12-.84,0-1.19l0,0a1.11,1.11,0,0,1,.74-.46.52.52,0,0,1,.41.17l.07.08v.1a2.08,2.08,0,0,1-.6,1.15A.74.74,0,0,1,197.63,34.64Zm.28-1a2.51,2.51,0,0,0-.16.46h0a1.49,1.49,0,0,0,.43-.68A.73.73,0,0,0,197.91,33.61Z"/><path class="cls-13" d="M201.81,31.84a1.6,1.6,0,0,0,.28.78,1.52,1.52,0,0,0,.29-.6c.09-.41-.39-.87-.39-.87A3.88,3.88,0,0,0,201.81,31.84Z"/><path class="cls-5" d="M202.09,33l-.19-.27a1.8,1.8,0,0,1-.33-.92v0l.24,0-.24,0a3.49,3.49,0,0,1,.2-.72l.14-.33.26.25a1.33,1.33,0,0,1,.45,1.08,1.53,1.53,0,0,1-.33.69Zm0-1.16a1.31,1.31,0,0,0,.06.27.83.83,0,0,0,0-.15.47.47,0,0,0-.06-.31A.33.33,0,0,1,202.05,31.86Z"/><g id="Shape_33_copy" data-name="Shape 33 copy"><path class="cls-13" d="M203.74,32a1.68,1.68,0,0,0,.29.78,1.26,1.26,0,0,0,.29-.59c.1-.42-.38-.88-.38-.88A4.48,4.48,0,0,0,203.74,32Z"/></g><path class="cls-5" d="M204,33.2l-.19-.27a1.9,1.9,0,0,1-.33-.92v0l.24,0-.24,0a3.91,3.91,0,0,1,.21-.72l.14-.32.25.24a1.38,1.38,0,0,1,.46,1.09,1.62,1.62,0,0,1-.34.68Zm0-1.15a.8.8,0,0,0,0,.26.88.88,0,0,0,.05-.15.49.49,0,0,0-.07-.31A.46.46,0,0,1,204,32.05Z"/><g id="Shape_26_copy-2" data-name="Shape 26 copy-2"><path class="cls-13" d="M198.62,35.24a1.44,1.44,0,0,0-.1,1.06,1.32,1.32,0,0,0,.63-.69,7.27,7.27,0,0,0,.19-1.38S198.91,34.87,198.62,35.24Z"/></g><path class="cls-5" d="M198.37,36.64l-.08-.29a1.57,1.57,0,0,1,.14-1.25h0c.28-.35.71-1,.71-1l.49-.72,0,.86a7.69,7.69,0,0,1-.2,1.43,1.52,1.52,0,0,1-.75.83Zm.64-1.53a3.16,3.16,0,0,1-.2.27h0a.8.8,0,0,0-.11.5.66.66,0,0,0,.21-.32,2.42,2.42,0,0,0,.1-.45Z"/><path class="cls-13" d="M204.57,29a4.29,4.29,0,0,0-.2,2.07c.34,1.19.63.73.63.37V30.14C204.86,29.17,204.57,29,204.57,29Z"/><path class="cls-5" d="M204.8,32.06c-.35,0-.53-.46-.66-.94a4.49,4.49,0,0,1,.2-2.21l.11-.27.25.16c.09.06.39.32.54,1.31v1.32c0,.28-.13.59-.4.63Zm-.16-2.43a3.94,3.94,0,0,0,0,1.37,2.6,2.6,0,0,0,.15.42V30.14a2.91,2.91,0,0,0-.12-.51Z"/><path class="cls-13" d="M206,33.81c0,.92.77.79.82.6-.24-.69-.58-1.74-.82-1.65S206,32.9,206,33.81Z"/><path class="cls-5" d="M206.55,34.77h-.11c-.16,0-.68-.14-.68-1a3.78,3.78,0,0,0,0-.75.4.4,0,0,1,.16-.48l0,0a.32.32,0,0,1,.27,0c.26.12.45.56.81,1.59l.09.26v.06A.51.51,0,0,1,206.55,34.77Zm-.3-1.28v.32c0,.26.06.43.18.46h.11v0c-.07-.17-.18-.49-.29-.76Z"/><g id="Shape_35_copy-2" data-name="Shape 35 copy-2"><path class="cls-13" d="M203.84,28.72c-.05-1.2-.05-1.15-.29-.37s-.1,1.38,0,1.38S203.84,29.27,203.84,28.72Z"/></g><path class="cls-5" d="M203.6,30l-.1,0a.28.28,0,0,1-.15-.08c-.06-.06-.21-.22,0-1.55l0-.11c.16-.52.21-.68.45-.65s.25.11.29,1.15h0c0,.4-.12,1.05-.37,1.2Z"/><g id="Shape_35_copy_3-2" data-name="Shape 35 copy 3-2"><path class="cls-13" d="M204.23,27.56c0-1,0-.92-.24-.27a3.38,3.38,0,0,0,0,1.1A1.44,1.44,0,0,0,204.23,27.56Z"/></g><path class="cls-5" d="M204,28.62h-.11l-.08-.07c-.06-.06-.15-.15-.06-1.28l0-.14c.15-.41.22-.57.44-.53s.24.13.24,1C204.47,27.79,204.35,28.62,204,28.62Z"/><g id="Shape_35_copy_2-2" data-name="Shape 35 copy 2-2"><path class="cls-13" d="M205,27.38c-.09-1.83-.09-1.74-.34-.55a6.67,6.67,0,0,0,.1,2.16A3,3,0,0,0,205,27.38Z"/></g><path class="cls-5" d="M204.71,29.22h-.11l-.08-.08a6.07,6.07,0,0,1-.15-2.29l0-.17c.17-.81.19-.92.45-.92s.26,0,.34,1.64a3.37,3.37,0,0,1-.28,1.77l-.07.07Z"/><path class="cls-13" d="M202.39,28.9c0-1.33-.24-.55-.29.09s-.19.28-.19.28a5.82,5.82,0,0,0-.2-1.38,10.37,10.37,0,0,0,0,1.93c0,1.56.2,1.15.39,1.24C202.57,31.15,202.44,30.23,202.39,28.9Z"/><path class="cls-5" d="M202.16,31.3H202a.32.32,0,0,1-.28-.08c-.14-.12-.21-.35-.24-1.37v-.11a9.43,9.43,0,0,1,0-1.84l.09-.66.36.55a1.21,1.21,0,0,1,.11.32.22.22,0,0,1,.25-.15c.3,0,.33.34.35.94a4.23,4.23,0,0,0,0,.64c0,.92.07,1.44-.21,1.67A.48.48,0,0,1,202.16,31.3Zm-.12-.46a.2.2,0,0,1,.11,0,4.24,4.24,0,0,0,0-1.28h0a.34.34,0,0,1-.15.06H202v.21a5.33,5.33,0,0,0,.09,1Z"/><g id="Shape_36_copy-2" data-name="Shape 36 copy-2"><path class="cls-13" d="M203.36,27.43c0-1.93-.15-.78-.15.14s-.09.36-.09.36-.05-1.69-.1-2a21.18,21.18,0,0,0,0,2.76c0,2.25.1,1.7.24,1.75C203.45,30.64,203.36,29.36,203.36,27.43Z"/></g><path class="cls-5" d="M203.14,30.67a.27.27,0,0,1-.12,0c-.17-.09-.2-.11-.24-2a21.34,21.34,0,0,1,0-2.77h.48a2.28,2.28,0,0,1,0,.27h0c.26,0,.27.24.29.46s0,.43,0,.82v1.48c0,1.44,0,1.66-.23,1.75a.43.43,0,0,1-.16,0Z"/><g id="Shape_15_copy-2" data-name="Shape 15 copy-2"><path class="cls-13" d="M202,34.69c-.05.64-.68,1.61-.73,1.42a3.55,3.55,0,0,1,.34-2.39C201.86,33.17,202,34,202,34.69Z"/></g><path class="cls-5" d="M201.07,36.38l-.08-.21a3.75,3.75,0,0,1,.36-2.55c.16-.3.34-.32.48-.29.45.12.4,1.16.38,1.38h0c0,.52-.56,1.63-.92,1.65Zm.62-2.36a3.89,3.89,0,0,0-.32,1.61,2.76,2.76,0,0,0,.34-1A2.85,2.85,0,0,0,201.69,34Z"/><path class="cls-13" d="M200.36,31.15a6.24,6.24,0,0,0,.1,1.29,1.61,1.61,0,0,0,.43-.69,7.71,7.71,0,0,0,0-2.25A10.57,10.57,0,0,0,200.36,31.15Z"/><path class="cls-5" d="M200.3,32.91l-.08-.46a5.47,5.47,0,0,1-.1-1.34h0a10.29,10.29,0,0,1,.54-1.71l.49.06a8.2,8.2,0,0,1,0,2.32,1.87,1.87,0,0,1-.51.84Zm.3-1.74a3.64,3.64,0,0,0,0,.66.65.65,0,0,0,0-.13,5.61,5.61,0,0,0,.08-1.08A2.57,2.57,0,0,0,200.6,31.17Z"/><g id="Shape_42_copy" data-name="Shape 42 copy"><path class="cls-13" d="M205.68,33.72a1.4,1.4,0,0,1,.09.78s-.38,0-.58-.55.15-.73.15-.73A1.31,1.31,0,0,1,205.68,33.72Z"/></g><path class="cls-5" d="M206,34.73h-.21A.93.93,0,0,1,205,34a.78.78,0,0,1,.25-1l.13-.07.13.08a1.4,1.4,0,0,1,.42.6h0a1.53,1.53,0,0,1,.11.92Zm-.61-1.07a1.74,1.74,0,0,0,0,.22.78.78,0,0,0,.12.22c0-.1,0-.19-.08-.29Z"/><g id="Shape_16_copy-2" data-name="Shape 16 copy-2"><path class="cls-13" d="M199.19,28.21a2.83,2.83,0,0,0,.09.87s.39-.27.44-.46a3.84,3.84,0,0,0,0-1.51A3.85,3.85,0,0,0,199.19,28.21Z"/></g><path class="cls-5" d="M199.15,29.47l-.09-.33a2.83,2.83,0,0,1-.1-1,4.18,4.18,0,0,1,.56-1.19l.33-.49.12.56a3.74,3.74,0,0,1,0,1.63,1.53,1.53,0,0,1-.52.58Zm.42-1.6a1.63,1.63,0,0,0-.13.37h0a1.27,1.27,0,0,0,0,.39.43.43,0,0,0,0-.07A2,2,0,0,0,199.57,27.87Z"/><g id="Shape_16_copy_3" data-name="Shape 16 copy 3"><path class="cls-13" d="M197.46,31.43a2.88,2.88,0,0,0,.1.87s.38-.28.43-.46a3.54,3.54,0,0,0,0-1.52A5.14,5.14,0,0,0,197.46,31.43Z"/></g><path class="cls-5" d="M197.41,32.69l-.09-.34a2.81,2.81,0,0,1-.1-1h0a4.9,4.9,0,0,1,.56-1.18l.32-.52.13.59a4.07,4.07,0,0,1,0,1.63,1.5,1.5,0,0,1-.52.57Zm.29-1.23a1.28,1.28,0,0,0,0,.39.43.43,0,0,0,0-.07,2.22,2.22,0,0,0,.08-.68,1.78,1.78,0,0,0-.14.36Z"/><g id="Shape_16_copy_4" data-name="Shape 16 copy 4"><path class="cls-13" d="M196.64,32.62a2.87,2.87,0,0,0,.09.87s.39-.28.44-.46a3.54,3.54,0,0,0,0-1.52A5.14,5.14,0,0,0,196.64,32.62Z"/></g><path class="cls-5" d="M196.59,33.88l-.09-.33a2.86,2.86,0,0,1-.1-1A4.79,4.79,0,0,1,197,31.4l.32-.52.13.59a4.07,4.07,0,0,1,0,1.63,1.48,1.48,0,0,1-.53.58ZM197,32.3a2.13,2.13,0,0,0-.14.35h0a2.54,2.54,0,0,0,0,.39l0-.06A2,2,0,0,0,197,32.3Z"/><g id="Shape_16_copy_2-2" data-name="Shape 16 copy 2-2"><path class="cls-13" d="M197.7,25.91a1.53,1.53,0,0,0,0,.6.86.86,0,0,0,.39-.23,2,2,0,0,0,.24-1A4,4,0,0,0,197.7,25.91Z"/></g><path class="cls-5" d="M197.44,26.82l0-.28a1.64,1.64,0,0,1,.07-.73h0a3.63,3.63,0,0,1,.64-.66l.4-.35v.52a2.33,2.33,0,0,1-.28,1.09,1.09,1.09,0,0,1-.51.32Z"/><path class="cls-13" d="M200.36,34.37a3.82,3.82,0,0,0-.1,1.93,2,2,0,0,0,.63-1.47C200.94,32.85,200.55,33.81,200.36,34.37Z"/><path class="cls-5" d="M200.15,36.79l-.1-.46a3.92,3.92,0,0,1,.1-2h0c.22-.63.38-.92.67-.88s.36.37.34,1.42a2.28,2.28,0,0,1-.69,1.62Zm.49-2.36a3.64,3.64,0,0,0-.17,1.27,1.68,1.68,0,0,0,.22-.87v-.56a.77.77,0,0,0-.1.18Z"/><path class="cls-13" d="M200.46,32.11a1.71,1.71,0,0,0-.2,1.84,1.65,1.65,0,0,0,.39-1.47S200.51,32.11,200.46,32.11Z"/><path class="cls-5" d="M200.21,34.35l-.16-.29a1.91,1.91,0,0,1,.24-2.12l.07-.05h.1c.18,0,.27.13.42.51a1.9,1.9,0,0,1-.44,1.7Zm.21-1.77a1.72,1.72,0,0,0-.08.81A1.5,1.5,0,0,0,200.42,32.58Z"/><path class="cls-13" d="M203.74,32.62a3.2,3.2,0,0,0-.62,1.47,2.26,2.26,0,0,0,.19,1.28c.24,0,.53-.6.53-.87s.1-1.93.1-1.93A.35.35,0,0,1,203.74,32.62Z"/><path class="cls-5" d="M203.16,35.64l-.07-.17a2.59,2.59,0,0,1-.22-1.4,3.31,3.31,0,0,1,.73-1.63l.06,0h.14l.45-.43-.07.63s-.1,1.65-.1,1.92-.31,1-.72,1.1Zm.49-2.45a3,3,0,0,0-.3.92,2.14,2.14,0,0,0,.06.87,1.3,1.3,0,0,0,.18-.46c0-.18,0-.83.07-1.33Z"/><path class="cls-13" d="M203,32c-.19-.87-.44.23-.44.78a4.47,4.47,0,0,0,.2,1.15C203.31,33.36,203.21,32.9,203,32Z"/><path class="cls-5" d="M202.68,34.42l-.13-.4a4.16,4.16,0,0,1-.21-1.22s0-1.28.49-1.33c.3,0,.38.35.42.51h0c.19.86.32,1.43-.29,2.12Zm.17-2c0,.13,0,.26,0,.39a3.29,3.29,0,0,0,0,.54A1.84,1.84,0,0,0,202.85,32.41Z"/><g id="Shape_21_copy-2" data-name="Shape 21 copy-2"><path class="cls-13" d="M204.76,32.9c-.29-.83-.39.27-.34.82a3.33,3.33,0,0,0,.34,1.11C205.19,34.18,205.05,33.72,204.76,32.9Z"/></g><path class="cls-5" d="M204.73,35.29l-.19-.36a3.57,3.57,0,0,1-.36-1.19c0-.21-.09-1.28.34-1.38s.41.29.48.46h0A2.08,2.08,0,0,1,205,35Zm-.08-2a2.29,2.29,0,0,0,0,.37,3,3,0,0,0,.11.52A1.8,1.8,0,0,0,204.65,33.33Z"/><path class="cls-13" d="M204,36.2a3.77,3.77,0,0,0,.29-1.83c-.29.55-.68,1.05-.82,1.37a1.78,1.78,0,0,0,.09,1S203.74,36.66,204,36.2Z"/><path class="cls-5" d="M203.45,37l-.08-.21a1.86,1.86,0,0,1-.09-1.14,5.63,5.63,0,0,1,.37-.62,7.83,7.83,0,0,0,.46-.77l.46.12v.46a2.77,2.77,0,0,1-.31,1.47h0a1.44,1.44,0,0,1-.56.61Zm.57-1.7a3.6,3.6,0,0,0-.31.54.68.68,0,0,0,0,.4l.1-.15h0A1.56,1.56,0,0,0,204,35.3Z"/><path class="cls-13" d="M205.87,34.45s.1-.13.39.19c.09.36.09,1.51-.2,1.37s-.24-.73-.38-1.24C205.63,34.69,205.73,34.55,205.87,34.45Z"/><path class="cls-5" d="M206.11,36.26a.45.45,0,0,1-.16,0c-.18-.06-.25-.32-.38-.89l-.12-.5a.5.5,0,0,1,.26-.56.32.32,0,0,1,.21-.08.74.74,0,0,1,.52.29l0,0v.05c.06.24.16,1.34-.18,1.6A.32.32,0,0,1,206.11,36.26Zm-.2-1.53.13.51,0,.14a3.33,3.33,0,0,0,0-.63l-.09-.07,0,0Zm0,0v0Z"/><path class="cls-13" d="M199,32.71a5.36,5.36,0,0,0-.1,1.06,1.5,1.5,0,0,0,.43-.51,3,3,0,0,0,.2-1.15S199.05,32.39,199,32.71Z"/><path class="cls-5" d="M198.67,34.23v-.46a5.06,5.06,0,0,1,.1-1.1,1.35,1.35,0,0,1,.64-.75l.37-.21v.4a2.81,2.81,0,0,1-.24,1.28,1.61,1.61,0,0,1-.48.56Zm.58-1.52v.07a1.57,1.57,0,0,0,0,.23,1.54,1.54,0,0,0,0-.3Z"/><g id="Shape_27_copy-2" data-name="Shape 27 copy-2"><path class="cls-13" d="M196,33a5.33,5.33,0,0,0-.1,1,1.3,1.3,0,0,0,.42-.51,3,3,0,0,0,.2-1.14A1.13,1.13,0,0,0,196,33Z"/></g><path class="cls-5" d="M195.62,34.5V34a6,6,0,0,1,.1-1.11,1.42,1.42,0,0,1,.65-.74l.36-.19v.39a3,3,0,0,1-.23,1.28,1.54,1.54,0,0,1-.49.56Zm.59-1.49v0h0a1,1,0,0,0-.05.24C196.17,33.21,196.19,33.11,196.21,33Z"/><g id="Shape_27_copy_2-2" data-name="Shape 27 copy 2-2"><path class="cls-13" d="M200.46,28.62a7.5,7.5,0,0,0,.14,1.06,2.22,2.22,0,0,0,.34-.6,2.63,2.63,0,0,0-.05-1.15A1.07,1.07,0,0,0,200.46,28.62Z"/></g><path class="cls-5" d="M200.47,30.23l-.11-.5a7,7,0,0,1-.15-1.11,1.28,1.28,0,0,1,.53-.86l.31-.23.08.35a2.82,2.82,0,0,1,0,1.29,2.76,2.76,0,0,1-.36.65Zm.27-1.76a.28.28,0,0,0,0,.15c0,.12,0,.24,0,.35a1.35,1.35,0,0,0,0-.49Z"/><path class="cls-13" d="M199.05,34.23a1.08,1.08,0,0,0,.15-.55c0-.32-.39.36-.39.36s.15-.82-.05-.55c0,.09-.14.19-.19.28a1.15,1.15,0,0,0,0,1A2.28,2.28,0,0,0,199.05,34.23Z"/><path class="cls-5" d="M198.48,35.11l-.13-.28a1.38,1.38,0,0,1,0-1.16.94.94,0,0,1,.12-.18l.07-.1c.16-.22.32-.19.38-.16a.21.21,0,0,1,.15.14h.15a.3.3,0,0,1,.22.31,1.54,1.54,0,0,1-.17.66h0a2.9,2.9,0,0,1-.54.57Zm.24-1.06a1,1,0,0,0,0,.24.65.65,0,0,0,.13-.16v0Z"/><path class="cls-13" d="M197.25,35.88c-.53.37-.43.64-.39,1.06a1.34,1.34,0,0,0,1-.6,6,6,0,0,0,.53-1.65A10.84,10.84,0,0,1,197.25,35.88Z"/><path class="cls-5" d="M196.88,37.17h-.22l0-.31a1,1,0,0,1,.49-1.16,5.89,5.89,0,0,0,.86-.87l.27-.3.54-.51-.13.7a6.32,6.32,0,0,1-.56,1.74A1.56,1.56,0,0,1,196.88,37.17ZM198,35.55a3.78,3.78,0,0,1-.55.51h0c-.32.22-.35.35-.32.6a1.1,1.1,0,0,0,.6-.46A2.87,2.87,0,0,0,198,35.55Z"/><path class="cls-13" d="M197.25,34.83a1.91,1.91,0,0,0-.53,1c-.05.41-.15.51-.29.51s-.29-.37-.1-.79a1.34,1.34,0,0,1,.63-.59Z"/><path class="cls-5" d="M196.44,36.52a.32.32,0,0,1-.29-.17,1,1,0,0,1,0-.91,1.59,1.59,0,0,1,.75-.72l1.2-.38-.63.66a1.74,1.74,0,0,0-.48.8C197,36.05,196.89,36.52,196.44,36.52Z"/><path class="cls-13" d="M194.61,35.51a.86.86,0,0,0-.86.85,1.52,1.52,0,0,0,0,.21c.15.55.68.18,1.36-.41a2.18,2.18,0,0,0,.72-1.29C195.77,34.6,195.19,35.47,194.61,35.51Z"/><path class="cls-5" d="M194.06,37.07h-.14a.53.53,0,0,1-.37-.43,1,1,0,0,1,.16-.88,1.2,1.2,0,0,1,.88-.46,1.57,1.57,0,0,0,.7-.42c.23-.18.39-.32.59-.27a.3.3,0,0,1,.21.2v.1a2.44,2.44,0,0,1-.77,1.41C194.78,36.79,194.39,37.07,194.06,37.07Zm1.4-1.73a1.62,1.62,0,0,1-.83.4.69.69,0,0,0-.52.27.57.57,0,0,0-.09.51.42.42,0,0,0,0,.1c.05,0,.24,0,.91-.63A2.18,2.18,0,0,0,195.46,35.34Z"/><path class="cls-13" d="M202.09,34c.14.42.33-.27.38-.41a1.92,1.92,0,0,0-.38-1.24A2.75,2.75,0,0,0,202.09,34Z"/><path class="cls-5" d="M202.2,34.32c-.1,0-.24-.06-.33-.29V34a2.81,2.81,0,0,1,0-1.71l.09-.54.34.45a2.14,2.14,0,0,1,.43,1.41l0,.09c-.12.37-.23.65-.48.65Zm0-1.23a1.77,1.77,0,0,0,0,.46h0v-.06a1,1,0,0,0,0-.42Z"/><path class="cls-13" d="M202.63,30.55a2.16,2.16,0,0,1-.29.51,2.9,2.9,0,0,0,.2.87,4.67,4.67,0,0,0,.38-.6,1.87,1.87,0,0,0,0-1C202.87,30.19,202.73,30.28,202.63,30.55Z"/><path class="cls-5" d="M202.45,32.42,202.3,32a2.41,2.41,0,0,1-.19-1v0a.82.82,0,0,1,.12-.2.76.76,0,0,0,.15-.28h0c.1-.29.26-.46.45-.46a.31.31,0,0,1,.29.16v.05a2.32,2.32,0,0,1,0,1.17,3.64,3.64,0,0,1-.43.67Zm.12-1.29a2.38,2.38,0,0,0,.05.26s0-.09.08-.14a1.58,1.58,0,0,0,.05-.38l-.1.15Z"/><path class="cls-14" d="M218.15,13.74h0a7,7,0,0,0-1-.78,10,10,0,0,0-4.84-1.56v.18a2.24,2.24,0,0,0-.34-.27,2.76,2.76,0,0,1,.63-.1c.53,0,.58-.32.73-.87a1.6,1.6,0,0,0,1.21-.18A.93.93,0,0,0,214.91,9c-.34-.18-.22-.35-.22-.35s.18-.09.75.53a6.5,6.5,0,0,1,3.05,2.71,2,2,0,0,1,0,2.21A3,3,0,0,0,218.15,13.74Z"/><path class="cls-15" d="M212.06,11.38a11,11,0,0,1,5,1.58,7,7,0,0,1,1,.78,1.19,1.19,0,0,1-.53.09,8.55,8.55,0,0,1-3-.75l-.16-.06a4.64,4.64,0,0,0-1.11-.15,2.49,2.49,0,0,0-1-1.29C212.18,11.54,212.06,11.43,212.06,11.38Z"/><path class="cls-13" d="M159.22,54.85l-.44-.27-.63.09V54.3l-.29-.18h-.43l.29-.51-1.45.42-.73-.28v-.27l-.82.27h-1.3v-.69l-.92.51h-.73l.39-.6-1.55.37.39-.69-.92.27-.19-.69L147,54l.63.09.82-.27h1l.82-.19-.09.28.91-.09s.05.27.2.27a10,10,0,0,1,1.54.09,4.74,4.74,0,0,0,.83-.27l.91.27a1.82,1.82,0,0,1,.92.19c.44.37.92.73,1.36,1l1.64-.18L159,55Z"/><rect class="cls-6" x="64.32" y="97.72" width="25.04" height="0.92"/><rect class="cls-6" x="259.5" y="97.72" width="25.04" height="0.92"/><path class="cls-16" d="M95.9,92.4h2l6.47,9.91-.33.23V92.4h2.24v12.87h-2.07l-6.43-9.68.31-.23v9.91H95.9Z"/><path class="cls-16" d="M115,92.4h2l5.08,12.88h-2.47L116,95l-3.63,10.31H109.9Zm-2.38,8.41h7v1.65h-7Z"/><path class="cls-16" d="M123.7,92.4h10.09v1.66H123.7Zm3.9,1.06h2.29v11.82H127.6Z"/><path class="cls-16" d="M139.16,105a3.49,3.49,0,0,1-1.67-1.33,3.79,3.79,0,0,1-.57-2.12V92.4h2.3v9.17a1.93,1.93,0,0,0,.67,1.58,3,3,0,0,0,1.92.55,3,3,0,0,0,1.94-.55,1.92,1.92,0,0,0,.69-1.58V92.4h2.29v9.1a3.72,3.72,0,0,1-.58,2.12,3.49,3.49,0,0,1-1.67,1.33,6.87,6.87,0,0,1-2.67.46A6.76,6.76,0,0,1,139.16,105Z"/><path class="cls-16" d="M151.37,92.39h2.3v12.89h-2.3Zm1,5.79h4.45A2.75,2.75,0,0,0,158,98a1.62,1.62,0,0,0,.73-.6,1.64,1.64,0,0,0,.25-.9V95.8a1.8,1.8,0,0,0-.25-.93,1.64,1.64,0,0,0-.73-.61,2.68,2.68,0,0,0-1.11-.21h-4.45V92.39h4.3a7,7,0,0,1,2.45.4,3.47,3.47,0,0,1,1.6,1.15,2.85,2.85,0,0,1,.56,1.77v.76a3,3,0,0,1-.56,1.79,3.6,3.6,0,0,1-1.6,1.16,6.55,6.55,0,0,1-2.45.41h-4.3Zm3.76,1.25,2.23-.4,3.52,6.25H159.3Z"/><path class="cls-16" d="M166.33,92.4h2.29v12.88h-2.29Zm1.15,0h7.92v1.66h-7.92Zm0,5.66h7v1.65h-7Zm0,5.56h7.92v1.66h-7.92Z"/><path class="cls-16" d="M185.4,92.4h10.09v1.66H185.4Zm3.89,1.06h2.3v11.82h-2.3Z"/><path class="cls-16" d="M201,104.93a4,4,0,0,1-1.77-1.39,3.66,3.66,0,0,1-.61-2.11V96.25a3.67,3.67,0,0,1,.61-2.12A3.93,3.93,0,0,1,201,92.75a7.81,7.81,0,0,1,5.39,0,3.88,3.88,0,0,1,1.77,1.38,3.67,3.67,0,0,1,.61,2.12v5.18a3.66,3.66,0,0,1-.61,2.11,3.89,3.89,0,0,1-1.77,1.39,7.81,7.81,0,0,1-5.39,0Zm4.16-1.5a2.15,2.15,0,0,0,1-.77,2.09,2.09,0,0,0,.33-1.18V96.2a2.09,2.09,0,0,0-.33-1.18,2.15,2.15,0,0,0-1-.77A3.66,3.66,0,0,0,203.7,94a3.71,3.71,0,0,0-1.47.27,2.24,2.24,0,0,0-1,.77,2.1,2.1,0,0,0-.34,1.18v5.28a2.1,2.1,0,0,0,.34,1.18,2.24,2.24,0,0,0,1,.77,3.71,3.71,0,0,0,1.47.27A3.66,3.66,0,0,0,205.16,103.43Z"/><path class="cls-16" d="M215.25,105a3.49,3.49,0,0,1-1.67-1.33,3.79,3.79,0,0,1-.57-2.12V92.4h2.3v9.17a1.93,1.93,0,0,0,.67,1.58,3,3,0,0,0,1.92.55,3,3,0,0,0,1.94-.55,1.91,1.91,0,0,0,.68-1.58V92.4h2.3v9.1a3.72,3.72,0,0,1-.58,2.12,3.49,3.49,0,0,1-1.67,1.33,6.9,6.9,0,0,1-2.67.46A6.76,6.76,0,0,1,215.25,105Z"/><path class="cls-16" d="M227.46,92.39h2.3v12.89h-2.3Zm1,5.79H233a2.75,2.75,0,0,0,1.11-.21,1.59,1.59,0,0,0,.72-.6,1.56,1.56,0,0,0,.25-.9V95.8a1.71,1.71,0,0,0-.25-.93,1.56,1.56,0,0,0-.72-.61,2.68,2.68,0,0,0-1.11-.21H228.5V92.39h4.3a7,7,0,0,1,2.45.4,3.53,3.53,0,0,1,1.6,1.15,2.92,2.92,0,0,1,.56,1.77v.76a3,3,0,0,1-.56,1.79,3.63,3.63,0,0,1-1.61,1.16,6.46,6.46,0,0,1-2.44.41h-4.3Zm3.76,1.25,2.23-.4,3.52,6.25h-2.63Z"/><path class="cls-16" d="M245.15,105.41l-1.05-.31a4.57,4.57,0,0,1-1.75-.93,3.33,3.33,0,0,1-1-1.49l2.21-.71a2.42,2.42,0,0,0,1.06,1.31,3.59,3.59,0,0,0,1.86.46,4.09,4.09,0,0,0,2.11-.45,1.4,1.4,0,0,0,.75-1.27v-.57a1.27,1.27,0,0,0-.38-.94,2.62,2.62,0,0,0-1-.56c-.41-.12-.94-.26-1.59-.4l0,0h0l-.14,0a15.75,15.75,0,0,1-2.28-.61,3.64,3.64,0,0,1-1.5-1,2.66,2.66,0,0,1-.61-1.86v-.38a2.92,2.92,0,0,1,.58-1.83,3.76,3.76,0,0,1,1.72-1.15,8.49,8.49,0,0,1,2.74-.39,6.8,6.8,0,0,1,2.11.3,4.12,4.12,0,0,1,1.56.89,3.52,3.52,0,0,1,.93,1.42l-2.14.73a2.49,2.49,0,0,0-.95-1.24,2.68,2.68,0,0,0-1.51-.43,4,4,0,0,0-2.05.44,1.38,1.38,0,0,0-.72,1.25V96a1.19,1.19,0,0,0,.41,1,2.82,2.82,0,0,0,1,.56c.4.13,1,.27,1.66.42l.11,0,.09,0,.11,0,.1,0a16.38,16.38,0,0,1,2.12.61,3.49,3.49,0,0,1,1.41,1,2.62,2.62,0,0,1,.57,1.78v.6a2.84,2.84,0,0,1-.6,1.83,3.78,3.78,0,0,1-1.76,1.16,8.77,8.77,0,0,1-2.79.39Z"/></g></g></svg>