<svg xmlns="http://www.w3.org/2000/svg" xmlns:xlink="http://www.w3.org/1999/xlink" viewBox="0 0 721.55 235.21"><defs><style>.cls-1,.cls-2{fill:none;}.cls-1{clip-rule:evenodd;}.cls-3{isolation:isolate;}.cls-14,.cls-4{fill:#010101;}.cls-5{fill:#f1be1a;}.cls-10,.cls-11,.cls-13,.cls-14,.cls-5,.cls-7,.cls-8,.cls-9{fill-rule:evenodd;}.cls-6{clip-path:url(#clip-path);}.cls-7{fill:#f99e28;}.cls-12,.cls-8{fill:#040406;}.cls-9{fill:#0d1014;}.cls-10{fill:url(#Degradado_sin_nombre_2);}.cls-11{fill:#f6fcfe;}.cls-13{fill:#f7f9fd;}.cls-15{fill:#e3e6ea;}.cls-16{fill:#b2b2b2;}</style><clipPath id="clip-path"><path class="cls-1" d="M387.13,152.11l-1.7,5.5s3,5.4,6.4,11.6,4.6,9.4,4.7,11.4a3.08,3.08,0,0,0-1.7,2.1c-1.8,1.2-2.5,1.7-3,2.5-1.3.3-1.2.9-1.1,1.3,1.5.4.9,1.8.4,3,0,2.1,4,1,4.4.2,2.2-.1,3.1-1.4,3.2-2.3.2-.6-.1-2.1,1.9-2.8,3-1.4,4.4.6,5.1.6.6.9,3.6,1.2,4,.8,2.2,1.8,5.7.2,5.4-1s-2.3-2.7-.1-3.2c2.6-.7,4.7,1.7,4.7,1.7l1.7.2c2.6.3,3.4-3.4,3.4-3.4l-1.3-.6a5.67,5.67,0,0,1-1.3-.8c-.8-1.2.4-1.4.4-1.9-1.4-.6-4.8,1.1-6.1,2.1-1.5,0-2.4.6-3.4.6.4-.3-.1-1.1-.6-2.5-.7-.7-2.8,0-4,1.1s-4.2,1.5-4.2,1.5-3.4-4.4-5.5-7.6c-3.4-5.4-8.3-16.5-8.3-16.5Z"/></clipPath><linearGradient id="Degradado_sin_nombre_2" x1="372.42" y1="72.64" x2="401.98" y2="80.01" gradientTransform="translate(817.59 101.21) rotate(180)" gradientUnits="userSpaceOnUse"><stop offset="0" stop-color="#f1be1a"/><stop offset="0.46" stop-color="#f99e28"/><stop offset="1" stop-color="#f99e28"/></linearGradient></defs><title>CARACARA BRANDRecurso 1</title><g id="Capa_2" data-name="Capa 2"><g id="Capa_1-2" data-name="Capa 1"><rect class="cls-2" y="101.51" width="314.1" height="77.7"/><rect class="cls-2" x="398.7" y="101.51" width="317.7" height="80"/><g class="cls-3"><path class="cls-4" d="M71.59,146.41l-1.34,17.27c-5.79,9.47-15.63,16.38-30.91,16.38C16.34,180,.06,164.22.06,139.91.06,116,15.79,100,40,100a47,47,0,0,1,26,7.43l2.22,15.53h-.92C64,110.1,53.19,103.28,40,103.27c-19.34,0-31.66,14.63-31.66,36.52,0,22.11,12.54,36.52,31,37,15.62,0,28.84-7.82,31.34-30.35Z"/><path class="cls-4" d="M146,170.49c2.22,4.89,6.29,6.92,9.66,6.92h.92v1.1H131.81v-1.09h1c2.84,0,5.78-2.5,4.18-6.9l-7-18.74H100.29l-7.36,18.81c-1.56,4.36,1.37,6.83,4.2,6.83h1v1.09H76v-1.09h1c3.34,0,7.41-2,9.63-6.92l25-59.2s4.07-8.91,4.07-11.33h1Zm-17.32-22-13.26-35.3-13.83,35.3Z"/><path class="cls-4" d="M191.65,101.51c13.33,0,21.5,7.86,21.5,20.68,0,10.65-8.11,21-18.69,21,2.36,1.09,5.74,4.73,7.87,7.74,0,0,9.49,13.54,13.74,18.19,4.43,4.84,8.5,8.27,15,8.32v1.1h-6c-10.24,0-15.73-5.51-19.19-9.64-1.25-1.49-13.65-19.53-14.49-20.59-2.88-3.61-6.09-7.42-10.11-7.42v-1s2.51,0,5.82,0c5.7-.15,14-1.51,17.17-11.42a23.13,23.13,0,0,0,.7-6.58c-.28-10-5.46-16.33-13.65-16.77-5.61-.31-12.27,0-13.69-.09V170.5a7,7,0,0,0,7,6.92H186l0,1.1H162l0-1.1h1.39a7,7,0,0,0,7-6.87v-61a7,7,0,0,0-7.05-6.91H162v-1.1Z"/><path class="cls-4" d="M295.49,170.49c2.22,4.89,6.29,6.92,9.66,6.92h.92v1.1H281.3v-1.09h1c2.84,0,5.78-2.5,4.18-6.9l-7-18.74H249.78l-7.37,18.81c-1.55,4.36,1.38,6.83,4.21,6.83h1v1.09H225.44v-1.09h1c3.35,0,7.41-2,9.64-6.92L261,111.3s4.08-8.91,4.08-11.33h1Zm-17.32-22-13.26-35.3-13.84,35.3Z"/></g><g class="cls-3"><path class="cls-4" d="M487.07,146.41l-1.34,17.27c-5.8,9.47-15.64,16.38-30.91,16.38-23-.11-39.29-15.84-39.29-40.15,0-23.87,15.73-39.93,39.93-39.93a47,47,0,0,1,26,7.43l2.22,15.53h-.91c-3.35-12.84-14.13-19.66-27.35-19.67-19.34,0-31.66,14.63-31.66,36.52,0,22.11,12.54,36.52,31,37,15.62,0,28.83-7.82,31.33-30.35Z"/><path class="cls-4" d="M561.47,170.49c2.23,4.89,6.3,6.92,9.67,6.92h.92v1.1H547.29v-1.09h1c2.84,0,5.79-2.5,4.18-6.9l-7-18.74H515.77l-7.37,18.81c-1.55,4.36,1.38,6.83,4.21,6.83h1v1.09H491.43v-1.1h1c3.35,0,7.41-2,9.64-6.91L527,111.3s4.08-8.91,4.08-11.33h1Zm-17.31-22-13.26-35.3-13.84,35.3Z"/><path class="cls-4" d="M607.12,101.51c13.33,0,21.5,7.86,21.5,20.68,0,10.64-8.11,21-18.68,21,2.36,1.09,5.74,4.73,7.87,7.74,0,0,9.48,13.54,13.74,18.19,4.42,4.84,8.5,8.27,15,8.32v1.1h-6c-10.23,0-15.73-5.51-19.19-9.64-1.25-1.49-13.64-19.53-14.49-20.59-2.87-3.61-6.08-7.42-10.1-7.42v-1s2.5,0,5.81,0c5.71-.15,14-1.51,17.17-11.42a22.46,22.46,0,0,0,.7-6.59c-.27-9.94-5.45-16.32-13.64-16.76-5.61-.31-12.27,0-13.7-.09V170.5a7.05,7.05,0,0,0,7.05,6.92h1.39l0,1.1h-24v-1.1h1.4a7,7,0,0,0,7-6.87v-61a7.05,7.05,0,0,0-7-6.91h-1.39l0-1.1Z"/><path class="cls-4" d="M711,170.49c2.23,4.89,6.29,6.92,9.67,6.92h.92v1.1H696.78v-1.09h1c2.84,0,5.79-2.5,4.18-6.9l-7-18.74H665.26l-7.37,18.81c-1.55,4.36,1.38,6.83,4.2,6.83h1v1.09H640.92v-1.1h1c3.34,0,7.41-2,9.64-6.91l24.94-59.2s4.07-8.91,4.07-11.33h1Zm-17.31-22-13.26-35.3-13.84,35.3Z"/></g><path class="cls-5" d="M387.22,152.11l-1.7,5.5s3,5.4,6.4,11.6,4.6,9.4,4.7,11.4a3.08,3.08,0,0,0-1.7,2.1c-1.8,1.2-2.5,1.7-3,2.5-1.3.3-1.2.9-1.1,1.3,1.5.4.9,1.8.4,3,0,2.1,4,1,4.4.2,2.2-.1,3.1-1.4,3.2-2.3.2-.6-.1-2.1,1.9-2.8,3-1.4,4.4.6,5.1.6.6.9,3.6,1.2,4,.8,2.2,1.8,5.7.2,5.4-1s-2.3-2.7-.1-3.2c2.6-.7,4.7,1.7,4.7,1.7l1.7.2c2.6.3,3.4-3.4,3.4-3.4l-1.3-.6a5.67,5.67,0,0,1-1.3-.8c-.8-1.2.4-1.4.4-1.9-1.4-.6-4.8,1.1-6.1,2.1-1.5,0-2.4.6-3.4.6.4-.3-.1-1.1-.6-2.5-.7-.7-2.8,0-4,1.1s-4.2,1.5-4.2,1.5-3.4-4.4-5.5-7.6c-3.4-5.4-8.3-16.5-8.3-16.5Z"/><g class="cls-6"><path class="cls-7" d="M385.43,156.77s-1.3-4.8,2.7.9,10,19,11,21.8c.1,1.9-1.3,2.6-4.2,4.5-2.07,1.41-2.4,1.7-2.4,1.7s1.56-1.36,1.84-1.65a4.59,4.59,0,0,0,.56-1l1.7-2.49-1.1-2.8-8.9-19.1Z"/></g><path class="cls-8" d="M435.63,26.71l-9.7,5.7-1.3,5.9.9,3.6,2.5.4-.2-3.2.9,1.3-.4-4.2,2.3,2.5-1.9-3.6,1.3,1.1-.6-1.7,2.1,3-.9-2.8,1.7,1.1s-.8-1.1-1.9-2.7a2.9,2.9,0,0,0,1.5.6c-.4-.7-1-.9-.8-1.5,1.3-.3,1.5,1.1,1.5,1.1v-1.5l.9,1.1-.4-1.5.6.6s0,.8-.2-.8,1.9,0,1.9,0l-2.1-1.5,2.3.8-1.3-1.1h1.1l3,2.3-1.9-2.1,1.3.2-1.1-.9,1.5.8-1.5-1.7,2.7,1.7a6.55,6.55,0,0,0-1.1-1.7c-1.1-1.3-.7-.8,1.9.9s-.6-1.7-.6-1.7Z"/><path class="cls-9" d="M318.93,175.11c-1.4-1.7-.7-3-.2-4.2.3-.6.6-1.2.9-1.7,0,0-.1,0,0-1.5s-.6-1.3-.9-1.1a6.13,6.13,0,0,0-2.1,7.2c1.2,3.5,5.3,4.2,5.7,4.1A8.14,8.14,0,0,1,318.93,175.11Z"/><g id="Shape_48_copy_2" data-name="Shape 48 copy 2"><path class="cls-9" d="M415.23,184.71c1.1-.7,3.3.6,4.8,2.7s1.6,3.7,2.1,3.4c.5-4.7-2.5-8.4-5-9.1-1.9-.5-3.8.4-3.1,1.2A1.58,1.58,0,0,0,415.23,184.71Z"/></g><g id="Shape_48_copy_4" data-name="Shape 48 copy 4"><path class="cls-9" d="M336.23,189.71c.9-.6,2.8.5,4,2.2s1.3,3.1,1.8,2.9c.4-3.9-2.1-7-4.2-7.6-1.6-.4-3.2.3-2.6,1A1.33,1.33,0,0,0,336.23,189.71Z"/></g><path class="cls-9" d="M422.73,179.31c1.4.9,1,.4,1.7,1.3,1.9-1.6,5.5.9,5.5.9a4.77,4.77,0,0,0-2-3c-3.2-2.2-5.4-1.3-5.4-1.3C420.53,178.21,422.13,178.91,422.73,179.31Z"/><path class="cls-9" d="M391.13,190q-2,.3-1.5,4.2c.2,2.5,1.3,3.8.8,4-3.6-3.1-2.8-7.4-2.1-9.3s3.3-2.9,3.6-2.3a2,2,0,0,1-.6,2.5A2.92,2.92,0,0,1,391.13,190Z"/><g id="Shape_47_copy" data-name="Shape 47 copy"><path class="cls-9" d="M412.13,179.11c1.3,1.1.9.6,1.5,1.5,2.1-1.2,5.3,1.7,5.3,1.7a4.82,4.82,0,0,0-1.5-3.2c-2.9-2.6-5.1-2.1-5.1-2.1C410.23,177.61,411.63,178.51,412.13,179.11Z"/></g><path class="cls-10" d="M444.33,22,442,25l-.9,3-3,.4-2.8.2-1.7,1.5-2.8,2.1-4,2.8-5.7-1.1-1.9-6.1-3.4-5.1,3-5.3,5.1-1.5s-.5-1.6,3.2-2.3,5.5,2.8,5.5,2.8,3.9-1.2,6.8-.6,5.9,4.4,5.9,4.4Z"/><path class="cls-8" d="M413.53,18l4.4-3.4,9.5-2.3s13.1,5.8,14.8,6.8c1.4-.8,1.6-1.6,1.5-1.9-.3.5-1.8,1.3-1.1.6s.8-1.2.6-1.7c0,.5-.3.6-.8.6a4.19,4.19,0,0,0,.4-1.5,2,2,0,0,1-1.1,1.3s.2,0,.4-.9a2,2,0,0,0,0-1.7l-.6.8v-.6l-.6.4v-1.6l-.9.8v-1.3l-1.3.5.2-1.5-1.5.4.8-.9-.6-.2-.2-.4-.8.4.2-.9-1.1.4v-.8l-1.3-.6-.8.2V7.51l-1.3-.2.6-.8a10.91,10.91,0,0,1-1.1.6c-.1,0-.6-.8-.6-.8l-1.1.8v-.9s-.2,0-.8.6a3.05,3.05,0,0,1,0-1.7s-.4-.1-.8.9-.3,0-.6.6a15.52,15.52,0,0,1,.4-2.1l-1.3.9.4-1.3-.9.8-.4-1.1-.8.4-.4-2.3-.9,1.3a6.69,6.69,0,0,1-.9-1.5,3.93,3.93,0,0,1-.4,1.3s-.1,0-.4-.4a9.59,9.59,0,0,1-.8,4.5c.7-2,.2-2.8-.4-4.2a2.81,2.81,0,0,1-.6,1.5,6.16,6.16,0,0,0-1.1-2.5v3.8l-2.1-2.5.9,2.8-2.3-2.3.4,1.3-1.1-.8s1,1.5,1.7,2.7a6.47,6.47,0,0,1-2.5-1.9v.8h-.6l-1.3-.9.4,1.7-.9.2.9.6a1.2,1.2,0,0,0-.8.2,1.76,1.76,0,0,1,1.3.9h-1.3c.4.5.9,1.1.9,1.1a8.3,8.3,0,0,1-2.1-.6,5.53,5.53,0,0,0,2.7,2.5c-1.4.6-2.7.3-3.2.9,1.2-.3,2.4-.3,2.7,1.3-2.9-.3-4.2.3-4.7,1.1,2.3-.6,1.9.8,1.9.8Z"/><path class="cls-8" d="M431.13,13.51s-5.4-.5-11-.9-5.1-5.4-5.9-8.5c1.8.6,6.3,4.7,6.3,4.7a8.68,8.68,0,0,1-2.7-4.5c1.9,2.7,2.1,2.5,2.1,2.5s.8.6.2-3,1.5,3,1.5,3-1.1-10.4.4-5.5a47.72,47.72,0,0,1,1.5,5.3,19.93,19.93,0,0,1,.6-4.9c-.2,3,.9,3.5,4.2,5.7s2.1-1.3,6.3,3.2,1.3,5.9,1.3,5.9"/><path class="cls-5" d="M336.93,188.11c-.6.9-.1.9.2,1.5.1.6-.2.8-.6.8-.9,0-2.1-.4-4-2.8a4.63,4.63,0,0,0-2.1-.8,9.82,9.82,0,0,1-2.5-2.5c-1.2.1-3.7-1.8-3.6-3.6a4.15,4.15,0,0,1,.4-1.3s-.9-1.1-.9-1.5c-.1-1.5.5-1.3.6-2.1.1-.5.1-2.7,1.9-4-1.2-.3-2.8-2-1.9-2.8a1.81,1.81,0,0,1-1.7-.2c-.2.8-.6,2.4-3.2,1.5a1.25,1.25,0,0,1-.6-1.1s.3-2.3-.4-2.5c-.2-.7,0-1.9,1.3-1.7a1.68,1.68,0,0,1,2.1-.6c.6-.1,1.5-.2,1.9.4.7,0,2.6.1,2.8.9a3.1,3.1,0,0,1,1.3-.6c.9-1.9,1.8-4.1,5.3-15,1.3-4.1,2.8-8.7,2.8-8.7l4,2.3v2.1s-2.5,7-4,11.9a90,90,0,0,0-2.5,12.9c-.6,2-5.4,10.4.9,13.5,1.3.1,3.1,1.7,3.2,2.7C337.53,187.71,337.53,187.21,336.93,188.11Z"/><path class="cls-7" d="M332.73,164.51c.8-3.8,5.6-18.6,5.6-18.6l2.3,1.3s-3.4,9.4-4.7,12.9-.5,9.3-1.7,11.7a17.52,17.52,0,0,0-2.3,6.4c-.5,2.9.5,6.3,1.3,6.6-.2.9-.2.7-.4,1.5-.7,0-.5.1-.6.9a7.64,7.64,0,0,0-2.5-.4c1.3-3.1,0-4.9.4-4.4.5-1.7-.5-2-.9-2.7.3-.9-.4-1.6-.9-1.3.3-1.1.8-2.8.8-2.8a15.8,15.8,0,0,1,1.1-2.5c.7-1.3,1.8-1.9,2.2-3.1A30.88,30.88,0,0,1,332.73,164.51Z"/><path class="cls-11" d="M386.43,115.61l-8.7-.9-26-4.5-26.5,2.3-22.7,9.7-17.1,10.2,7.8,3.6,10.4-1.9,18.9.6,8.3.8-.9.9,1.7.9h-1.1l-.6,2.8a3.49,3.49,0,0,1,1.7.6c.9,1.9.8,3.5,1.5,4.2,1.2,4.5,2.3,2.5,3,3.4,2.8-1.9,2.2,0,3.4-.9,2.6-1.8,2.5-3,2.5-3l2.1-1.5,5.1-4,8.9-3a92.68,92.68,0,0,0,8.9-2.7c-.4,6.3-.9,6.7-2.7,8.7,1.5-.2,1.5-.6,2.3-.8-.2.6-1.9,1.2-3.4,1.5a23.25,23.25,0,0,0,3.6.8l-1.7.6s0,.1,2.3,5.1,5.1,7,5.1,7l.9-2.8v3.4s1.2-1.1,4-4a30.76,30.76,0,0,0,3,9.7,19.09,19.09,0,0,1,1.9-2.7c.6-1.4,1.9,0,1.9,0l.9-.2.2.9,1.1-.6a4.15,4.15,0,0,1,.4,1.3c1.6-1.5,1.5-2.3,1.5-2.3a14.17,14.17,0,0,1-.2,2.1c.3-.3.6,0,1.1-1.9a9.53,9.53,0,0,0,1.1,3.6,9.9,9.9,0,0,1,.6-4.4,11.91,11.91,0,0,0,2.5,3.6,32.39,32.39,0,0,1-1.7-3.2,9.23,9.23,0,0,1,0-3.8,204.13,204.13,0,0,1,5.3-21.4,161,161,0,0,1,6.3-16.5Z"/><path class="cls-8" d="M401.63,106.71l-15.5,2.7s-29.8,10.7-31.9,12.7c0,1.9,2.7,3,6.4,1.9a27.26,27.26,0,0,1,7.4-1.1c2.2-.3,6.9-.4,9.8-.6s4.6-1.6,5.3-1.7c-.4,10.5-18.8,12.2-27,15s-11.7,2.3-12.1,4.2-2.6,5.2-1.9,4.9c3.1-2.8,4.9-1.7,5.9-1.9,1.8-2,5.6-4.4,9.6-6.1s9.2-2.8,10.4-2.7a40.75,40.75,0,0,0,2.3,8.1c.8-2.1-.1-1.8,4.9-6.4s17.1-14.1,20.8-15.3c6-1.7,5.5-3.6,5.5-3.6Z"/><path class="cls-12" d="M342.05,145.23a.53.53,0,0,1-.4-.17c-.34-.36-.12-.78.53-2a13.55,13.55,0,0,0,1.35-3.29c.31-1.44,1.73-1.76,4.55-2.41a72.45,72.45,0,0,0,7.89-2.18c1.78-.61,4-1.17,6.45-1.76,8.57-2.12,19.16-4.73,20.14-12l-.15.07a11.53,11.53,0,0,1-4.55,1.36c-1.06.07-2.38.14-3.72.2-2.3.1-4.67.21-6,.4-.55,0-1,.07-1.51.1a21.45,21.45,0,0,0-5.82,1c-2.45.73-4.69.58-6-.39a2.46,2.46,0,0,1-1-2v-.21l.15-.15c2.12-2,29-11.71,32.08-12.81l16.17-2.82-.1,10.64c.09.55,0,2.48-5.86,4.13-3.49,1.13-15.4,10.3-20.6,15.19-4,3.67-4.12,4.12-4.45,5.22-.08.28-.17.59-.32,1l-.46,1.21-.48-1.21a34.9,34.9,0,0,1-2.11-7.2c0-.23-.07-.42-.11-.58a39,39,0,0,0-9.82,2.66c-4,1.69-7.68,4-9.42,6l-.11.12-.16,0a3.28,3.28,0,0,1-1,0c-1-.09-2.47-.21-4.68,1.78l-.13.09A.64.64,0,0,1,342.05,145.23Zm41.6-25.2,0,.6c-.33,8.62-11.78,11.45-21,13.72-2.38.59-4.63,1.14-6.37,1.74a76.39,76.39,0,0,1-8,2.21c-2.58.58-3.63.85-3.79,1.61a13.26,13.26,0,0,1-1.35,3.37,5.76,5.76,0,0,1,4.06-1l.56,0c1.88-2,5.63-4.38,9.64-6.09s9.25-2.87,10.64-2.74l.33,0,.1.31a9.24,9.24,0,0,1,.24,1.06,31,31,0,0,0,1.55,5.69c.34-1,.89-1.84,4.6-5.26,4.66-4.37,17-14.11,21-15.4,4.38-1.24,5.22-2.61,5.17-3l0-.07v0l.09-9.5-14.91,2.59c-11.5,4.14-29.09,10.76-31.46,12.44a1.44,1.44,0,0,0,.62,1c.81.6,2.58,1,5.12.23a22.29,22.29,0,0,1,6.05-1c.46,0,.93-.05,1.44-.1,1.4-.19,3.8-.3,6.12-.4,1.33-.06,2.63-.12,3.69-.2a10.75,10.75,0,0,0,4.18-1.25,3.91,3.91,0,0,1,1.09-.44Z"/><path class="cls-8" d="M330.83,133.81c-1.8.2-3.2-1-4.2-2.3-6.3,2.1-7.5-3.4-7.6-4-2.1,1.2-11.4,4.2-11.4,4.2l3.2-3.6-4.9,4,.4-1.3-1.6,1.1.2-.8-2.3,1.3.2-1.1-1.7,1.5-1.9.8s0-.5,1.3-1.9a24.9,24.9,0,0,0-3,1.9c-2.2,0-5.7.4-5.7.4a3.89,3.89,0,0,1,.2-1.5c.9-.9,4.7-2.1,4.7-2.1l.8-1.1,5.7-1.7-.8-3.2,2.7-6.6a23.48,23.48,0,0,0-10.8,2.7,43.07,43.07,0,0,1-6.8,5.3,242.09,242.09,0,0,0-22.7,15.3c-8.3,6.6-7.7,8.3-7.2,10.9-3.5,2.4-3.7,2-3.4,2.8,1.1,1.7,2.8,4,2.8,4s43.3-22.2,46.6-24.1c1.9,2.4,1.9,2.3,4,2.3a10.28,10.28,0,0,1,7,1.9c3.4-1,4.4-.6,6.8-.8s7.4-1.2,9.3-2.5C330.53,134.91,330,134.41,330.83,133.81Z"/><path class="cls-8" d="M428.23,30.91c-1.4-2.5-3.3-1.9-4.2-.9-.9-1.9-.9-4.1-1.1-6.3.2-3.6-1.4-1.8-2.8-2.1-2.5-.7-1.6-1.4-1.3-1.9a6.47,6.47,0,0,1,3.8-2.5,4.46,4.46,0,0,0,3.6-1.1c3-2.3,3.8-1.4,4.4-.9,2.2,2.8,6.6,2.1,9.7,1.7s-4.3-4.9-5.7-6.1c-16.3-10.4-19.9-1.4-22.5.9s-4.7,7-4.7,7a72.58,72.58,0,0,0-4.9,6.1c-3.4,5.4-7.4,10.6-11.2,13.8-12,11.4-6.2,6.2-4.7,5.7a56.71,56.71,0,0,1-12.5,13.8c-6.7,3.9-11.1,5.5-17.6,10a156,156,0,0,0-18.8,16.3A58.25,58.25,0,0,1,321,95.61c-21.6,10.4-22.4,13.5-25.2,17.1a22.06,22.06,0,0,0-1.3,7.6,59.85,59.85,0,0,1-8.9,6.4c-5.9,3.6-12.3,7.7-14.2,9.3a55,55,0,0,0-12.5,9.9s1.1-.6,15.9-8.1,40.3-12.7,47.2-14.2,29.7-11.3,23.7-8.1c4,10.4,16,8.1,17.8,7.2,9.7-.1,16.1-1.1,17.8-2.1,2.8.1,4.3-.6,6.4-1.1s1.3.8,2.3,1.7c-8.6,6.5-5.5,5.2-2.8,3.4s5.8-3.9,8.3-4.4c5.3-.9,5-.7,6.6-2.7-1.2,3.6-1.8,3.9-2.5,6.6.4-1.2,1-2,2.3-5.1a11.48,11.48,0,0,0-.8,4.5s2.8-8.1,7.2-13.1a151.25,151.25,0,0,0,9.9-12.7c4.3-2.8,6-4.2,7-7.4-.3,1.8,0,2.1-.6,5.5,3.2-6.8,2.9-7,3.8-11.7s.2-11.2-1.1-16.1c-1.9-4.5-2.1-11.5-1.9-12.9s.6-7.2.6-7.2,1.1-.1.2,3.6c1.2-3.3,2.2-7.4.8-11.4-.4-2.1-1.7-3.2,3.6-7.2,1.1-.6,3.8-2.5,4.7-4.2C433.93,30.41,429.23,31.21,428.23,30.91Z"/><polygon class="cls-13" points="275.53 148.01 278.03 145.91 267.83 151.01 270.53 148.91 271.63 148.01 269.93 148.21 274.13 146.11 272.63 145.91 273.93 145.31 273.13 144.71 270.33 144.71 252.93 154.61 255.03 159.31 262.03 154.81 262.63 155.21 294.63 139.31 275.53 148.01"/><path class="cls-9" d="M328.23,188.71c-1.2.5-3.1-.6-3.2-1.3,2.2,1.2,2.7-.4,2.9-1.1a5.81,5.81,0,0,0,.2-2.9c-.3-.7-.2-2,.8-2C330.83,181.51,330.83,187.51,328.23,188.71Z"/><path class="cls-11" d="M386.73,110.31l-4.3,2.1s-3.5,2.2-5.5,3.8c.5,1.2,4.2.3,6.6-.8a6.77,6.77,0,0,0,3.2-4Z"/><path class="cls-12" d="M378.37,117.28a3.26,3.26,0,0,1-1.14-.17,1.3,1.3,0,0,1-.76-.71l-.15-.34.3-.24c2-1.6,5.4-3.74,5.54-3.83l5.07-2.48,0,2a7.25,7.25,0,0,1-3.47,4.33A15.14,15.14,0,0,1,378.37,117.28Zm-.64-1.06c1,.26,3.49-.3,5.59-1.26a6.24,6.24,0,0,0,2.91-3.62v-.23l-3.58,1.75h0S379.72,114.71,377.73,116.22Z"/><path class="cls-11" d="M377.33,112.91a13.33,13.33,0,0,1-4.2,3.8c-2.3,1.1-4.3,1.6-4,2.5,1.4,2.3,8.1-1.9,8.1-1.9C379.13,113.21,377.33,112.91,377.33,112.91Z"/><path class="cls-12" d="M370.64,120.4a2.84,2.84,0,0,1-.72-.08,1.88,1.88,0,0,1-1.22-.85l-.05-.1c-.37-1.11,1-1.67,2.61-2.38.51-.21,1.07-.45,1.65-.73a12.93,12.93,0,0,0,4-3.64l.18-.25.31,0a1.42,1.42,0,0,1,.95.75c.47.9.24,2.36-.68,4.35l-.06.14-.13.08C377,118,373.17,120.4,370.64,120.4Zm6.81-6.81a13.15,13.15,0,0,1-4.11,3.57c-.59.29-1.16.53-1.68.75-.81.35-2,.86-2.06,1.13a.94.94,0,0,0,.55.31c1.67.38,5.27-1.52,6.69-2.38,1-2.2.78-3.06.63-3.33C377.46,113.62,377.46,113.6,377.45,113.59Z"/><path class="cls-11" d="M390.33,110.81s-2.2,2.8-3.2,3.8c-5.1,3.5-3,5.3-3.2,4.9,2.3-1.4,6.3-4,6.6-4.7a12,12,0,0,0,.9-4.4Z"/><path class="cls-12" d="M383.93,120.07a.61.61,0,0,1-.53-.35c-.23-.37-1.14-2.37,3.44-5.52.9-.91,3.07-3.67,3.09-3.7l.09-.11,1.87-.68,0,.67A12.66,12.66,0,0,1,391,115c-.41.94-4.82,3.72-6.42,4.71v0l-.41.28A.53.53,0,0,1,383.93,120.07Zm6.7-8.84c-.42.54-2.24,2.83-3.15,3.74-2.66,1.83-3.2,3.07-3.3,3.64a1,1,0,0,0,0,.17c3.05-1.88,5.65-3.72,5.9-4.17a13.29,13.29,0,0,0,.83-3.47Z"/><path class="cls-11" d="M400.93,112.11l.8-2.7a8.5,8.5,0,0,0-1.1,2.1c-.6,1.5-2.3,4.5-2.3,4.5l4.7-4.5Z"/><path class="cls-12" d="M398.67,116.37l-.78-.6s1.69-3,2.27-4.44a9.47,9.47,0,0,1,1.18-2.24l.87.46-.54,1.83,1.22-.35.48.84Zm2-3.66-.37.75,1-.91Z"/><g id="Shape_13_copy_82" data-name="Shape 13 copy 82"><path class="cls-11" d="M369.33,116.71c-1.6-.6.2-3.3.8-4.2,1-1.4,3.8-4.4,4.8-3.8.8.5,1.9,1.9.3,3.9C374.43,113.41,370.53,117.11,369.33,116.71Z"/></g><path class="cls-12" d="M369.49,117.24a1.13,1.13,0,0,1-.32,0h0a1.44,1.44,0,0,1-.89-.9c-.36-1.12.59-2.75,1.45-4,.05-.07,3.72-5,5.48-4a3,3,0,0,1,1.32,1.92,3.41,3.41,0,0,1-.89,2.72C374.54,114,371.17,117.24,369.49,117.24Zm0-1c.58.15,3.13-1.73,5.39-4a2.46,2.46,0,0,0,.64-1.9,1.87,1.87,0,0,0-.86-1.22c-.41-.25-2.7,1.67-4.12,3.66-1.05,1.57-1.5,2.64-1.33,3.17A.43.43,0,0,0,369.49,116.24Z"/><g id="Shape_13_copy_74" data-name="Shape 13 copy 74"><path class="cls-11" d="M380.23,114.21c-1.4-1,1.3-3.5,2.3-4.2,1.5-1.2,5.2-3.7,6-2.8.6.7,1.2,2.5-1.1,4.1C386.43,112,381.33,115,380.23,114.21Z"/></g><path class="cls-12" d="M380.74,114.83a1.33,1.33,0,0,1-1.41-1.37c0-1.75,2.88-3.84,2.91-3.86.52-.42,5.35-4.2,6.66-2.72a2.87,2.87,0,0,1,.65,2.21,3.82,3.82,0,0,1-1.84,2.63S383,114.83,380.74,114.83ZM388,107.5c-.71,0-3,1.21-5.14,2.9-1,.73-2.5,2.26-2.51,3.06a.41.41,0,0,0,.19.35h0c.64.46,4.89-1.69,6.62-2.91a2.94,2.94,0,0,0,1.42-1.94,1.86,1.86,0,0,0-.41-1.42A.29.29,0,0,0,388,107.5Z"/><g id="Shape_13_copy_81" data-name="Shape 13 copy 81"><path class="cls-11" d="M359.53,118.81c-2.1-1.2,2-4.2,3.4-5.1,2.2-1.4,7.9-4.5,9-3.4.9.8,1.8,3-1.6,5C368.83,116.21,361.23,119.81,359.53,118.81Z"/></g><path class="cls-12" d="M360.36,119.47a2.14,2.14,0,0,1-1.08-.23,1.47,1.47,0,0,1-.84-1.28c-.05-1.79,3.22-4,4.22-4.67.32-.2,7.94-5,9.62-3.33a3,3,0,0,1,1,2.45c-.09.86-.61,2.13-2.66,3.33C369.86,116.18,363.41,119.47,360.36,119.47Zm10.82-8.9c-1.27,0-4.87,1.58-8,3.56-1.84,1.19-3.78,2.92-3.76,3.81,0,.07,0,.25.34.44h0c1.31.77,8.35-2.33,10.29-3.5,1.34-.78,2.09-1.67,2.17-2.56a2,2,0,0,0-.64-1.63A.59.59,0,0,0,371.18,110.57Z"/><g id="Shape_13_copy_79" data-name="Shape 13 copy 79"><path class="cls-11" d="M368.33,113c-1.4-1,1.3-3.5,2.3-4.2,1.5-1.2,5.2-3.7,6-2.8.6.7.1,2.4-1.5,3.9C374.13,110.71,372.33,113.61,368.33,113Z"/></g><path class="cls-12" d="M369.4,113.59a7.86,7.86,0,0,1-1.15-.08l-.11,0-.1-.07a1.38,1.38,0,0,1-.61-1.16c0-1.75,2.88-3.84,2.91-3.86.52-.41,5.34-4.2,6.66-2.72.86,1,.2,3-1.53,4.6a6.58,6.58,0,0,0-.61.59A7.34,7.34,0,0,1,369.4,113.59Zm-.86-1c2.92.39,4.53-1.27,5.6-2.37a7.69,7.69,0,0,1,.68-.65c1.41-1.33,1.79-2.76,1.43-3.18s-3,1-5.31,2.86c-1,.73-2.5,2.26-2.51,3.06A.36.36,0,0,0,368.54,112.54Z"/><g id="Shape_13_copy_80" data-name="Shape 13 copy 80"><path class="cls-11" d="M352.73,117.41c-1.4-1,1.3-3.5,2.3-4.2,1.5-1.2,5.2-3.7,6-2.8.6.7.1,2.4-1.5,3.9C358.43,115.11,356.63,117.91,352.73,117.41Z"/></g><path class="cls-12" d="M353.63,118a8.27,8.27,0,0,1-1-.06l-.12,0-.1-.07a1.39,1.39,0,0,1-.61-1.16c0-1.75,2.88-3.84,2.91-3.86.52-.41,5.34-4.2,6.66-2.72.86,1,.2,3-1.53,4.6a8.3,8.3,0,0,0-.75.67A7.64,7.64,0,0,1,353.63,118Zm-.7-1a6.46,6.46,0,0,0,5.5-2.3,9.22,9.22,0,0,1,.8-.72c1.4-1.32,1.78-2.75,1.42-3.17s-3,1-5.31,2.86c-1,.73-2.5,2.26-2.51,3.06A.36.36,0,0,0,352.93,116.93Z"/><g id="Shape_13_copy_78" data-name="Shape 13 copy 78"><path class="cls-11" d="M373.13,108.91c-1.4-1,1.3-3.5,2.3-4.2,1.5-1.2,5.2-3.7,6-2.8.6.7,1.2,2.5-1.1,4.1C379.23,106.71,374.13,109.71,373.13,108.91Z"/></g><path class="cls-12" d="M373.62,109.53a1.26,1.26,0,0,1-.79-.22,1.37,1.37,0,0,1-.6-1.15c0-1.75,2.88-3.84,2.91-3.86.52-.41,5.34-4.2,6.66-2.72a2.87,2.87,0,0,1,.65,2.21,3.82,3.82,0,0,1-1.84,2.63C379.69,107,375.62,109.53,373.62,109.53Zm-.18-1c.58.34,4.1-1.32,6.62-2.93a2.93,2.93,0,0,0,1.4-1.93,1.85,1.85,0,0,0-.41-1.42c-.38-.29-3,1-5.31,2.86-.89.63-2.5,2.2-2.51,3.06a.38.38,0,0,0,.19.34Z"/><g id="Shape_13_copy_77" data-name="Shape 13 copy 77"><path class="cls-11" d="M375.33,106.41c-1.3-1.1,1.6-3.3,2.7-4,1.6-1,5.6-3.2,6.2-2.2.5.7.9,2.6-1.5,4C381.63,104.81,376.33,107.31,375.33,106.41Z"/></g><path class="cls-12" d="M376.05,107.09a1.57,1.57,0,0,1-1.05-.3,1.33,1.33,0,0,1-.5-1.15c.11-1.6,2.94-3.44,3.26-3.65.77-.48,4.7-2.87,6.25-2.49a1.06,1.06,0,0,1,.65.45,2.86,2.86,0,0,1,.38,2.17,3.89,3.89,0,0,1-2.06,2.52C382.92,104.68,378.38,107.09,376.05,107.09Zm7.54-6.64c-.76,0-2.95.92-5.3,2.39-1.33.84-2.74,2.15-2.79,2.86a.36.36,0,0,0,.15.33h0c.54.48,4.64-1.07,6.83-2.27a3,3,0,0,0,1.57-1.86,1.86,1.86,0,0,0-.24-1.41A.44.44,0,0,0,383.59,100.45Z"/><g id="Shape_13_copy_76" data-name="Shape 13 copy 76"><path class="cls-11" d="M378.83,104.51c-1.2-1.2,1.8-3.2,2.9-3.8,1.6-.9,5.7-2.8,6.3-1.9s.8,2.6-1.7,3.9C385.23,103.31,379.73,105.51,378.83,104.51Z"/></g><path class="cls-12" d="M379.75,105.26a1.73,1.73,0,0,1-1.28-.4,1.36,1.36,0,0,1-.4-1.2c.23-1.6,3.09-3.21,3.42-3.39.6-.33,5.93-3.27,6.95-1.74a2.87,2.87,0,0,1,.33,2.23,4,4,0,0,1-2.21,2.4C386.51,103.18,382.15,105.26,379.75,105.26ZM387.39,99a17.42,17.42,0,0,0-5.42,2.11c-1.14.62-2.8,1.86-2.92,2.66a.38.38,0,0,0,.13.35l0,0c.55.56,5.23-1,6.89-1.91a3.05,3.05,0,0,0,1.72-1.77,1.81,1.81,0,0,0-.21-1.42A.37.37,0,0,0,387.39,99Z"/><g id="Shape_13_copy_72" data-name="Shape 13 copy 72"><path class="cls-11" d="M409.23,104.41c-1.7-1.6-3.3,2-3.3,2s-2.9,4.8-2.2,5.5c.6.5,3.9-3.3,3.9-3.3S409.93,105.41,409.23,104.41Z"/></g><path class="cls-12" d="M403.83,112.47a.59.59,0,0,1-.42-.17c-.68-.68,0-2.74,2.09-6.15.08-.18,1.07-2.33,2.5-2.62a1.74,1.74,0,0,1,1.57.52l.07.08c.84,1.19-1,4-1.61,4.77C405.45,111.88,404.35,112.47,403.83,112.47Zm4.49-8-.12,0c-.79.15-1.6,1.6-1.82,2.09a20.55,20.55,0,0,0-2.24,4.71,21.1,21.1,0,0,0,3.11-3c1-1.44,1.79-3.11,1.59-3.55A.81.81,0,0,0,408.32,104.5Z"/><g id="Shape_13_copy_71" data-name="Shape 13 copy 71"><path class="cls-11" d="M407.93,105.21c-1.7-1.7-2.9-.2-2.9-.2s-1.7,2.5-3.8,6.2,5.5-3.2,5.5-3.2S408.63,106.21,407.93,105.21Z"/></g><path class="cls-12" d="M401,112.84a.56.56,0,0,1-.38-.14c-.54-.42-.07-1.27.18-1.73,2.09-3.68,3.81-6.21,3.83-6.24a2.29,2.29,0,0,1,1.58-.83,2.79,2.79,0,0,1,2.08,1l.06.07c.92,1.31-1,3.23-1.27,3.45C403,112.16,401.56,112.84,401,112.84Zm4.43-7.52s-1.7,2.51-3.76,6.14a.54.54,0,0,0-.05.11,44.26,44.26,0,0,0,4.78-3.93c.64-.61,1.39-1.67,1.15-2.11a1.81,1.81,0,0,0-1.29-.63,1.33,1.33,0,0,0-.83.42Z"/><g id="Shape_13_copy_69" data-name="Shape 13 copy 69"><path class="cls-11" d="M413.33,97.61c-1.9-1.3-2.9,2.5-2.9,2.5s-2.2,5.2-1.4,5.7,3.4-3.8,3.4-3.8S414.23,98.51,413.33,97.61Z"/></g><path class="cls-12" d="M409.16,106.35a.7.7,0,0,1-.42-.13c-.26-.16-1.14-.71,1.23-6.3,0-.19.68-2.47,2-3a1.68,1.68,0,0,1,1.61.26l.07.06c1.08,1.07-.35,4.08-.81,5-.74,1.19-2.54,3.9-3.55,4.1Zm3.39-8.51a.54.54,0,0,0-.2,0c-.74.27-1.3,1.83-1.44,2.36a20.31,20.31,0,0,0-1.56,5,17.88,17.88,0,0,0,2.65-3.47c.74-1.44,1.33-3.32,1-3.76A.91.91,0,0,0,412.55,97.84Z"/><g id="Shape_13_copy_70" data-name="Shape 13 copy 70"><path class="cls-11" d="M408.93,101.61c-1.9-1.3-2.9,2.5-2.9,2.5s-2.2,5.2-1.4,5.7S408,106,408,106,409.83,102.51,408.93,101.61Z"/></g><path class="cls-12" d="M404.76,110.35a.7.7,0,0,1-.42-.13c-.26-.16-1.14-.71,1.23-6.3,0-.19.68-2.47,2-3a1.71,1.71,0,0,1,1.61.26l.07.06c1.08,1.07-.35,4.08-.81,5-.74,1.19-2.54,3.9-3.55,4.1Zm3.39-8.51a.54.54,0,0,0-.2,0c-.66.24-1.23,1.58-1.44,2.36a20.31,20.31,0,0,0-1.56,5,17.88,17.88,0,0,0,2.65-3.47c.74-1.44,1.32-3.32,1-3.76A.91.91,0,0,0,408.15,101.84Z"/><g id="Shape_13_copy_75" data-name="Shape 13 copy 75"><path class="cls-11" d="M381.43,103.11c-.6-1.4,1.9-3.3,2.7-3.7,1.2-.6,6.2-3.4,6.4-2.3.2.8-1.9,4.3-3.8,5.2C386,102.71,381.93,104.31,381.43,103.11Z"/></g><path class="cls-12" d="M382.45,104.05a2.25,2.25,0,0,1-.76-.11,1.1,1.1,0,0,1-.72-.63c-.77-1.8,2.06-3.91,2.93-4.35.16-.07.39-.19.65-.33,3.79-2,5.31-2.53,6-2.17A.77.77,0,0,1,391,97c.29,1.15-2.09,4.8-4.08,5.74A12.38,12.38,0,0,1,382.45,104.05Zm7.58-6.7c-.6,0-2.28.74-5,2.16l-.67.35c-.92.46-2.86,2.14-2.46,3h0s.08.06.12.08c.93.31,3.77-.72,4.47-1.12C388.2,101.06,389.89,98.16,390,97.35Z"/><g id="Shape_13_copy_28" data-name="Shape 13 copy 28"><path class="cls-11" d="M382.33,110.21c-.7-1.3,1.5-3,2.3-3.5,1.2-.7,4.1-2.1,4.4-1.1a3.2,3.2,0,0,1-1.6,3.7C386.73,109.81,382.83,111.31,382.33,110.21Z"/></g><path class="cls-12" d="M383.26,111.1a2.2,2.2,0,0,1-.6-.07,1.13,1.13,0,0,1-.78-.59c-1-1.93,2.34-4.06,2.48-4.15.57-.33,3.37-1.91,4.58-1.43a1,1,0,0,1,.57.61,3.68,3.68,0,0,1-1.85,4.28A10.73,10.73,0,0,1,383.26,111.1Zm5.16-5.39a10.52,10.52,0,0,0-3.54,1.43c-1.09.69-2.53,2.06-2.11,2.84v0a.77.77,0,0,0,.14.06c1,.26,3.69-.79,4.22-1.16a2.75,2.75,0,0,0,1.4-3.18A.29.29,0,0,0,388.42,105.71Z"/><g id="Shape_13_copy_73" data-name="Shape 13 copy 73"><path class="cls-11" d="M391.13,115.31c-1.4-.8.8-3.4,1.6-4.2,1.2-1.3,4.4-4.1,5.1-3.3.6.6,1.3,2.2-.6,4C396.43,112.61,392.23,116,391.13,115.31Z"/></g><path class="cls-12" d="M391.47,115.89a1.07,1.07,0,0,1-.6-.15,1.32,1.32,0,0,1-.68-1c-.21-1.53,1.94-3.73,2.19-4,.64-.7,3.62-3.59,5.09-3.59h0a.93.93,0,0,1,.71.31,2.79,2.79,0,0,1,.77,2,3.94,3.94,0,0,1-1.4,2.74S393.5,115.89,391.47,115.89Zm5.95-7.73c-.6,0-2.84,1.68-4.32,3.29-.87.87-2,2.4-1.92,3.15a.34.34,0,0,0,.2.28h0c.56.35,4.08-2,5.48-3.43a3,3,0,0,0,1.09-2,1.79,1.79,0,0,0-.5-1.26Z"/><g id="Shape_13_copy_29" data-name="Shape 13 copy 29"><path class="cls-11" d="M385.63,103.41c-.7-1.3,1.7-3.4,2.5-3.9,1.2-.7,5.9-3.8,6.2-2.8.2.8-1.6,4.4-3.4,5.4C390.13,102.61,386.13,104.51,385.63,103.41Z"/></g><path class="cls-12" d="M386.37,104.25a2.13,2.13,0,0,1-.53-.07,1.07,1.07,0,0,1-.66-.54c-.94-1.79,2.05-4.16,2.68-4.55l.76-.46c3.08-1.9,4.91-2.86,5.73-2.55a.73.73,0,0,1,.46.49c.28,1.11-1.7,4.9-3.64,6C390.82,102.77,388,104.25,386.37,104.25Zm-.29-1c.44.35,3.34-.74,4.58-1.51,1.57-.87,3-3.76,3.17-4.67-.91.14-3.72,1.87-4.68,2.46l-.77.46c-.92.58-2.76,2.4-2.31,3.23Z"/><g id="Shape_13_copy_26" data-name="Shape 13 copy 26"><path class="cls-11" d="M385.23,107.81c-.6-1.2,1.3-2.7,2-3.2,1-.7,3.5-1.9,3.7-1a3.09,3.09,0,0,1-1.3,3.4C388.93,107.41,385.63,108.81,385.23,107.81Z"/></g><path class="cls-12" d="M386,108.66a1.67,1.67,0,0,1-.61-.09,1,1,0,0,1-.62-.55c-.71-1.46,1.05-3,2.17-3.82.52-.36,2.86-1.75,3.93-1.33a.87.87,0,0,1,.55.63,3.59,3.59,0,0,1-1.53,3.94A10.87,10.87,0,0,1,386,108.66Zm-.31-1c.38.28,2.68-.47,3.69-1a2.62,2.62,0,0,0,1.08-2.79,6.76,6.76,0,0,0-2.94,1.23c-1.06.76-2.18,1.89-1.84,2.57Zm4.75-3.89h0Z"/><g id="Shape_13_copy_25" data-name="Shape 13 copy 25"><path class="cls-11" d="M388.83,107.11c1.1.9,3-.6,3.6-1.1.9-.8,2.9-3.2,1.9-3.4-1.2-.3-3.1,1.1-4.4,1.8C389.33,104.71,387.93,106.41,388.83,107.11Z"/></g><path class="cls-12" d="M389.66,107.9a1.75,1.75,0,0,1-1.14-.4,1.26,1.26,0,0,1-.48-1.16A3.73,3.73,0,0,1,389.7,104c.26-.13.56-.31.87-.49,1.28-.77,2.73-1.63,3.88-1.34a.79.79,0,0,1,.62.57c.32,1.2-2.28,3.66-2.31,3.69A5.22,5.22,0,0,1,389.66,107.9Zm4.31-4.83a7.31,7.31,0,0,0-2.89,1.26c-.33.19-.63.37-.92.52a2.82,2.82,0,0,0-1.12,1.59.28.28,0,0,0,.09.28h0c.53.42,1.63,0,3-1.1a9.12,9.12,0,0,0,2-2.55Z"/><g id="Shape_13_copy_22" data-name="Shape 13 copy 22"><path class="cls-11" d="M425.83,80c-1-.3-2.2,1.7-2.5,2.3-.5,1.1-.8,2.3,0,2.5.6.1,1.9-1.6,2.2-2.1C425.73,82,426.63,80.21,425.83,80Z"/></g><path class="cls-12" d="M423.37,85.32h-.12a1.11,1.11,0,0,1-.78-.6,3.27,3.27,0,0,1,.4-2.6c.17-.33,1.57-3,3.09-2.58a.89.89,0,0,1,.57.45c.29.55,0,1.36-.34,2.35-.07.2-.14.38-.18.52L426,83S424.48,85.32,423.37,85.32Zm2.24-4.84c-.46,0-1.34,1.06-1.83,2.06s-.5,1.54-.41,1.73c.33,0,1.3-1.13,1.7-1.76,0-.15.11-.33.18-.53a4.86,4.86,0,0,0,.4-1.5Zm0,0h0Z"/><g id="Shape_13_copy_20" data-name="Shape 13 copy 20"><path class="cls-11" d="M420.33,78c-1.4,0-1.7,2.3-1.9,3.1s-.3,4.1.7,3.9c.8-.1,1.7-3.3,1.8-4.1S421.43,78,420.33,78Z"/></g><path class="cls-12" d="M419,85.52a.92.92,0,0,1-.65-.29c-.8-.85-.58-3.65-.44-4.24,0-.09.05-.21.08-.34.24-1.1.68-3.14,2.31-3.14a1.11,1.11,0,0,1,.92.46c.62.82.31,2.54.16,3.08h0s-.82,4.28-2.22,4.46Zm1.3-7c-.83,0-1.16,1.53-1.33,2.35,0,.14-.06.27-.09.37-.2.8-.15,3,.2,3.31a10.61,10.61,0,0,0,1.32-3.69,3.75,3.75,0,0,0,0-2.28A.13.13,0,0,0,420.33,78.51Z"/><g id="Shape_13_copy_23" data-name="Shape 13 copy 23"><path class="cls-11" d="M418.23,77.31c-1.3,0-1.6,1.8-1.8,2.4s-.2,3.2.7,3.1c.7-.1,1.6-2.6,1.7-3.2S419.23,77.31,418.23,77.31Z"/></g><path class="cls-12" d="M417.08,83.31a.9.9,0,0,1-.67-.29c-.8-.85-.48-3.37-.48-3.39s.07-.25.11-.35c.22-.8.68-2.47,2.19-2.47a1.09,1.09,0,0,1,.86.39,3.34,3.34,0,0,1,.24,2.46c0,.07-.88,3.47-2.13,3.65Zm1.15-5.5c-.69,0-1,.9-1.23,1.73l-.1.33a5.79,5.79,0,0,0,.19,2.41,7.91,7.91,0,0,0,1.25-2.75c.19-1.16.1-1.56,0-1.69A.14.14,0,0,0,418.23,77.81Z"/><g id="Shape_13_copy_21" data-name="Shape 13 copy 21"><path class="cls-11" d="M424.43,74.71c1.1.4,1,2.6.9,3.3-.1,1.1-.7,3.6-1.5,3.2-.6-.3-1.1-2.9-.7-4.1C423.43,76.41,423.53,74.41,424.43,74.71Z"/></g><path class="cls-12" d="M424,81.76a1,1,0,0,1-.4-.1c-1-.49-1.35-3.51-1-4.71a4.79,4.79,0,0,0,.21-.74c.18-.79.37-1.59.93-1.91a1,1,0,0,1,.8-.06h0c1.66.61,1.24,3.71,1.22,3.84s-.31,3-1.39,3.56A.85.85,0,0,1,424,81.76Zm.25-6.58a3.87,3.87,0,0,0-.41,1.25,6,6,0,0,1-.25.88,5.71,5.71,0,0,0,.42,3.4,6.49,6.49,0,0,0,.82-2.74c.15-1,0-2.56-.57-2.78Z"/><g id="Shape_13_copy_16" data-name="Shape 13 copy 16"><path class="cls-11" d="M397.73,100.81c-1.1-.7-2.9.9-3.4,1.5-.8.9-2.4,3.2-1.5,3.6.7.3,3.2-1,3.9-2.3C397.13,102.91,398.73,101.41,397.73,100.81Z"/></g><path class="cls-12" d="M393.06,106.45a1.1,1.1,0,0,1-.43-.08.9.9,0,0,1-.54-.67c-.28-1.29,1.84-3.7,1.86-3.72.58-.7,2.59-2.5,4-1.59a1.1,1.1,0,0,1,.54.74c.14.73-.45,1.5-1,2.18-.16.21-.31.4-.4.55A6.07,6.07,0,0,1,393.06,106.45Zm4-5.31a4.28,4.28,0,0,0-2.38,1.49c-1,1.11-1.75,2.55-1.64,2.87a5.61,5.61,0,0,0,3.22-2.13,7.15,7.15,0,0,1,.47-.67c.3-.38.84-1.09.79-1.38,0,0,0,0-.08-.08h0A.72.72,0,0,0,397.09,101.14Z"/><g id="Shape_13_copy_24" data-name="Shape 13 copy 24"><path class="cls-11" d="M397.73,100.81c-1.1-.7-2.9.9-3.4,1.5-.8.9-2.4,3.2-1.5,3.6.7.3,3.2-1,3.9-2.3C397.13,102.91,398.73,101.41,397.73,100.81Z"/></g><path class="cls-12" d="M393.06,106.45a1.1,1.1,0,0,1-.43-.08.9.9,0,0,1-.54-.67c-.28-1.29,1.84-3.7,1.86-3.72.58-.7,2.59-2.5,4-1.59a1.1,1.1,0,0,1,.54.74c.14.73-.45,1.5-1,2.18-.16.21-.31.4-.4.55A6.07,6.07,0,0,1,393.06,106.45Zm4-5.31a4.28,4.28,0,0,0-2.38,1.49c-1,1.11-1.75,2.55-1.64,2.87a5.61,5.61,0,0,0,3.22-2.13,7.15,7.15,0,0,1,.47-.67c.3-.38.84-1.09.79-1.38,0,0,0,0-.08-.08h0A.72.72,0,0,0,397.09,101.14Z"/><g id="Shape_13_copy_14" data-name="Shape 13 copy 14"><path class="cls-11" d="M398.33,97.71c-1.2-.8-2.9.9-3.5,1.5-.8.9-2.4,3.2-1.5,3.6.7.3,3.2-1,4-2.3C397.73,99.91,399.23,98.31,398.33,97.71Z"/></g><path class="cls-12" d="M393.58,103.35a1.06,1.06,0,0,1-.45-.08.9.9,0,0,1-.54-.67c-.28-1.29,1.84-3.7,1.86-3.72.73-.73,2.62-2.61,4.16-1.58a1.1,1.1,0,0,1,.48.74c.14.79-.57,1.72-1.08,2.39l-.27.36A6.48,6.48,0,0,1,393.58,103.35Zm4-5.35c-.58,0-1.4.53-2.44,1.57s-1.72,2.51-1.61,2.83a6.15,6.15,0,0,0,3.33-2.15l.31-.43c.29-.37,1-1.25.9-1.62l-.06-.07A.73.73,0,0,0,397.62,98Z"/><g id="Shape_13_copy_27" data-name="Shape 13 copy 27"><path class="cls-11" d="M398.83,93c-1.2-1.1-4.8,1.5-5.6,2.1-1.1.9-3.4,3.3-2.3,3.9.8.5,4-.7,5-2C396.53,96.31,399.83,93.81,398.83,93Z"/></g><path class="cls-12" d="M391.49,99.63a1.59,1.59,0,0,1-.83-.19,1,1,0,0,1-.52-.81c-.14-1.48,2.74-3.88,2.77-3.9,1.76-1.32,4.88-3.32,6.24-2.1a.93.93,0,0,1,.36.74c0,.91-1.11,2-2.49,3.29-.32.29-.58.53-.71.68A7.67,7.67,0,0,1,391.49,99.63ZM398,93.24c-.88,0-2.61.86-4.5,2.27-1.38,1.13-2.54,2.7-2.39,3,.52.31,3.43-.61,4.39-1.85a9.3,9.3,0,0,1,.82-.79c.56-.51,2.25-2.06,2.16-2.53h0A.68.68,0,0,0,398,93.24Z"/><g id="Shape_13_copy_68" data-name="Shape 13 copy 68"><path class="cls-11" d="M408.73,87.61c-1.2-1.1-3.6.6-4.3,1.2-1.1.9-3.4,3.3-2.3,3.9.8.5,4-.7,5-2C407.63,90.11,409.73,88.51,408.73,87.61Z"/></g><path class="cls-12" d="M402.69,93.33a1.59,1.59,0,0,1-.83-.19,1,1,0,0,1-.52-.81c-.14-1.5,2.74-3.88,2.77-3.9s3.25-2.74,5-1.19a1.29,1.29,0,0,1,.43.92c0,.9-.91,1.8-1.58,2.46a5.21,5.21,0,0,0-.41.41A7.63,7.63,0,0,1,402.69,93.33Zm5-5.58a5.88,5.88,0,0,0-3,1.44c-1.4,1.15-2.56,2.72-2.41,3.07.52.31,3.43-.61,4.39-1.85.12-.14.29-.31.49-.51.45-.44,1.28-1.26,1.28-1.72a.29.29,0,0,0-.11-.2h0A1,1,0,0,0,407.72,87.75Z"/><g id="Shape_13_copy_11" data-name="Shape 13 copy 11"><path class="cls-11" d="M412.23,86.81c-1.2-.6-2.5,1.3-2.9,2s-2,3.6-1,3.9c.7.2,2.9-2.3,3.3-2.9S413.23,87.31,412.23,86.81Z"/></g><path class="cls-12" d="M408.39,93.22a.64.64,0,0,1-.2,0,.91.91,0,0,1-.64-.65c-.35-1.17,1-3.61,1.39-4.05s1.81-3,3.51-2.13h0a1.15,1.15,0,0,1,.62.76c.18.68-.17,1.68-1,3C412,90.12,409.69,93.22,408.39,93.22Zm3.36-6c-.67,0-1.53,1-2,1.86a6.92,6.92,0,0,0-1.27,3.14,11.41,11.41,0,0,0,2.72-2.67c.77-1.15,1-1.87.89-2.15a.15.15,0,0,0-.1-.12A.54.54,0,0,0,411.75,87.2Z"/><g id="Shape_13_copy_12" data-name="Shape 13 copy 12"><path class="cls-11" d="M401.53,97.21c-1.2-.8-2.7,1-3.2,1.6s-2.4,3.3-1.5,3.7c.7.3,3.2-1.9,3.7-2.4C401,99.41,402.43,97.81,401.53,97.21Z"/></g><path class="cls-12" d="M396.94,103a.78.78,0,0,1-.31-.06.91.91,0,0,1-.53-.68c-.22-1.2,1.5-3.46,1.87-3.83.54-.65,2.26-2.71,3.84-1.66h0a1.14,1.14,0,0,1,.5.76c.14.83-.61,1.83-1.16,2.55l-.21.29C400.86,100.49,398.28,103,396.94,103Zm3.93-5.52q-.81,0-2.16,1.62a7.27,7.27,0,0,0-1.64,2.9,11.62,11.62,0,0,0,3.1-2.27l.18-.25c.34-.45,1-1.38,1-1.79a.11.11,0,0,0-.07-.09h0A.64.64,0,0,0,400.87,97.51Z"/><g id="Shape_13_copy_13" data-name="Shape 13 copy 13"><path class="cls-11" d="M403.43,94c-1.2-.8-2.7,1-3.2,1.6s-2.4,3.4-1.5,3.8c.7.3,3.2-1.9,3.7-2.5S404.33,94.61,403.43,94Z"/></g><path class="cls-12" d="M398.86,99.93a.88.88,0,0,1-.33-.06.91.91,0,0,1-.53-.69c-.22-1.17,1.44-3.49,1.88-3.92.53-.65,2.26-2.71,3.83-1.66a1.14,1.14,0,0,1,.5.76c.14.83-.61,1.83-1.16,2.55l-.22.29C402.79,97.26,400.24,99.93,398.86,99.93Zm3.91-5.62c-.54,0-1.26.55-2.16,1.62a7.48,7.48,0,0,0-1.64,3A10.63,10.63,0,0,0,402,96.59l.21-.28c.34-.45,1-1.37,1-1.79a.13.13,0,0,0-.07-.09h0A.64.64,0,0,0,402.77,94.31Z"/><path class="cls-14" d="M430.73,20.71c-1.4.1-2.4-1-3-2.3.1-.4-1.1-1.9,2.7-1.3,4.1.7,2.7,1.9,2.7,1.9A2.77,2.77,0,0,1,430.73,20.71Z"/><path class="cls-12" d="M430.55,21.22c-1.34,0-2.5-.92-3.28-2.6l-.07-.16,0-.17s0,0,0-.08a1.31,1.31,0,0,1,.2-1.27c.45-.49,1.41-.59,3.11-.32,2.05.35,3.1.87,3.31,1.64a1.11,1.11,0,0,1-.27,1,3.27,3.27,0,0,1-2.77,1.92h-.23Zm-2.32-2.91c.39.8,1.19,2,2.45,1.9a2.23,2.23,0,0,0,2-1.36l.05-.13.1-.09s.07-.08.06-.1-.19-.53-2.52-.92c-1.89-.3-2.19,0-2.21,0a.84.84,0,0,0,.05.36A1.88,1.88,0,0,1,428.23,18.31Z"/><g id="Shape_13_copy_2" data-name="Shape 13 copy 2"><path class="cls-11" d="M399.83,106.51c-1.7-1.7-2.9-.2-2.9-.2s-1.7,2.5-3.8,6.2,5.5-3.2,5.5-3.2S400.53,107.61,399.83,106.51Z"/></g><path class="cls-12" d="M392.89,114.14a.56.56,0,0,1-.38-.14c-.54-.43-.07-1.27.18-1.73,2.09-3.68,3.81-6.21,3.82-6.24a2.36,2.36,0,0,1,1.59-.83,2.79,2.79,0,0,1,2.08,1l.07.08c.9,1.42-1.06,3.24-1.29,3.45C394.86,113.46,393.46,114.14,392.89,114.14Zm4.43-7.51s-1.7,2.5-3.76,6.13l-.06.11a43.25,43.25,0,0,0,4.79-3.93c.51-.45,1.43-1.55,1.14-2.12a1.85,1.85,0,0,0-1.27-.62,1.28,1.28,0,0,0-.84.43Z"/><g id="Shape_12_copy" data-name="Shape 12 copy"><path class="cls-14" d="M442.13,20.11a1.07,1.07,0,0,0-.9.7c0,.1-.3.6.8.4s.8-.6.8-.6A.75.75,0,0,0,442.13,20.11Z"/></g><path class="cls-12" d="M441.6,21.76a1,1,0,0,1-.73-.26.8.8,0,0,1-.14-.76l0-.15a1.53,1.53,0,0,1,1.35-1,1.26,1.26,0,0,1,1.14.76.7.7,0,0,1,.09.61c-.16.49-.79.65-1.25.73A4.2,4.2,0,0,1,441.6,21.76Zm.53-1.15a.35.35,0,0,0-.24.12h.05l.31-.07A.28.28,0,0,0,442.13,20.61Z"/><path class="cls-11" d="M402.73,106.11c-1.2-1.4-2.2-.3-2.2-.3a53.74,53.74,0,0,0-3.1,4.9c-1.7,3,4.3-2.4,4.3-2.4S403.23,106.91,402.73,106.11Z"/><path class="cls-12" d="M397.23,112.13a.51.51,0,0,1-.37-.15c-.5-.4-.09-1.12.13-1.51a50.68,50.68,0,0,1,3.14-5,1.74,1.74,0,0,1,1.36-.62,2.2,2.2,0,0,1,1.62.89l0,.06c.69,1.09-.78,2.55-1.08,2.83C398.87,111.56,397.73,112.13,397.23,112.13Zm3.67-6s-1.3,1.78-2.89,4.55a38.52,38.52,0,0,0,3.38-2.76c.53-.5,1-1.26.93-1.54a1.25,1.25,0,0,0-.84-.5h0a.89.89,0,0,0-.57.25Z"/><g id="Shape_13_copy_7" data-name="Shape 13 copy 7"><path class="cls-11" d="M407.93,100.51c-1.7-1.5-2.5.2-2.5.2a24.07,24.07,0,0,0-2.5,6.5c-1,4.1,3.8-1.9,4.5-3.7S408.53,101.31,407.93,100.51Z"/></g><path class="cls-12" d="M403.05,109.11a.58.58,0,0,1-.19,0c-.84-.26-.53-1.51-.42-2a24.52,24.52,0,0,1,2.56-6.64,2,2,0,0,1,1.29-1,2.29,2.29,0,0,1,2,.71l.07.07c.74,1,.39,1.74-.31,3.22l-.14.3C407.47,104.79,404.51,109.11,403.05,109.11Zm3.57-8.72-.13,0a1,1,0,0,0-.61.52,24.05,24.05,0,0,0-2.47,6.4,4.36,4.36,0,0,0-.12.7,15.47,15.47,0,0,0,3.67-4.7l.16-.33c.68-1.44.76-1.69.44-2.15A1.67,1.67,0,0,0,406.62,100.39Z"/><g id="Shape_13_copy_5" data-name="Shape 13 copy 5"><path class="cls-11" d="M403,103.51c-1.7-1.7-2.9-.2-2.9-.2s-1.7,2.5-3.8,6.2,5.5-3.2,5.5-3.2S403.73,104.51,403,103.51Z"/></g><path class="cls-12" d="M396.09,111.14a.56.56,0,0,1-.38-.14c-.54-.43-.07-1.27.18-1.73,2.09-3.68,3.81-6.21,3.82-6.24a2.36,2.36,0,0,1,1.59-.83,2.77,2.77,0,0,1,2.08,1l.06.07c.92,1.31-1,3.23-1.27,3.45C398.06,110.46,396.66,111.14,396.09,111.14Zm4.43-7.51s-1.7,2.5-3.76,6.13a.54.54,0,0,0-.05.11,44.26,44.26,0,0,0,4.78-3.93c.64-.61,1.39-1.67,1.15-2.11a1.82,1.82,0,0,0-1.28-.63,1.28,1.28,0,0,0-.84.43Z"/><g id="Shape_13_copy_3" data-name="Shape 13 copy 3"><path class="cls-11" d="M411.83,98.41c-1.9-1.3-2.9,2.5-2.9,2.5s-2.2,5.2-1.4,5.7,3.4-3.8,3.4-3.8S412.63,99.31,411.83,98.41Z"/></g><path class="cls-12" d="M407.66,107.15a.7.7,0,0,1-.42-.13c-.26-.16-1.14-.71,1.23-6.3,0-.19.68-2.47,2-3a1.68,1.68,0,0,1,1.61.26l.09.08c.95,1.07-.39,4.06-.82,5-.75,1.2-2.55,3.91-3.56,4.11Zm3.39-8.51a.54.54,0,0,0-.2,0c-.74.27-1.3,1.83-1.44,2.36a20.31,20.31,0,0,0-1.56,5,18.21,18.21,0,0,0,2.65-3.47c.78-1.61,1.23-3.34,1-3.77A.79.79,0,0,0,411.05,98.64Z"/><g id="Shape_13_copy_4" data-name="Shape 13 copy 4"><path class="cls-11" d="M414.83,93.81c-2-1.3-3,2.5-3,2.5s-2.2,5.1-1.4,5.7,3.4-3.8,3.4-3.8S415.73,94.71,414.83,93.81Z"/></g><path class="cls-12" d="M410.56,102.55a.7.7,0,0,1-.42-.13c-.75-.56-.33-2.68,1.23-6.31,0-.18.67-2.42,2-3a1.82,1.82,0,0,1,1.69.24l.08.07c1.08,1.08-.43,4.09-.91,5-.74,1.18-2.54,3.89-3.55,4.09ZM414,94a.6.6,0,0,0-.24,0c-.76.29-1.32,1.83-1.46,2.35a19.29,19.29,0,0,0-1.57,5A17.83,17.83,0,0,0,413.4,98c.78-1.44,1.4-3.32,1.1-3.75A1,1,0,0,0,414,94Z"/><g id="Shape_13_copy_10" data-name="Shape 13 copy 10"><path class="cls-11" d="M406.33,91.71c-1.1-.7-3.8,2.3-3.8,2.3s-2.4,3.3-1.5,3.7c.7.3,3.6-2.5,3.6-2.5S407.33,92.31,406.33,91.71Z"/></g><path class="cls-12" d="M401.11,98.23a.64.64,0,0,1-.28-.06.81.81,0,0,1-.47-.55c-.26-1,1.15-3.05,1.76-3.9s3.12-3.29,4.47-2.43A.93.93,0,0,1,407,92c.16,1.11-1.53,3-2.05,3.57C403.15,97.33,401.85,98.23,401.11,98.23Zm4.8-6.13c-.53,0-1.87,1-3,2.25a10,10,0,0,0-1.57,2.87,16,16,0,0,0,2.95-2.37c1-1.07,1.83-2.35,1.77-2.72A.29.29,0,0,0,405.91,92.1Zm.13,0h0Z"/><g id="Shape_13_copy_67" data-name="Shape 13 copy 67"><path class="cls-11" d="M409.93,84.51c-1.1-.7-3.2,1.6-3.2,1.6s-2.4,3.3-1.5,3.7c.7.3,3.6-2.5,3.6-2.5S410.83,85.11,409.93,84.51Z"/></g><path class="cls-12" d="M405.31,90.32a.64.64,0,0,1-.28,0,.81.81,0,0,1-.47-.55c-.26-1,1.15-3,1.76-3.9.44-.48,2.5-2.61,3.88-1.73h0a1,1,0,0,1,.44.73c.13,1-1.19,2.53-1.45,2.82Q406.43,90.32,405.31,90.32Zm4.13-5.44a4.7,4.7,0,0,0-2.34,1.57,10,10,0,0,0-1.57,2.87,16,16,0,0,0,3-2.37c.76-.84,1.27-1.79,1.18-2A.42.42,0,0,0,409.44,84.88Z"/><g id="Shape_13_copy_8" data-name="Shape 13 copy 8"><path class="cls-11" d="M419.63,87c-2-.8-2.2,2.8-2.2,2.8s-1.1,5.1-.2,5.5c.7.3,2.3-4.1,2.3-4.1S420.53,87.71,419.63,87Z"/></g><path class="cls-12" d="M417.3,95.83a.66.66,0,0,1-.27-.06c-.85-.38-.88-2.42-.09-6.06,0-.17.15-2.34,1.31-3.07a1.64,1.64,0,0,1,1.56-.09l.12.07c1.09.84.34,3.83.08,4.73-.55,1.51-1.58,4.05-2.41,4.41A.66.66,0,0,1,417.3,95.83Zm1.78-8.43a.57.57,0,0,0-.3.08c-.57.36-.82,1.75-.85,2.36a18.07,18.07,0,0,0-.52,4.78A19.39,19.39,0,0,0,419.06,91c.44-1.56.58-3.23.3-3.59A.79.79,0,0,0,419.08,87.4Z"/><g id="Shape_13_copy_17" data-name="Shape 13 copy 17"><path class="cls-11" d="M423,84.91c-2-.8-2.2,2.8-2.2,2.8s-1.1,5.1-.2,5.5c.7.3,2.3-4.1,2.3-4.1S423.93,85.61,423,84.91Z"/></g><path class="cls-12" d="M420.7,93.73a.66.66,0,0,1-.27-.06c-.85-.38-.88-2.42-.09-6.06,0-.17.16-2.34,1.31-3.07a1.64,1.64,0,0,1,1.56-.09l.13.07c1.08.84.33,3.83.07,4.73-.55,1.51-1.58,4-2.41,4.41A.66.66,0,0,1,420.7,93.73Zm1.78-8.43a.57.57,0,0,0-.3.08c-.54.35-.81,1.63-.85,2.36a18.65,18.65,0,0,0-.53,4.78,18.67,18.67,0,0,0,1.66-3.58c.44-1.56.58-3.23.3-3.59A.79.79,0,0,0,422.48,85.3Z"/><path class="cls-11" d="M415.13,93c.3-.6,1.2-1.7.3-2.3s-1.6.7-3,2.1a16.27,16.27,0,0,0-3.1,4.6c-1.3,2.8,2.1.4,3.5-1.2A12.44,12.44,0,0,0,415.13,93Z"/><path class="cls-12" d="M409.32,99.19a.77.77,0,0,1-.43-.12c-.68-.44-.2-1.48,0-1.87A15.37,15.37,0,0,1,411.59,93l.46-.53c.34-.34.61-.65.87-.92.92-1,1.71-1.87,2.75-1.29,1.18.78.44,2,.08,2.64l-.17.31a13.08,13.08,0,0,1-2.38,3.32C412.79,97,410.58,99.19,409.32,99.19Zm5.69-8.1c-.27,0-.63.36-1.36,1.15q-.39.44-.87.93l-.43.5a14.62,14.62,0,0,0-2.57,4,2.86,2.86,0,0,0-.2.52,10.25,10.25,0,0,0,2.87-2.27,11.9,11.9,0,0,0,2.22-3.08h0c.06-.11.13-.24.21-.37.48-.82.54-1.11.26-1.29A.23.23,0,0,0,415,91.09Z"/><g id="Shape_14_copy_2" data-name="Shape 14 copy 2"><path class="cls-11" d="M420.33,86.21c.2-.7.8-2.1-.2-2.6s-1.4,1.1-2.6,2.8a17.71,17.71,0,0,0-2.1,5.6c-.7,3.2,2.2.1,3.2-2A11.93,11.93,0,0,0,420.33,86.21Z"/></g><path class="cls-12" d="M415.63,93.89a1,1,0,0,1-.24,0c-.81-.28-.55-1.49-.45-1.94a16.61,16.61,0,0,1,1.78-5c.11-.23.24-.46.36-.71.37-.54.64-1,.88-1.39.64-1.08,1.24-2.1,2.35-1.65,1.3.65.83,2.14.58,2.94l-.08.24A11.16,11.16,0,0,1,419.24,90l-.18.3C418.55,91.35,416.83,93.89,415.63,93.89ZM419.82,84c-.21,0-.45.34-1,1.27-.25.42-.53.9-.88,1.39-.09.19-.22.43-.34.66a15.6,15.6,0,0,0-1.68,4.76,3.13,3.13,0,0,0-.1.69,9,9,0,0,0,2.36-3l.2-.35a10.47,10.47,0,0,0,1.46-3.34l.1-.33c.29-.93.38-1.51,0-1.72Z"/><g id="Shape_14_copy_3" data-name="Shape 14 copy 3"><path class="cls-11" d="M423.13,83c0-.7.4-2.2-.6-2.5s-1.2,1.3-2.1,3.2a19.14,19.14,0,0,0-1.2,5.9c-.1,3.3,2.1-.3,2.8-2.5A10,10,0,0,0,423.13,83Z"/></g><path class="cls-12" d="M419.62,91.44h-.12c-.82-.14-.79-1.37-.77-1.83a17.43,17.43,0,0,1,.93-5.12c.1-.29.19-.58.29-.91.27-.58.46-1.07.63-1.5.47-1.23.92-2.39,2.09-2s1.07,1.71,1,2.52a4.21,4.21,0,0,0,0,.46,10.59,10.59,0,0,1-1.14,4.3C422.28,88,420.9,91.44,419.62,91.44ZM422.33,81c-.22,0-.41.4-.82,1.45-.18.45-.38,1-.63,1.5-.07.26-.17.56-.26.86a15.76,15.76,0,0,0-.89,4.85,3,3,0,0,0,0,.68A10.06,10.06,0,0,0,421.55,87,9.66,9.66,0,0,0,422.63,83c0-.15,0-.34,0-.55.09-.87.07-1.37-.28-1.47Z"/><g id="Shape_14_copy" data-name="Shape 14 copy"><path class="cls-11" d="M407.53,95.11a45,45,0,0,0-5.4,8.9c-1.7,3.8,1.8.6,3.9-1.5C413.13,95.21,410.33,94.11,407.53,95.11Z"/></g><path class="cls-12" d="M401.91,106.3a.67.67,0,0,1-.41-.15c-.56-.38-.33-1.21.17-2.34a45.42,45.42,0,0,1,5.45-9l.09-.13.15,0c1.61-.57,2.88-.43,3.41.39.86,1.35-.57,3.91-4.38,7.83C403.52,105.73,402.44,106.3,401.91,106.3Zm5.93-10.77a44.55,44.55,0,0,0-5.26,8.69,6,6,0,0,0-.35.93,19.52,19.52,0,0,0,3.44-3c5-5.11,4.34-6.45,4.25-6.59C409.7,95.22,408.84,95.21,407.84,95.53Z"/><g id="Shape_13_copy_6" data-name="Shape 13 copy 6"><path class="cls-11" d="M410.53,92.21c-2.8-1.3-4.2,2.5-4.2,2.5s-3.2,5.2-2,5.7c1,.5,4.8-3.8,4.8-3.8S411.83,93.11,410.53,92.21Z"/></g><path class="cls-12" d="M404.48,100.94a1,1,0,0,1-.38-.08.91.91,0,0,1-.48-.56c-.42-1.31,1.64-4.81,2.28-5.85a5.3,5.3,0,0,1,2.44-2.8,2.89,2.89,0,0,1,2.4.11l.07,0a1.32,1.32,0,0,1,.55.9c.23,1.49-1.62,3.94-1.84,4.22C407.84,98.82,405.7,100.94,404.48,100.94Zm4.91-8.5a1.75,1.75,0,0,0-.67.14,4.3,4.3,0,0,0-1.92,2.31c-1.42,2.31-2.43,4.66-2.22,5.11.43,0,2.41-1.72,4.17-3.72.68-.88,1.75-2.62,1.62-3.42a.31.31,0,0,0-.1-.21A2.13,2.13,0,0,0,409.39,92.44Z"/><g id="Shape_13_copy_30" data-name="Shape 13 copy 30"><path class="cls-11" d="M402.43,87.71c-1.4-.9-4,2.3-4.8,2.9-1.1.9-3.4,3.2-2.2,3.6.9.4,4-1.2,5.3-2.1C402.23,91.11,403.63,88.41,402.43,87.71Z"/></g><path class="cls-12" d="M395.78,94.77a1.4,1.4,0,0,1-.56-.1.89.89,0,0,1-.61-.71c-.24-1.28,2.4-3.49,2.7-3.73a9.58,9.58,0,0,0,.73-.69c1.29-1.25,3.22-3.16,4.65-2.25a1.45,1.45,0,0,1,.69,1.26,5.55,5.55,0,0,1-2.37,4C400.41,92.94,397.4,94.77,395.78,94.77Zm6.07-6.72c-.85,0-2.34,1.46-3.11,2.21a10.74,10.74,0,0,1-.81.75c-1.34,1.1-2.38,2.42-2.34,2.77.54.2,3.2-.93,4.85-2.08a4.62,4.62,0,0,0,1.94-3.12.48.48,0,0,0-.2-.44h0A.62.62,0,0,0,401.85,88.05Z"/><g id="Shape_13_copy_31" data-name="Shape 13 copy 31"><path class="cls-11" d="M403.13,86.11c-1-.9-3,.4-3.6.8-.9.7-2.9,2.7-2.1,3.2.6.4,3.3-.4,4.3-1.5C402.13,88.11,403.93,86.81,403.13,86.11Z"/></g><path class="cls-12" d="M398,90.71a1.44,1.44,0,0,1-.8-.18.89.89,0,0,1-.41-.71c-.06-1.27,2.46-3.28,2.48-3.3,1.95-1.31,3.37-1.56,4.24-.78a1,1,0,0,1,.37.77c0,.75-.73,1.46-1.33,2a4.47,4.47,0,0,0-.38.38A6.9,6.9,0,0,1,398,90.71Zm4.28-4.41a5,5,0,0,0-2.42,1c-1,.76-2.1,2.07-2.07,2.44a6.33,6.33,0,0,0,3.62-1.49c.08-.1.25-.27.45-.47s1-1,1-1.28l0,0A.8.8,0,0,0,402.23,86.3Z"/><g id="Shape_13_copy_9" data-name="Shape 13 copy 9"><path class="cls-11" d="M401.43,86.61a2.57,2.57,0,0,1,1.2-3s2.6-2.3,2.9-1.4c.2.7-1.9,3.4-1.9,3.4S401.93,87.41,401.43,86.61Z"/></g><path class="cls-12" d="M401.8,87.32h-.1a.93.93,0,0,1-.7-.43l0-.1a3,3,0,0,1,1.42-3.6c.74-.67,2.26-1.87,3.08-1.65a.76.76,0,0,1,.54.52c.23.81-.95,2.55-2,3.87C403.68,86.28,402.64,87.32,401.8,87.32ZM405,82.57A9,9,0,0,0,403,84a2.14,2.14,0,0,0-1.09,2.36,4.84,4.84,0,0,0,1.39-1.08A14.4,14.4,0,0,0,405,82.57Z"/><g id="Shape_13_copy_15" data-name="Shape 13 copy 15"><path class="cls-11" d="M413.13,89.21c.9,1.1-.6,2.8-1.2,3.4s-3,2.9-3.5,2c-.4-.7,1.4-3.4,2-4S412.43,88.31,413.13,89.21Z"/></g><path class="cls-12" d="M408.79,95.32h-.14a.89.89,0,0,1-.66-.45c-.68-1.2,1.84-4.36,2.08-4.6,1-1.22,1.87-1.83,2.57-1.81a1.11,1.11,0,0,1,.88.45c1.15,1.41-.48,3.31-1.24,4.07C411.19,94.05,409.73,95.32,408.79,95.32Zm3.83-5.87c-.27,0-.9.39-1.81,1.48a9.4,9.4,0,0,0-1.94,3.39,8.55,8.55,0,0,0,2.7-2.06c.87-.86,1.69-2.1,1.17-2.73h0A.14.14,0,0,0,412.62,89.45Z"/><g id="Shape_13_copy_63" data-name="Shape 13 copy 63"><path class="cls-11" d="M398.23,85.91c-.8-1.3.6-3.2.6-3.2s2.6-2.7,3-1.8c.3.7-.7,2.4-.7,2.4S400,86.21,398.23,85.91Z"/></g><path class="cls-12" d="M398.5,86.43a2.07,2.07,0,0,1-.35,0l-.23,0-.12-.2c-1-1.56.56-3.67.63-3.75.87-.91,2.39-2.34,3.26-2.18a.8.8,0,0,1,.6.47c.37.87-.47,2.41-.73,2.86C401.55,83.62,400.46,86.43,398.5,86.43Zm2.89-5.16a9,9,0,0,0-2.2,1.79,3.18,3.18,0,0,0-.64,2.37c1.23-.08,2.1-2.27,2.11-2.3A5.32,5.32,0,0,0,401.39,81.27Z"/><g id="Shape_13_copy_35" data-name="Shape 13 copy 35"><path class="cls-11" d="M408.33,87.21c-.9-1.8.9-3.1.9-3.1s2.3-2.6,2.7-1.8c.3.6-1.5,3.6-1.5,3.6S408.83,88,408.33,87.21Z"/></g><path class="cls-12" d="M408.64,87.89h0a.86.86,0,0,1-.7-.41l0,0a3,3,0,0,1,1-3.7c.75-.84,2.07-2.17,2.9-2.07a.76.76,0,0,1,.59.42c.28.56-.23,1.93-1.52,4.08C410.44,86.72,409.46,87.89,408.64,87.89Zm2.77-5.11a10.43,10.43,0,0,0-1.81,1.66l-.08.08a2.08,2.08,0,0,0-.8,2.35A4.86,4.86,0,0,0,410,85.61,15.53,15.53,0,0,0,411.41,82.78Z"/><g id="Shape_13_copy_36" data-name="Shape 13 copy 36"><path class="cls-11" d="M406,87.21a2.14,2.14,0,0,1,.5-2.8s1.8-2.5,2.3-1.8c.3.5-1,3.3-1,3.3S406.63,87.81,406,87.21Z"/></g><path class="cls-12" d="M406.3,87.83a.91.91,0,0,1-.63-.26l-.07-.09a2.6,2.6,0,0,1,.56-3.41c.58-.8,1.64-2.08,2.43-2.08h0a.81.81,0,0,1,.65.33c.13.21.45.76-1,3.8-.26.42-1.07,1.61-1.87,1.7Zm2-4.68a9,9,0,0,0-1.4,1.55l-.09.1a1.63,1.63,0,0,0-.47,2,4,4,0,0,0,1-1.15A15.57,15.57,0,0,0,408.33,83.15Z"/><g id="Shape_13_copy_37" data-name="Shape 13 copy 37"><path class="cls-11" d="M426.93,83.71a1.79,1.79,0,0,1-.4-2.3s.7-2.4,1.2-2,.1,2.8.1,2.8S427.53,84,426.93,83.71Z"/></g><path class="cls-12" d="M427.06,84.25a.8.8,0,0,1-.36-.09l-.07,0a2.23,2.23,0,0,1-.57-2.89c.41-1.39.86-2.17,1.34-2.32A.67.67,0,0,1,428,79c.16.12.62.47.28,3.25-.08.49-.32,1.59-.91,1.89A.73.73,0,0,1,427.06,84.25Zm.37-3.87a10.45,10.45,0,0,0-.42,1.17l-.05.11a1.33,1.33,0,0,0,.08,1.48,4.54,4.54,0,0,0,.3-1A14.13,14.13,0,0,0,427.43,80.38Z"/><g id="Shape_13_copy_39" data-name="Shape 13 copy 39"><path class="cls-11" d="M427.73,78.81a1.9,1.9,0,0,1-.8-2s.1-2.2.6-2,.7,2.5.7,2.5S428.23,79,427.73,78.81Z"/></g><path class="cls-12" d="M427.81,79.33a.86.86,0,0,1-.27,0l-.05,0a2.38,2.38,0,0,1-1.05-2.54c.05-1.25.28-2,.67-2.3a.64.64,0,0,1,.6-.06c.22.1.68.33,1,2.9,0,.76-.09,1.66-.53,2A.68.68,0,0,1,427.81,79.33Zm-.31-3.28a6.65,6.65,0,0,0-.07.78,1.7,1.7,0,0,0,.23,1.29,4.89,4.89,0,0,0,.07-.81C427.67,76.88,427.59,76.43,427.5,76.05Z"/><g id="Shape_13_copy_32" data-name="Shape 13 copy 32"><path class="cls-11" d="M411.43,88.21a3.83,3.83,0,0,1,.9-4.4s2.6-3.6,3.1-2.4c.4.9-1.6,5.2-1.6,5.2S412.13,89.41,411.43,88.21Z"/></g><path class="cls-12" d="M411.88,89h0a1,1,0,0,1-.87-.55l0,0a4.34,4.34,0,0,1,1-4.94c.81-1.12,2.29-2.9,3.25-2.81a.86.86,0,0,1,.69.55c.44,1-1,4.25-1.61,5.6C414,87.37,412.88,89,411.88,89Zm0-1,0,0c.24,0,1-.81,1.5-1.67A16.23,16.23,0,0,0,415,81.7a9.94,9.94,0,0,0-2.26,2.41l-.06.07A3.33,3.33,0,0,0,411.87,88Z"/><g id="Shape_13_copy_38" data-name="Shape 13 copy 38"><path class="cls-11" d="M414.53,90.21a3.91,3.91,0,0,1,.2-4.5s2-4,2.6-2.9c.5.8-.7,5.4-.7,5.4S415.33,91.21,414.53,90.21Z"/></g><path class="cls-12" d="M414.9,90.92a1,1,0,0,1-.76-.39l0,0a4.43,4.43,0,0,1,.22-5.07c.72-1.45,1.81-3.27,2.71-3.29a.82.82,0,0,1,.73.45c.54.86-.28,4.32-.66,5.77-.33.78-1.15,2.44-2.09,2.57Zm0-1h0A5.52,5.52,0,0,0,416.17,88a19.4,19.4,0,0,0,.77-4.79,11.32,11.32,0,0,0-1.76,2.72A3.47,3.47,0,0,0,414.93,89.92Z"/><g id="Shape_13_copy_34" data-name="Shape 13 copy 34"><path class="cls-11" d="M410,83.31a3.83,3.83,0,0,1,.9-4.4s2.6-3.6,3.1-2.4c.4.9-1.6,5.2-1.6,5.2S410.73,84.41,410,83.31Z"/></g><path class="cls-12" d="M410.46,84.08a1,1,0,0,1-.85-.5l0-.06a4.32,4.32,0,0,1,1-4.94c.81-1.12,2.29-2.89,3.25-2.81a.86.86,0,0,1,.69.55c.44,1-1,4.25-1.61,5.6-.34.55-1.42,2.15-2.42,2.16Zm0-1h0c.24,0,1-.8,1.52-1.63a16.3,16.3,0,0,0,1.59-4.64,9.75,9.75,0,0,0-2.26,2.39l-.06.08A3.34,3.34,0,0,0,410.46,83.07Z"/><path class="cls-11" d="M421.33,70.91c-.2,1.4-1-.3-1.3-1.5a3.59,3.59,0,0,1,.6-2.5A11.86,11.86,0,0,1,421.33,70.91Z"/><path class="cls-12" d="M421.06,71.94c-.85,0-1.37-1.84-1.52-2.41a4,4,0,0,1,.68-2.9l.56-.81.32.93a12,12,0,0,1,.72,4.23h0c-.08.62-.33.94-.73,1Zm-.53-3.58a2.08,2.08,0,0,0,0,.93,8.11,8.11,0,0,0,.34,1A10,10,0,0,0,420.53,68.36Z"/><path class="cls-11" d="M423.63,73.81c-.1-1-.2-2.7-.2-2.7l-.9-1.3v2.3c0,2.2.3,3.8.9,3.8S423.73,74.81,423.63,73.81Z"/><path class="cls-12" d="M423.46,76.4c-.47,0-1.43-.18-1.43-4.29v-3.9l1.89,2.73v.14s.1,1.69.2,2.68l0,.42c.11,1,.24,2-.64,2.22ZM423,72.76a11.36,11.36,0,0,0,.17,1.83q0-.16,0-.3l-.05-.43C423.1,73.54,423.07,73.15,423,72.76Z"/><path class="cls-11" d="M413.73,74.21c-.3,1.4.3,3.7.6,3.4,1.4-1.8.8-5.1.8-5.1C414.93,71.11,414.13,72.81,413.73,74.21Z"/><path class="cls-12" d="M414.46,78.25l-.47-.18c-.65-.36-1-2.74-.75-4v0c.5-1.76,1.06-2.65,1.66-2.59.39,0,.63.35.71,1,0,.13.62,3.53-.9,5.48Zm-.25-3.92a6.11,6.11,0,0,0,.13,2.31,7.6,7.6,0,0,0,.35-3.62A10.82,10.82,0,0,0,414.21,74.33Z"/><path class="cls-11" d="M410.13,70.41c-.1,1.7.4,2.6.9,1.3a5.28,5.28,0,0,0,.4-2.5C410.83,68.91,410.33,69.81,410.13,70.41Z"/><path class="cls-12" d="M410.57,72.83h-.15c-.8-.18-.84-1.6-.79-2.44l0-.13a2.63,2.63,0,0,1,1.14-1.52,1,1,0,0,1,.86,0l.24.12,0,.27a5.66,5.66,0,0,1-.42,2.73C411.25,72.52,410.94,72.83,410.57,72.83Zm.05-2.32a6.57,6.57,0,0,0,0,.81,5.17,5.17,0,0,0,.31-1.44A2.59,2.59,0,0,0,410.62,70.51Z"/><g id="Shape_32_copy_4" data-name="Shape 32 copy 4"><path class="cls-11" d="M410.83,67.41c.2,1.5.7,2.3,1,1a5.45,5.45,0,0,0-.1-2.2C411.13,66,410.83,66.91,410.83,67.41Z"/></g><path class="cls-12" d="M411.46,69.57h0c-.2,0-.82,0-1.1-2.09v-.07a2,2,0,0,1,.66-1.54,1,1,0,0,1,.9-.13l.25.08.07.26a5.74,5.74,0,0,1,.11,2.4C412.26,68.78,412.08,69.57,411.46,69.57Zm-.13-2.19c0,.14,0,.27.06.38a5.12,5.12,0,0,0,0-.68A1,1,0,0,0,411.33,67.38Z"/><g id="Shape_32_copy_5" data-name="Shape 32 copy 5"><path class="cls-11" d="M409,67.21c.3,1.4,1,2,1.1.8a3.4,3.4,0,0,0-.3-2C409.23,65.91,409,66.81,409,67.21Z"/></g><path class="cls-12" d="M409.82,69.16c-.82,0-1.19-1.41-1.28-1.84v-.11a2.07,2.07,0,0,1,.57-1.47,1,1,0,0,1,.81-.22l.25,0,.12.23a3.87,3.87,0,0,1,.34,2.29c-.07.85-.45,1-.76,1.07Zm-.29-2c0,.19.09.34.13.47a3.06,3.06,0,0,0-.07-.81A1.86,1.86,0,0,0,409.53,67.16Z"/><g id="Shape_32_copy_3" data-name="Shape 32 copy 3"><path class="cls-11" d="M407.53,68.31c.1,1.2.7,1.8,1.1.8a3.67,3.67,0,0,0,.1-1.8A1.06,1.06,0,0,0,407.53,68.31Z"/></g><path class="cls-12" d="M408.17,70.12h-.12c-.55-.08-.94-.74-1-1.76v0a1.58,1.58,0,0,1,.54-1.13,1.52,1.52,0,0,1,1.22-.36l.37,0,.06.37a4.06,4.06,0,0,1-.12,2C408.82,70,408.43,70.12,408.17,70.12ZM408,68.3a2.26,2.26,0,0,0,.13.63h0a2.73,2.73,0,0,0,.13-1.05l-.06.05A.65.65,0,0,0,408,68.3Z"/><g id="Shape_32_copy_6" data-name="Shape 32 copy 6"><path class="cls-11" d="M402.83,66c.1.9.7,1.3,1.1.6a1.5,1.5,0,0,0,.1-1.3A1,1,0,0,0,402.83,66Z"/></g><path class="cls-12" d="M403.46,67.47l-.17,0c-.51-.1-.88-.63-1-1.38V66l0-.08a1.47,1.47,0,0,1,1.77-1.09l.25,0,.12.23a2,2,0,0,1-.1,1.75A1.1,1.1,0,0,1,403.46,67.47Zm-.12-1.42a1.14,1.14,0,0,0,.12.36l0,0a1.25,1.25,0,0,0,.15-.55A.4.4,0,0,0,403.34,66.05Z"/><g id="Shape_32_copy_7" data-name="Shape 32 copy 7"><path class="cls-11" d="M404.13,67.91c.1.9.7,1.3,1.1.6a1.5,1.5,0,0,0,.1-1.3A1,1,0,0,0,404.13,67.91Z"/></g><path class="cls-12" d="M404.76,69.37l-.17,0c-.51-.1-.88-.63-1-1.38v-.08l0-.08a1.47,1.47,0,0,1,1.77-1.09l.25,0,.12.23a2,2,0,0,1-.1,1.75A1.1,1.1,0,0,1,404.76,69.37ZM404.64,68a1.14,1.14,0,0,0,.12.36l0,0a1.4,1.4,0,0,0,.14-.55A.42.42,0,0,0,404.64,68Z"/><g id="Shape_32_copy_8" data-name="Shape 32 copy 8"><path class="cls-11" d="M402,67.91c.1.9.7,1.3,1.1.6a1.5,1.5,0,0,0,.1-1.3A1,1,0,0,0,402,67.91Z"/></g><path class="cls-12" d="M402.66,69.37l-.17,0c-.51-.1-.88-.63-1-1.38v-.08l0-.08a1.31,1.31,0,0,1,.59-.84,1.6,1.6,0,0,1,1.2-.25l.24,0,.11.22a2,2,0,0,1-.1,1.75A1.1,1.1,0,0,1,402.66,69.37ZM402.54,68a1.14,1.14,0,0,0,.12.36l0,0a1.31,1.31,0,0,0,.15-.54.8.8,0,0,0-.16.08A.41.41,0,0,0,402.54,68Z"/><g id="Shape_32_copy_2" data-name="Shape 32 copy 2"><path class="cls-11" d="M404.23,70.81c-.7,1.6-.5,2.6.5,1.6a3.86,3.86,0,0,0,1.1-2.2C405.33,69.51,404.53,70.31,404.23,70.81Z"/></g><path class="cls-12" d="M404.08,73.31a.68.68,0,0,1-.4-.12c-.7-.47-.24-1.82.09-2.58l0,0a2.18,2.18,0,0,1,1.51-1.12,1.1,1.1,0,0,1,.93.48l.11.16,0,.19a4.35,4.35,0,0,1-1.24,2.5A1.48,1.48,0,0,1,404.08,73.31Zm.59-2.27a5.09,5.09,0,0,0-.33,1l0,0a3.55,3.55,0,0,0,.89-1.56A1.28,1.28,0,0,0,404.67,71Z"/><g id="Shape_32_copy" data-name="Shape 32 copy"><path class="cls-11" d="M420.13,72.81c.5,1.1,1.2,1.4,1,.5a3.29,3.29,0,0,0-.7-1.6C420,71.71,420,72.51,420.13,72.81Z"/></g><path class="cls-12" d="M421,74.34c-.53,0-1-.65-1.33-1.32l0,0a1.83,1.83,0,0,1,.15-1.43.76.76,0,0,1,.63-.33h.24l.15.19a3.8,3.8,0,0,1,.8,1.83c.18.79-.23,1-.41,1.08A.76.76,0,0,1,421,74.34Z"/><path class="cls-11" d="M415.63,72.81a3.73,3.73,0,0,0,.6,1.7,3.1,3.1,0,0,0,.6-1.3c.2-.9-.8-1.9-.8-1.9A8.33,8.33,0,0,0,415.63,72.81Z"/><path class="cls-12" d="M416.21,75.38l-.4-.59a4.1,4.1,0,0,1-.68-2v-.1l.49.1-.49-.11a8.72,8.72,0,0,1,.42-1.57l.29-.71.53.54a3,3,0,0,1,.94,2.36,3.54,3.54,0,0,1-.69,1.49Zm-.08-2.52a2.61,2.61,0,0,0,.12.58,1.78,1.78,0,0,0,.09-.33,1.12,1.12,0,0,0-.13-.67C416.19,72.58,416.16,72.72,416.13,72.86Z"/><g id="Shape_26_copy" data-name="Shape 26 copy"><path class="cls-11" d="M410,82.11a3.22,3.22,0,0,0-.2,2.3,2.81,2.81,0,0,0,1.3-1.5,17.31,17.31,0,0,0,.4-3S410.63,81.31,410,82.11Z"/></g><path class="cls-12" d="M409.51,85.15l-.17-.61a3.62,3.62,0,0,1,.29-2.73c.58-.77,1.47-2.16,1.48-2.17l1-1.58L412,79.94a18.59,18.59,0,0,1-.42,3.12,3.24,3.24,0,0,1-1.54,1.79Zm1.33-3.31c-.14.21-.28.4-.41.57h0a1.84,1.84,0,0,0-.23,1.09,1.54,1.54,0,0,0,.44-.7A8,8,0,0,0,410.84,81.84Z"/><path class="cls-11" d="M421.33,66.61a9.86,9.86,0,0,0-.4,4.5c.7,2.6,1.3,1.6,1.3.8v-2.8C421.93,67,421.33,66.61,421.33,66.61Z"/><path class="cls-12" d="M421.81,73.29c-.71,0-1.09-1-1.36-2.05a10.25,10.25,0,0,1,.41-4.8l.22-.6.53.36c.18.12.81.69,1.11,2.84v2.87c0,.61-.26,1.3-.82,1.37Zm-.32-5.3a8.88,8.88,0,0,0-.07,3,6.53,6.53,0,0,0,.31.91V69.11A7.85,7.85,0,0,0,421.49,68Z"/><path class="cls-11" d="M423.43,68.31c-.4-2-1.8-1.4-1.9-.9.8,1.4,1.9,3.5,2.3,3.2S423.83,70.31,423.43,68.31Z"/><path class="cls-12" d="M423.74,71.14h-.14c-.57-.12-1.1-1-2.19-2.92L421,67.5l0-.19a1.27,1.27,0,0,1,1.25-.89c.38,0,1.3.18,1.63,1.79a10.51,10.51,0,0,0,.44,1.61c.14.39.29.8-.23,1.19A.63.63,0,0,1,423.74,71.14Zm-1.61-3.68.15.26c.22.39.53.94.82,1.43-.05-.21-.11-.46-.16-.74h0c-.12-.57-.34-.94-.59-1A.32.32,0,0,0,422.13,67.46Z"/><g id="Shape_35_copy" data-name="Shape 35 copy"><path class="cls-11" d="M419.83,66c-.1-2.6-.1-2.5-.6-.8-.2,1.7-.2,3,0,3S419.83,67.21,419.83,66Z"/></g><path class="cls-12" d="M419.33,68.78l-.21-.08a.52.52,0,0,1-.31-.18c-.11-.13-.42-.47-.08-3.37l.07-.24c.33-1.14.43-1.49.92-1.42s.52.25.61,2.5v0c0,.87-.24,2.3-.77,2.62Z"/><g id="Shape_35_copy_3" data-name="Shape 35 copy 3"><path class="cls-11" d="M420.63,63.51c0-2.1,0-2-.5-.6a8.07,8.07,0,0,0,0,2.4A3.14,3.14,0,0,0,420.63,63.51Z"/></g><path class="cls-12" d="M420.13,65.81h-.22l-.16-.16c-.12-.14-.31-.33-.12-2.78l.09-.31c.32-.9.45-1.24.92-1.16s.49.28.49,2.11C421.13,64,420.88,65.81,420.13,65.81Z"/><g id="Shape_35_copy_2" data-name="Shape 35 copy 2"><path class="cls-11" d="M422.13,63.11c-.2-4-.2-3.8-.7-1.2-.1,2.6,0,4.7.2,4.7S422.23,64.91,422.13,63.11Z"/></g><path class="cls-12" d="M421.63,67.11h-.21l-.18-.17c-.4-.41-.39-3-.31-5l.06-.36c.34-1.77.4-2,.92-2s.54,0,.72,3.56c.08,1.57-.2,3.44-.59,3.85l-.15.16Z"/><path class="cls-11" d="M416.83,66.41c-.1-2.9-.5-1.2-.6.2s-.4.6-.4.6a13,13,0,0,0-.4-3,22.63,22.63,0,0,0,0,4.2c.1,3.5.4,2.5.8,2.7C417.23,71.31,416.93,69.31,416.83,66.41Z"/><path class="cls-12" d="M416.36,71.63l-.23,0-.13,0a.53.53,0,0,1-.55-.12c-.32-.26-.46-.74-.52-3v-.24a23.28,23.28,0,0,1,0-4l.18-1.43.76,1.18a2.57,2.57,0,0,1,.22.72.49.49,0,0,1,.53-.34c.62,0,.67.75.72,2.06,0,.5,0,1,.06,1.39.09,2,.15,3.13-.43,3.63A.93.93,0,0,1,416.36,71.63Zm-.26-1a.66.66,0,0,1,.23,0,9.47,9.47,0,0,0,.06-2.79v0a.52.52,0,0,1-.3.13h-.18a1.77,1.77,0,0,1,0,.23v.24a14.64,14.64,0,0,0,.16,2.18Z"/><g id="Shape_36_copy" data-name="Shape 36 copy"><path class="cls-11" d="M418.83,63.21c0-4.2-.3-1.7-.3.3s-.2.8-.2.8-.1-3.7-.2-4.4a46.52,46.52,0,0,0,0,6c.1,4.9.2,3.7.5,3.8C419,70.21,418.83,67.41,418.83,63.21Z"/></g><path class="cls-12" d="M418.39,70.27a.47.47,0,0,1-.26-.07c-.36-.2-.42-.24-.5-4.28a47.45,47.45,0,0,1,0-6.05l1,0a5.2,5.2,0,0,1,.05.59c.53,0,.6.51.63,1s0,.94,0,1.79c0,1.2,0,2.29,0,3.22.05,3.14.05,3.62-.46,3.81a.65.65,0,0,1-.34,0A.52.52,0,0,1,418.39,70.27Z"/><g id="Shape_15_copy" data-name="Shape 15 copy"><path class="cls-11" d="M415.93,79c-.1,1.4-1.4,3.5-1.5,3.1-.8-2.1.7-5.2.7-5.2C415.73,75.71,416,77.61,415.93,79Z"/></g><path class="cls-12" d="M414.1,82.7l-.16-.47c-.85-2.21.67-5.4.74-5.54.33-.66.71-.71,1-.64.93.26.81,2.54.78,3h0c-.09,1.14-1.16,3.54-1.9,3.61Zm1.29-5.14a8.55,8.55,0,0,0-.68,3.5,5.86,5.86,0,0,0,.72-2.08h0A7.12,7.12,0,0,0,415.39,77.56Z"/><path class="cls-11" d="M412.63,71.31a13.54,13.54,0,0,0,.2,2.8,3.49,3.49,0,0,0,.9-1.5,18.4,18.4,0,0,0,0-4.9A23.14,23.14,0,0,0,412.63,71.31Z"/><path class="cls-12" d="M412.5,75.15l-.16-1a13.56,13.56,0,0,1-.21-2.93h0a22.88,22.88,0,0,1,1.13-3.73l1,.12a18.46,18.46,0,0,1,0,5.06,3.91,3.91,0,0,1-1,1.76Zm.63-3.79a7.69,7.69,0,0,0,0,1.43.86.86,0,0,0,.07-.25,10.49,10.49,0,0,0,.17-2.35A6.56,6.56,0,0,0,413.13,71.36Z"/><g id="Shape_16_copy" data-name="Shape 16 copy"><path class="cls-11" d="M410.23,64.91a6.57,6.57,0,0,0,.2,1.9s.8-.6.9-1a8.37,8.37,0,0,0,0-3.3A9.18,9.18,0,0,0,410.23,64.91Z"/></g><path class="cls-12" d="M410.13,67.66l-.19-.73a6.84,6.84,0,0,1-.21-2.08,9.53,9.53,0,0,1,1.17-2.6l.67-1.07.25,1.23a8.78,8.78,0,0,1,0,3.55,3.11,3.11,0,0,1-1.08,1.25Zm.87-3.49a3.68,3.68,0,0,0-.28.8h0a3.57,3.57,0,0,0,0,.85.51.51,0,0,0,.09-.14A4.77,4.77,0,0,0,411,64.17Z"/><g id="Shape_16_copy_2" data-name="Shape 16 copy 2"><path class="cls-11" d="M407.13,59.91a3.2,3.2,0,0,0-.1,1.3,1.89,1.89,0,0,0,.8-.5,4.73,4.73,0,0,0,.5-2.1A8.14,8.14,0,0,0,407.13,59.91Z"/></g><path class="cls-12" d="M406.6,61.88l-.07-.61a3.48,3.48,0,0,1,.15-1.58h0A7.85,7.85,0,0,1,408,58.24l.84-.75v1.12a5.23,5.23,0,0,1-.58,2.37,2.39,2.39,0,0,1-1.06.71Z"/><path class="cls-11" d="M412.63,78.31a8.56,8.56,0,0,0-.2,4.2,4.5,4.5,0,0,0,1.3-3.2C413.83,75,413,77.11,412.63,78.31Z"/><path class="cls-12" d="M412.15,83.59l-.21-1a8.88,8.88,0,0,1,.21-4.44v0c.46-1.38.78-2,1.38-1.91s.75.79.7,3.08a5,5,0,0,1-1.43,3.52Zm1-5.13a8.35,8.35,0,0,0-.35,2.75,3.81,3.81,0,0,0,.47-1.9c0-.51,0-.9,0-1.21Q413.17,78.26,413.11,78.46Z"/><path class="cls-11" d="M412.83,73.41c-1,.9-.9,3.1-.4,4a3.75,3.75,0,0,0,.8-3.2S412.93,73.41,412.83,73.41Z"/><path class="cls-12" d="M412.33,78.27l-.34-.62c-.62-1.11-.68-3.54.5-4.61l.15-.13h.19c.38,0,.55.3.87,1.13a4.27,4.27,0,0,1-.9,3.7Zm.43-3.85a3.92,3.92,0,0,0-.17,1.78A3.64,3.64,0,0,0,412.76,74.42Z"/><path class="cls-11" d="M410.53,76.11a3,3,0,0,0,.2-2.5"/><path class="cls-12" d="M411,76.32l-.9-.42a2.61,2.61,0,0,0,.2-2.07l.9-.44A3.54,3.54,0,0,1,411,76.32Z"/><path class="cls-11" d="M419.63,74.51a7.35,7.35,0,0,0-1.3,3.2,5.33,5.33,0,0,0,.4,2.8c.5-.1,1.1-1.3,1.1-1.9s.2-4.2.2-4.2A.6.6,0,0,1,419.63,74.51Z"/><path class="cls-12" d="M418.43,81.08l-.16-.36a6,6,0,0,1-.44-3.06,7.42,7.42,0,0,1,1.5-3.55l.13-.1h.29l.93-.92-.15,1.36s-.2,3.59-.2,4.17-.65,2.22-1.5,2.39Zm1-5.33a7,7,0,0,0-.63,2,5.3,5.3,0,0,0,.12,1.89,2.5,2.5,0,0,0,.38-1C419.33,78.25,419.4,76.84,419.46,75.75Z"/><path class="cls-11" d="M418.13,73.21c-.4-1.9-.9.5-.9,1.7a6.59,6.59,0,0,0,.4,2.5C418.73,76.11,418.53,75.11,418.13,73.21Z"/><path class="cls-12" d="M417.46,78.38l-.3-.79a7.08,7.08,0,0,1-.43-2.72h0s0-2.76,1-2.86c.63,0,.8.75.88,1.1h0c.39,1.88.66,3.13-.61,4.63Zm.33-4.32a6.18,6.18,0,0,0-.06.85,4.65,4.65,0,0,0,.08,1.25A3.93,3.93,0,0,0,417.79,74.06Z"/><g id="Shape_21_copy" data-name="Shape 21 copy"><path class="cls-11" d="M421.73,75.11c-.6-1.8-.8.6-.7,1.8a7.65,7.65,0,0,0,.7,2.4C422.63,77.91,422.33,76.91,421.73,75.11Z"/></g><path class="cls-12" d="M421.67,80.32l-.39-.78a8.17,8.17,0,0,1-.75-2.59c0-.46-.19-2.79.7-3,.62-.13.85.62,1,1h0c.58,1.74,1,3-.05,4.63Zm-.16-4.27a5.58,5.58,0,0,0,0,.82,5.15,5.15,0,0,0,.23,1.13A4.2,4.2,0,0,0,421.51,76.05Z"/><path class="cls-11" d="M420.23,82.31c.6-1,.5-2.1.6-4-.6,1.2-1.4,2.3-1.7,3a3.91,3.91,0,0,0,.2,2.1S419.63,83.31,420.23,82.31Z"/><path class="cls-12" d="M419,84l-.16-.46a4.06,4.06,0,0,1-.19-2.47,13,13,0,0,1,.76-1.36c.31-.5.66-1.07.95-1.66l.95.25c0,.37,0,.71,0,1a6.34,6.34,0,0,1-.63,3.21h0c-.58,1-1,1.24-1.17,1.32Zm1.22-3.69a11,11,0,0,0-.65,1.16,1.85,1.85,0,0,0,0,.89l.22-.34h0A3.69,3.69,0,0,0,420.24,80.35Z"/><path class="cls-11" d="M424,77.21s.2-.3.8.4c.2.8.2,3.3-.4,3-.3-.1-.5-1.6-.8-2.7A.57.57,0,0,1,424,77.21Z"/><path class="cls-12" d="M424.52,81.14a.79.79,0,0,1-.32-.08c-.39-.12-.53-.69-.8-1.94-.08-.36-.16-.74-.25-1.08a1,1,0,0,1,.61-1.26.74.74,0,0,1,.37-.13,1.46,1.46,0,0,1,1.08.64l.07.09,0,.11c.14.53.34,2.93-.36,3.5A.7.7,0,0,1,424.52,81.14Zm-.33-3.45h0c-.06,0-.09,0-.09.07.11.38.19.77.28,1.15l.06.3a6.43,6.43,0,0,0-.07-1.36Z"/><g id="Shape_41_copy" data-name="Shape 41 copy"><path class="cls-11" d="M422.33,79.11a2.89,2.89,0,0,1,1.6,1.7c.1,1.3-1,5.1-1.8,4.4-.4-.3-.2-2.6-.2-4.3C422.13,79.91,422.33,79.11,422.33,79.11Z"/></g><path class="cls-12" d="M422.33,85.8a.79.79,0,0,1-.53-.21c-.43-.32-.46-1.17-.4-3.34,0-.45,0-.91,0-1.34.21-1.11.41-1.92.41-1.92l.13-.51.5.15a3.44,3.44,0,0,1,1.92,2l0,.16c.08,1.1-.66,4.4-1.73,4.94A.81.81,0,0,1,422.33,85.8Zm.33-5.92c-.07.31-.16.7-.24,1.13s0,.8,0,1.27a17.78,17.78,0,0,0,0,2.35,8.79,8.79,0,0,0,1-3.7A2.84,2.84,0,0,0,422.66,79.88Z"/><path class="cls-11" d="M424.43,76.81a2.75,2.75,0,0,1,.8,1.5s-.8.3-1.5-.8-.2-1.5-.2-1.5S423.73,76.21,424.43,76.81Z"/><path class="cls-12" d="M425,78.85a2,2,0,0,1-1.65-1.07c-.92-1.44-.18-2.09-.09-2.16l.34-.28.32.32s.22.21.87.77l0,0a3.24,3.24,0,0,1,.94,1.77l.07.41-.39.14A1.13,1.13,0,0,1,425,78.85Zm-.81-1.6a2.37,2.37,0,0,0,.26.32A1.92,1.92,0,0,0,424.15,77.25Z"/><path class="cls-11" d="M419,69.41c-.1,1.1,0,1.4-.8,1.3-.3,1.2.2,3.8.8,4.2s.8-1.4.8-2.5A6.28,6.28,0,0,0,419,69.41Z"/><path class="cls-12" d="M419.17,75.47a.7.7,0,0,1-.45-.17c-.85-.56-1.28-3.5-1-4.71l.11-.43.44.06h.16a4.31,4.31,0,0,0,.05-.46l.16-1.82.78,1.18a6.74,6.74,0,0,1,.89,3.28c0,.11,0,2.58-.87,3A.59.59,0,0,1,419.17,75.47Zm.14-1Zm-.66-3.28a7.4,7.4,0,0,0,.46,3,7.39,7.39,0,0,0,.22-1.77,6.2,6.2,0,0,0-.19-1.4l0,0A.84.84,0,0,1,418.65,71.22Z"/><path class="cls-11" d="M418.13,82.71c-.4.9.4,2.2.4,2.2a2.79,2.79,0,0,0,.9-1.8,21.74,21.74,0,0,0-.4-3S418.53,81.81,418.13,82.71Z"/><path class="cls-12" d="M418.42,85.68l-.32-.51a3.3,3.3,0,0,1-.43-2.66h0c.38-.86.87-2.52.88-2.54l1,0a21.46,21.46,0,0,1,.41,3.1,3.33,3.33,0,0,1-1.07,2.18Zm.17-2.76a1.51,1.51,0,0,0,.06,1.06,1.69,1.69,0,0,0,.28-.87,8.05,8.05,0,0,0-.07-.89c-.09.25-.19.49-.27.7Z"/><path class="cls-11" d="M409.83,74.71a12.16,12.16,0,0,0-.2,2.3,3.13,3.13,0,0,0,.9-1.1,6.91,6.91,0,0,0,.4-2.5S409.93,74,409.83,74.71Z"/><path class="cls-12" d="M409.13,78V77a11.81,11.81,0,0,1,.21-2.4A2.92,2.92,0,0,1,410.67,73l.76-.45v.88a6.76,6.76,0,0,1-.49,2.78,3.38,3.38,0,0,1-1,1.22Zm1.21-3.31s0,.06,0,.08v.07a2.79,2.79,0,0,0-.09.51A5.23,5.23,0,0,0,410.34,74.7Z"/><g id="Shape_27_copy" data-name="Shape 27 copy"><path class="cls-11" d="M404.33,75.11a12.16,12.16,0,0,0-.2,2.3,3.13,3.13,0,0,0,.9-1.1,6.91,6.91,0,0,0,.4-2.5S404.43,74.31,404.33,75.11Z"/></g><path class="cls-12" d="M403.63,78.41v-1a11.86,11.86,0,0,1,.21-2.4,2.59,2.59,0,0,1,1.36-1.65l.73-.36v.81a6.76,6.76,0,0,1-.49,2.78,3.38,3.38,0,0,1-1,1.22Zm1.22-3.34,0,.1v.08a2.79,2.79,0,0,0-.09.51C404.77,75.56,404.81,75.32,404.85,75.07Z"/><g id="Shape_27_copy_2" data-name="Shape 27 copy 2"><path class="cls-11" d="M412.83,65.81a16.21,16.21,0,0,0,.3,2.3,5.39,5.39,0,0,0,.7-1.3,6.16,6.16,0,0,0-.1-2.5A2.36,2.36,0,0,0,412.83,65.81Z"/></g><path class="cls-12" d="M412.86,69.31l-.22-1.1a16.78,16.78,0,0,1-.31-2.4,2.76,2.76,0,0,1,1.09-1.89l.63-.49.17.77a6.23,6.23,0,0,1,.07,2.81,5.9,5.9,0,0,1-.76,1.4Zm.55-3.83a.8.8,0,0,0-.08.33,7.6,7.6,0,0,0,.05.76A3.13,3.13,0,0,0,413.41,65.48Z"/><path class="cls-11" d="M409.93,78a2.66,2.66,0,0,0,.3-1.2c0-.7-.8.8-.8.8s.3-1.8-.1-1.2c-.1.2-.3.4-.4.6a2.69,2.69,0,0,0,0,2.1A5.82,5.82,0,0,0,409.93,78Z"/><path class="cls-12" d="M408.75,79.93l-.28-.61a3.21,3.21,0,0,1,0-2.53,2.07,2.07,0,0,1,.25-.38c0-.07.11-.15.15-.22.32-.48.65-.41.78-.36a.49.49,0,0,1,.32.32.54.54,0,0,1,.31,0,.62.62,0,0,1,.44.67,3.24,3.24,0,0,1-.35,1.43h0a6.35,6.35,0,0,1-1.12,1.25Zm.49-2.3a2.25,2.25,0,0,0,0,.51,1.83,1.83,0,0,0,.27-.35h0l0-.06Z"/><path class="cls-11" d="M406.23,81.61c-1.1.8-.9,1.4-.8,2.3a2.71,2.71,0,0,0,2.1-1.3,13.81,13.81,0,0,0,1.1-3.6A24.1,24.1,0,0,1,406.23,81.61Z"/><path class="cls-12" d="M405.43,84.41H405l-.08-.68a2.26,2.26,0,0,1,1-2.52,12.75,12.75,0,0,0,1.79-1.9c.24-.28.43-.52.56-.65l1.11-1.1-.26,1.53A14,14,0,0,1,408,82.86,3.18,3.18,0,0,1,405.43,84.41Zm2.25-3.52A8.51,8.51,0,0,1,406.54,82l0,0c-.65.47-.71.76-.66,1.31a2.42,2.42,0,0,0,1.25-1A6.65,6.65,0,0,0,407.68,80.89Z"/><path class="cls-11" d="M406.23,79.31a4.29,4.29,0,0,0-1.1,2.1c0,.9-.3,1.1-.6,1.1s-.6-.8-.2-1.7a2.83,2.83,0,0,1,1.3-1.3Z"/><path class="cls-12" d="M404.53,83a.72.72,0,0,1-.6-.37,2.24,2.24,0,0,1-.06-2,3.29,3.29,0,0,1,1.55-1.55l2.47-.83-1.29,1.42a3.6,3.6,0,0,0-1,1.76C405.63,82.8,404.94,83,404.53,83Zm0-1Z"/><path class="cls-11" d="M400.73,80.81a1.81,1.81,0,0,0-1.7,2.3c.3,1.2,1.4.4,2.8-.9a4.6,4.6,0,0,0,1.5-2.8C403.13,78.81,401.93,80.71,400.73,80.81Z"/><path class="cls-12" d="M399.6,84.2a.92.92,0,0,1-.29,0,1.17,1.17,0,0,1-.77-.93,2.32,2.32,0,0,1,.34-1.93,2.45,2.45,0,0,1,1.81-1,3.13,3.13,0,0,0,1.45-.9c.48-.41.82-.7,1.22-.59a.62.62,0,0,1,.44.43l0,.1v.1a5.14,5.14,0,0,1-1.66,3.13C401.08,83.59,400.28,84.2,399.6,84.2Zm2.94-3.81a3.3,3.3,0,0,1-1.77.92h0a1.41,1.41,0,0,0-1.07.57,1.33,1.33,0,0,0-.19,1.11.73.73,0,0,0,.09.22c.11,0,.51-.08,1.89-1.36A4.63,4.63,0,0,0,402.54,80.39Z"/><path class="cls-11" d="M416.23,77.41c.3.9.7-.6.8-.9a4.37,4.37,0,0,0-.8-2.7C415.83,76.21,415.93,76.41,416.23,77.41Z"/><path class="cls-12" d="M416.44,78.2c-.22,0-.51-.11-.69-.63l0-.11c-.31-1-.37-1.39,0-3.73l.19-1.19.71,1a4.89,4.89,0,0,1,.88,3.07l0,.2c-.25.79-.48,1.4-1,1.41Zm.05-2.67a3.85,3.85,0,0,0,0,1v0l0-.14A2.09,2.09,0,0,0,416.49,75.53Z"/><path class="cls-11" d="M417.33,70a5.42,5.42,0,0,1-.6,1.1,6.86,6.86,0,0,0,.4,1.9,7.91,7.91,0,0,0,.8-1.3,4.48,4.48,0,0,0,0-2.3C417.83,69.21,417.53,69.41,417.33,70Z"/><path class="cls-12" d="M417,74.07l-.31-.9a5.91,5.91,0,0,1-.41-2.18l0-.1a4.84,4.84,0,0,1,.26-.43,1.91,1.91,0,0,0,.31-.61h0c.21-.62.54-1,.93-1a.62.62,0,0,1,.6.35l0,.1a5,5,0,0,1,0,2.56,8.42,8.42,0,0,1-.88,1.46Zm.25-2.8a3.16,3.16,0,0,0,.1.56,2.09,2.09,0,0,0,.15-.3,3.21,3.21,0,0,0,.12-.84,2.51,2.51,0,0,1-.22.34A2.52,2.52,0,0,0,417.21,71.27Z"/><path class="cls-11" d="M422.23,67.91c-.4,1.4-1-.5-1-1.7a3.66,3.66,0,0,1,1-2.3A12.5,12.5,0,0,1,422.23,67.91Z"/><path class="cls-12" d="M421.91,68.91h-.09c-1-.14-1.09-2.66-1.09-2.69a4.13,4.13,0,0,1,1.15-2.65l.69-.7.15,1a12.8,12.8,0,0,1,0,4.21h0C422.51,68.74,422.18,68.91,421.91,68.91Zm0-3.5a2.32,2.32,0,0,0-.15.8,4.77,4.77,0,0,0,.12,1A9.3,9.3,0,0,0,421.88,65.41Z"/><path class="cls-11" d="M425.63,70.11c-.1-1-.2-2.7-.2-2.7l-.9-1.3v2.3c0,2.2.3,3.8.9,3.8S425.63,71.11,425.63,70.11Z"/><path class="cls-12" d="M425.43,72.71c-.35,0-1.4,0-1.4-4.3v-3.9l1.89,2.73v.14s.1,1.69.2,2.68v0a7.4,7.4,0,0,0,.05.83c.05.67.1,1.21-.21,1.54A.73.73,0,0,1,425.43,72.71ZM425,69.06c0,.55,0,1,.09,1.35v-.27C425.1,69.82,425.07,69.44,425,69.06Z"/><path class="cls-11" d="M415.53,70.71c-.3,1.4.3,3.7.6,3.4,1.4-1.8.8-5.1.8-5.1C416.73,67.61,415.93,69.31,415.53,70.71Z"/><path class="cls-12" d="M416.26,74.75l-.47-.18c-.66-.37-1-2.71-.75-4v0c.5-1.76,1.05-2.65,1.66-2.59.39,0,.63.35.71,1,0,.13.62,3.53-.9,5.48ZM416,70.83a6.11,6.11,0,0,0,.13,2.31,7.59,7.59,0,0,0,.35-3.62A10.82,10.82,0,0,0,416,70.83Z"/><path class="cls-11" d="M411.93,66.91c-.1,1.7.4,2.6.9,1.3a5.28,5.28,0,0,0,.4-2.5C412.63,65.41,412.13,66.31,411.93,66.91Z"/><path class="cls-12" d="M412.37,69.33h-.16c-.79-.18-.83-1.6-.78-2.44l0-.13a2.63,2.63,0,0,1,1.14-1.52,1,1,0,0,1,.86,0l.25.12,0,.27a5.88,5.88,0,0,1-.43,2.73C413.05,69,412.74,69.33,412.37,69.33Zm.05-2.32a6.57,6.57,0,0,0,0,.81,5.17,5.17,0,0,0,.31-1.44A2.42,2.42,0,0,0,412.42,67Z"/><g id="Shape_32_copy_9" data-name="Shape 32 copy 9"><path class="cls-11" d="M410,68.81c-.1,1.7.4,2.6.9,1.3a5.28,5.28,0,0,0,.4-2.5C410.73,67.31,410.23,68.21,410,68.81Z"/></g><path class="cls-12" d="M410.47,71.23h-.16c-.79-.18-.83-1.6-.78-2.44l0-.13a2.63,2.63,0,0,1,1.14-1.52,1.07,1.07,0,0,1,.86,0l.25.13,0,.27a5.88,5.88,0,0,1-.43,2.73C411.15,70.92,410.84,71.23,410.47,71.23Zm0-2.32a6.57,6.57,0,0,0,0,.81,5,5,0,0,0,.31-1.44A2.42,2.42,0,0,0,410.52,68.91Z"/><g id="Shape_32_copy_4-2" data-name="Shape 32 copy 4-2"><path class="cls-11" d="M412.63,63.91c.2,1.5.7,2.3,1,1a5.45,5.45,0,0,0-.1-2.2C412.93,62.51,412.63,63.41,412.63,63.91Z"/></g><path class="cls-12" d="M413.26,66.07h0c-.2,0-.82,0-1.1-2.09v-.07a2,2,0,0,1,.66-1.54,1,1,0,0,1,.9-.13l.25.08.07.25a5.81,5.81,0,0,1,.11,2.41C414.06,65.28,413.88,66.07,413.26,66.07Zm-.13-2.19c0,.14,0,.27.06.38a5.3,5.3,0,0,0,0-.69A1.12,1.12,0,0,0,413.13,63.88Z"/><g id="Shape_32_copy_5-2" data-name="Shape 32 copy 5-2"><path class="cls-11" d="M410.83,63.71c.3,1.4,1,2,1.1.8a3.4,3.4,0,0,0-.3-2C411,62.41,410.83,63.31,410.83,63.71Z"/></g><path class="cls-12" d="M411.62,65.66c-.82,0-1.19-1.41-1.28-1.84v-.11a2.07,2.07,0,0,1,.57-1.47,1,1,0,0,1,.81-.22l.25,0,.12.23a3.87,3.87,0,0,1,.34,2.29c-.07.85-.45,1-.76,1.07Zm-.29-2c0,.19.09.34.13.47a3.06,3.06,0,0,0-.07-.81A1.86,1.86,0,0,0,411.33,63.66Z"/><g id="Shape_32_copy_3-2" data-name="Shape 32 copy 3-2"><path class="cls-11" d="M409.33,64.81c.1,1.2.7,1.8,1.1.8a3.67,3.67,0,0,0,.1-1.8A1.06,1.06,0,0,0,409.33,64.81Z"/></g><path class="cls-12" d="M410,66.62h-.12c-.55-.08-.94-.74-1-1.76v0a1.58,1.58,0,0,1,.54-1.13,1.52,1.52,0,0,1,1.22-.36l.37,0,.06.37a4.06,4.06,0,0,1-.12,2C410.62,66.48,410.23,66.62,410,66.62Zm-.14-1.82a2.26,2.26,0,0,0,.13.63h0a2.73,2.73,0,0,0,.13-1.05l-.06.05A.65.65,0,0,0,409.83,64.8Z"/><g id="Shape_32_copy_6-2" data-name="Shape 32 copy 6-2"><path class="cls-11" d="M404.63,62.51c.1.9.7,1.3,1.1.6a1.5,1.5,0,0,0,.1-1.3A1,1,0,0,0,404.63,62.51Z"/></g><path class="cls-12" d="M405.26,64l-.17,0c-.51-.1-.88-.63-1-1.38v-.08l0-.08a1.47,1.47,0,0,1,1.77-1.09l.25,0,.12.23a2,2,0,0,1-.1,1.75A1.1,1.1,0,0,1,405.26,64Zm-.12-1.42a1.14,1.14,0,0,0,.12.36l0,0a1.4,1.4,0,0,0,.14-.55A.42.42,0,0,0,405.14,62.55Z"/><g id="Shape_32_copy_7-2" data-name="Shape 32 copy 7-2"><path class="cls-11" d="M405.93,64.41c.1.9.7,1.3,1.1.6a1.5,1.5,0,0,0,.1-1.3A1,1,0,0,0,405.93,64.41Z"/></g><path class="cls-12" d="M406.56,65.87l-.17,0c-.51-.1-.88-.63-1-1.38v-.08l0-.08a1.47,1.47,0,0,1,1.77-1.09l.25,0,.12.23a2,2,0,0,1-.1,1.75A1.1,1.1,0,0,1,406.56,65.87Zm-.12-1.42a1.14,1.14,0,0,0,.12.36l0,0a1.25,1.25,0,0,0,.15-.55A.42.42,0,0,0,406.44,64.45Z"/><g id="Shape_32_copy_8-2" data-name="Shape 32 copy 8-2"><path class="cls-11" d="M403.83,64.41c.1.9.7,1.3,1.1.6a1.5,1.5,0,0,0,.1-1.3A1,1,0,0,0,403.83,64.41Z"/></g><path class="cls-12" d="M404.46,65.87l-.17,0c-.51-.1-.88-.63-1-1.38v-.08l0-.08a1.31,1.31,0,0,1,.59-.84,1.6,1.6,0,0,1,1.2-.25l.24.05.11.22a2,2,0,0,1-.1,1.75A1.1,1.1,0,0,1,404.46,65.87Zm-.12-1.42a1.14,1.14,0,0,0,.12.36l0,0a1.31,1.31,0,0,0,.15-.54.8.8,0,0,0-.16.08A.41.41,0,0,0,404.34,64.45Z"/><g id="Shape_32_copy_2-2" data-name="Shape 32 copy 2-2"><path class="cls-11" d="M406,67.31c-.7,1.6-.5,2.6.5,1.6a3.86,3.86,0,0,0,1.1-2.2C407.13,66,406.33,66.81,406,67.31Z"/></g><path class="cls-12" d="M405.88,69.81a.68.68,0,0,1-.4-.12c-.7-.47-.24-1.82.09-2.58l0,0a2.18,2.18,0,0,1,1.51-1.12,1.13,1.13,0,0,1,.93.48l.11.16,0,.19a4.35,4.35,0,0,1-1.24,2.5A1.5,1.5,0,0,1,405.88,69.81Zm.59-2.27a5.09,5.09,0,0,0-.33,1l0,0a3.48,3.48,0,0,0,.9-1.56A1.28,1.28,0,0,0,406.47,67.54Z"/><g id="Shape_32_copy_10" data-name="Shape 32 copy 10"><path class="cls-11" d="M408.93,72.91c-.7,1.6-.5,2.6.5,1.6a3.86,3.86,0,0,0,1.1-2.2C410,71.71,409.23,72.51,408.93,72.91Z"/></g><path class="cls-12" d="M408.78,75.41a.68.68,0,0,1-.4-.12c-.7-.47-.24-1.82.09-2.58l.06-.1a2.33,2.33,0,0,1,1.54-1,1,1,0,0,1,.84.39l.14.17,0,.21a4.35,4.35,0,0,1-1.24,2.5A1.5,1.5,0,0,1,408.78,75.41Zm.58-2.24a4.37,4.37,0,0,0-.32,1l0,0a3.4,3.4,0,0,0,.88-1.49A1.62,1.62,0,0,0,409.36,73.17Z"/><path class="cls-11" d="M417.43,69.31A3.73,3.73,0,0,0,418,71a3.1,3.1,0,0,0,.6-1.3c.2-.9-.8-1.9-.8-1.9A8.33,8.33,0,0,0,417.43,69.31Z"/><path class="cls-12" d="M418,71.88l-.39-.59a4.1,4.1,0,0,1-.68-2v-.1l.49.1-.49-.11a8.72,8.72,0,0,1,.42-1.57l.29-.71.53.54a3,3,0,0,1,.94,2.36,3.54,3.54,0,0,1-.69,1.49Zm-.07-2.52a2.61,2.61,0,0,0,.12.58,1.78,1.78,0,0,0,.09-.33,1.12,1.12,0,0,0-.13-.67C418,69.08,418,69.22,417.93,69.36Z"/><g id="Shape_33_copy" data-name="Shape 33 copy"><path class="cls-11" d="M421.43,69.71a3.73,3.73,0,0,0,.6,1.7,3.1,3.1,0,0,0,.6-1.3c.2-.9-.8-1.9-.8-1.9A8.33,8.33,0,0,0,421.43,69.71Z"/></g><path class="cls-12" d="M422,72.28l-.39-.59a4.15,4.15,0,0,1-.68-2v-.1l.49.1-.49-.11a8.72,8.72,0,0,1,.42-1.57l.29-.71.53.54a3,3,0,0,1,.94,2.36,3.67,3.67,0,0,1-.69,1.49Zm-.07-2.52a2.42,2.42,0,0,0,.12.57,1.68,1.68,0,0,0,.09-.32,1.12,1.12,0,0,0-.13-.67C422,69.48,422,69.62,421.93,69.76Z"/><g id="Shape_26_copy-2" data-name="Shape 26 copy-2"><path class="cls-11" d="M410.83,76.71a3.22,3.22,0,0,0-.2,2.3,2.81,2.81,0,0,0,1.3-1.5,17.31,17.31,0,0,0,.4-3S411.43,75.91,410.83,76.71Z"/></g><path class="cls-12" d="M410.31,79.76l-.17-.62a3.62,3.62,0,0,1,.29-2.73h0c.58-.77,1.47-2.15,1.48-2.17l1-1.57-.09,1.87a18.59,18.59,0,0,1-.42,3.12,3.24,3.24,0,0,1-1.54,1.79Zm1.33-3.32c-.14.21-.28.4-.41.57h0a1.78,1.78,0,0,0-.23,1.1,1.57,1.57,0,0,0,.44-.71A6.42,6.42,0,0,0,411.64,76.44Z"/><path class="cls-11" d="M423.13,63.11a9.86,9.86,0,0,0-.4,4.5c.7,2.6,1.3,1.6,1.3.8v-2.8C423.73,63.51,423.13,63.11,423.13,63.11Z"/><path class="cls-12" d="M423.61,69.79c-.71,0-1.09-1-1.36-2.05a10.25,10.25,0,0,1,.41-4.8l.22-.6.53.36c.18.12.81.69,1.11,2.84v2.87c0,.61-.26,1.3-.82,1.37Zm-.32-5.3a8.88,8.88,0,0,0-.07,3,7,7,0,0,0,.31.91V65.61A7.85,7.85,0,0,0,423.29,64.49Z"/><path class="cls-11" d="M426.13,73.61c0,2,1.6,1.7,1.7,1.3-.5-1.5-1.2-3.8-1.7-3.6S426.13,71.61,426.13,73.61Z"/><path class="cls-12" d="M427.23,75.7H427c-.33,0-1.41-.31-1.41-2.08A8.52,8.52,0,0,0,425.5,72a.89.89,0,0,1,.33-1.06l.11-.06a.66.66,0,0,1,.55,0c.54.25.94,1.22,1.67,3.45l.19.57,0,.14A1.05,1.05,0,0,1,427.23,75.7Zm-.62-2.79c0,.2,0,.44,0,.7,0,.55.13.92.38,1a.39.39,0,0,0,.22,0l0-.06C427.06,74.19,426.84,73.5,426.61,72.91Z"/><g id="Shape_35_copy-2" data-name="Shape 35 copy-2"><path class="cls-11" d="M421.63,62.51c-.1-2.6-.1-2.5-.6-.8-.2,1.7-.2,3,0,3S421.63,63.71,421.63,62.51Z"/></g><path class="cls-12" d="M421.13,65.28l-.21-.08a.52.52,0,0,1-.31-.18c-.11-.13-.42-.47-.08-3.37l.07-.24c.33-1.14.43-1.48.92-1.42s.52.25.61,2.5v0c0,.87-.25,2.3-.77,2.62Z"/><g id="Shape_35_copy_3-2" data-name="Shape 35 copy 3-2"><path class="cls-11" d="M422.43,60c0-2.1,0-2-.5-.6a8.07,8.07,0,0,0,0,2.4A3.14,3.14,0,0,0,422.43,60Z"/></g><path class="cls-12" d="M421.93,62.31h-.22l-.16-.16c-.12-.14-.31-.33-.12-2.78l.09-.31c.32-.9.45-1.24.92-1.16s.49.28.49,2.11C422.93,60.5,422.68,62.31,421.93,62.31Z"/><g id="Shape_35_copy_2-2" data-name="Shape 35 copy 2-2"><path class="cls-11" d="M423.93,59.61c-.2-4-.2-3.8-.7-1.2-.1,2.6,0,4.7.2,4.7S424,61.41,423.93,59.61Z"/></g><path class="cls-12" d="M423.43,63.61h-.22l-.17-.17c-.4-.41-.39-3-.31-5l.06-.36c.34-1.77.39-2,.92-2s.54,0,.72,3.57c.08,1.56-.2,3.43-.59,3.84l-.15.16Z"/><path class="cls-11" d="M418.63,62.91c-.1-2.9-.5-1.2-.6.2s-.4.6-.4.6a13,13,0,0,0-.4-3,22.63,22.63,0,0,0,0,4.2c.1,3.4.4,2.5.8,2.7C419,67.81,418.73,65.81,418.63,62.91Z"/><path class="cls-12" d="M418.16,68.13l-.23,0-.13,0a.64.64,0,0,1-.57-.16c-.29-.27-.44-.76-.5-3v-.24a21.38,21.38,0,0,1,0-4l.18-1.43.75,1.19a2.41,2.41,0,0,1,.22.7.49.49,0,0,1,.53-.33c.62,0,.67.75.72,2.06,0,.49,0,1,.06,1.39.09,2,.15,3.13-.43,3.63A.93.93,0,0,1,418.16,68.13Zm-.26-1a.66.66,0,0,1,.23,0,9.47,9.47,0,0,0,.06-2.79v0a.52.52,0,0,1-.3.13h-.18a1.77,1.77,0,0,1,0,.23v.24A13.15,13.15,0,0,0,417.9,67.08Z"/><g id="Shape_36_copy-2" data-name="Shape 36 copy-2"><path class="cls-11" d="M420.63,59.71c0-4.2-.3-1.7-.3.3s-.2.8-.2.8-.1-3.7-.2-4.4a46.52,46.52,0,0,0,0,6c.1,4.9.2,3.7.5,3.8C420.83,66.71,420.63,63.91,420.63,59.71Z"/></g><path class="cls-12" d="M420.19,66.77a.47.47,0,0,1-.26-.07c-.36-.2-.42-.24-.5-4.28a47.45,47.45,0,0,1,0-6.05l1,0a5.2,5.2,0,0,1,.05.59h0c.52,0,.55.52.58,1s0,.94,0,1.79c0,1.2,0,2.29,0,3.22,0,3.14,0,3.62-.46,3.81a.65.65,0,0,1-.34,0A.52.52,0,0,1,420.19,66.77Z"/><g id="Shape_15_copy-2" data-name="Shape 15 copy-2"><path class="cls-11" d="M417.73,75.51c-.1,1.4-1.4,3.5-1.5,3.1-.8-2.1.7-5.2.7-5.2C417.53,72.21,417.83,74.11,417.73,75.51Z"/></g><path class="cls-12" d="M415.9,79.2l-.16-.47c-.85-2.21.67-5.4.74-5.54.33-.66.71-.71,1-.64.92.26.81,2.54.78,3h0c-.09,1.15-1.16,3.55-1.9,3.61Zm1.29-5.14a8.55,8.55,0,0,0-.68,3.5,5.86,5.86,0,0,0,.72-2.08A7.12,7.12,0,0,0,417.19,74.06Z"/><path class="cls-11" d="M414.43,67.81a13.54,13.54,0,0,0,.2,2.8,3.49,3.49,0,0,0,.9-1.5,18.4,18.4,0,0,0,0-4.9A23.14,23.14,0,0,0,414.43,67.81Z"/><path class="cls-12" d="M414.3,71.65l-.16-1a13.56,13.56,0,0,1-.21-2.93h0A22.88,22.88,0,0,1,415.06,64l1,.12a18.46,18.46,0,0,1,0,5.06A3.91,3.91,0,0,1,415,71Zm.63-3.79a7.69,7.69,0,0,0,0,1.43A.86.86,0,0,0,415,69a11.12,11.12,0,0,0,.17-2.35A6.56,6.56,0,0,0,414.93,67.86Z"/><g id="Shape_42_copy" data-name="Shape 42 copy"><path class="cls-11" d="M425.43,73.41a3.21,3.21,0,0,1,.2,1.7s-.8,0-1.2-1.2.3-1.6.3-1.6A2.72,2.72,0,0,1,425.43,73.41Z"/></g><path class="cls-12" d="M426.05,75.61h-.42A2,2,0,0,1,424,74.07a1.72,1.72,0,0,1,.53-2.19l.27-.16.26.18a3,3,0,0,1,.87,1.31v0a3.63,3.63,0,0,1,.23,2Zm-1.25-2.34a2.17,2.17,0,0,0,.1.48,1.72,1.72,0,0,0,.24.49,2.8,2.8,0,0,0-.17-.63A3.58,3.58,0,0,0,424.8,73.27Z"/><g id="Shape_16_copy-2" data-name="Shape 16 copy-2"><path class="cls-11" d="M412,61.41a6.57,6.57,0,0,0,.2,1.9s.8-.6.9-1a8.37,8.37,0,0,0,0-3.3A9.18,9.18,0,0,0,412,61.41Z"/></g><path class="cls-12" d="M411.93,64.16l-.19-.73a6.84,6.84,0,0,1-.21-2.08,9.53,9.53,0,0,1,1.17-2.6l.67-1.07.25,1.23a8.78,8.78,0,0,1,0,3.55,3.11,3.11,0,0,1-1.08,1.25Zm.87-3.49a3.68,3.68,0,0,0-.28.8h0a3.57,3.57,0,0,0,0,.85.51.51,0,0,0,.09-.14A4.77,4.77,0,0,0,412.8,60.67Z"/><g id="Shape_16_copy_3" data-name="Shape 16 copy 3"><path class="cls-11" d="M408.43,68.41a6.57,6.57,0,0,0,.2,1.9s.8-.6.9-1a8.37,8.37,0,0,0,0-3.3A11.18,11.18,0,0,0,408.43,68.41Z"/></g><path class="cls-12" d="M408.33,71.16l-.19-.73a6.87,6.87,0,0,1-.21-2.09h0a10.48,10.48,0,0,1,1.17-2.58l.66-1.13.26,1.28a8.78,8.78,0,0,1,0,3.55,3.11,3.11,0,0,1-1.08,1.25Zm.59-2.68a3.57,3.57,0,0,0,0,.85,1.37,1.37,0,0,0,.1-.14,5,5,0,0,0,.15-1.48,4.19,4.19,0,0,0-.28.77Z"/><g id="Shape_16_copy_4" data-name="Shape 16 copy 4"><path class="cls-11" d="M406.73,71a6.57,6.57,0,0,0,.2,1.9s.8-.6.9-1a8.37,8.37,0,0,0,0-3.3A11.18,11.18,0,0,0,406.73,71Z"/></g><path class="cls-12" d="M406.63,73.76l-.19-.73a6.87,6.87,0,0,1-.21-2.09,10.48,10.48,0,0,1,1.17-2.58l.66-1.13.26,1.28a8.78,8.78,0,0,1,0,3.55,3.11,3.11,0,0,1-1.08,1.25Zm.87-3.45a4.19,4.19,0,0,0-.28.77h0a3.57,3.57,0,0,0,0,.85.51.51,0,0,0,.09-.14A4.77,4.77,0,0,0,407.5,70.31Z"/><g id="Shape_16_copy_2-2" data-name="Shape 16 copy 2-2"><path class="cls-11" d="M408.93,56.41a3.2,3.2,0,0,0-.1,1.3,1.89,1.89,0,0,0,.8-.5,4.73,4.73,0,0,0,.5-2.1A8.14,8.14,0,0,0,408.93,56.41Z"/></g><path class="cls-12" d="M408.4,58.38l-.07-.61a3.48,3.48,0,0,1,.15-1.58h0a7.85,7.85,0,0,1,1.31-1.45l.84-.75v1.12a5.23,5.23,0,0,1-.58,2.37,2.39,2.39,0,0,1-1.06.71Z"/><path class="cls-11" d="M414.43,74.81a8.56,8.56,0,0,0-.2,4.2,4.5,4.5,0,0,0,1.3-3.2C415.63,71.51,414.83,73.61,414.43,74.81Z"/><path class="cls-12" d="M414,80.09l-.21-1a8.88,8.88,0,0,1,.21-4.44v0c.46-1.38.78-2,1.38-1.91s.75.79.7,3.08a5,5,0,0,1-1.43,3.52Zm1-5.13a8.38,8.38,0,0,0-.35,2.75,3.69,3.69,0,0,0,.47-1.9c0-.51,0-.9,0-1.21Q415,74.76,414.91,75Z"/><path class="cls-11" d="M414.63,69.91c-1,.9-.9,3.1-.4,4a3.75,3.75,0,0,0,.8-3.2S414.73,69.91,414.63,69.91Z"/><path class="cls-12" d="M414.13,74.77l-.34-.62c-.62-1.11-.68-3.54.5-4.61l.15-.13h.19c.38,0,.56.3.87,1.13a4.27,4.27,0,0,1-.9,3.7Zm.43-3.85a3.89,3.89,0,0,0-.17,1.77A3.59,3.59,0,0,0,414.56,70.92Z"/><path class="cls-11" d="M421.43,71a7.35,7.35,0,0,0-1.3,3.2,5.33,5.33,0,0,0,.4,2.8c.5-.1,1.1-1.3,1.1-1.9s.2-4.2.2-4.2A.6.6,0,0,1,421.43,71Z"/><path class="cls-12" d="M420.23,77.58l-.16-.36a6,6,0,0,1-.44-3.06,7.52,7.52,0,0,1,1.5-3.55l.13-.1h.29l.93-.93-.15,1.37s-.2,3.59-.2,4.17-.65,2.22-1.5,2.39Zm1-5.33a7.32,7.32,0,0,0-.62,2,5.3,5.3,0,0,0,.12,1.89,2.5,2.5,0,0,0,.38-1C421.13,74.75,421.2,73.34,421.25,72.25Z"/><path class="cls-11" d="M419.93,69.71c-.4-1.9-.9.5-.9,1.7a9.93,9.93,0,0,0,.4,2.5C420.53,72.61,420.33,71.61,419.93,69.71Z"/><path class="cls-12" d="M419.22,74.93l-.27-.87a10.35,10.35,0,0,1-.42-2.65s0-2.8,1-2.9c.63,0,.8.75.88,1.1h0c.39,1.88.66,3.13-.61,4.63Zm.37-4.37a6.18,6.18,0,0,0-.06.85,7.26,7.26,0,0,0,.11,1.17A4.1,4.1,0,0,0,419.59,70.56Z"/><g id="Shape_21_copy-2" data-name="Shape 21 copy-2"><path class="cls-11" d="M423.53,71.61c-.6-1.8-.8.6-.7,1.8a7.65,7.65,0,0,0,.7,2.4C424.43,74.41,424.13,73.41,423.53,71.61Z"/></g><path class="cls-12" d="M423.47,76.82l-.39-.78a8.17,8.17,0,0,1-.75-2.59c0-.46-.19-2.79.7-3,.6-.13.85.62,1,1h0c.58,1.74,1,3-.05,4.63Zm-.16-4.27a5.58,5.58,0,0,0,0,.82,5.15,5.15,0,0,0,.23,1.13A4.2,4.2,0,0,0,423.31,72.55Z"/><path class="cls-11" d="M422,78.81c.6-1,.5-2.1.6-4-.6,1.2-1.4,2.3-1.7,3a3.91,3.91,0,0,0,.2,2.1S421.43,79.81,422,78.81Z"/><path class="cls-12" d="M420.82,80.54l-.16-.46a4.06,4.06,0,0,1-.19-2.47,12,12,0,0,1,.76-1.35c.31-.51.66-1.08.95-1.67l.95.25c0,.37,0,.71,0,1a6.34,6.34,0,0,1-.63,3.21h0c-.58,1-1,1.24-1.17,1.32ZM422,76.85a11,11,0,0,0-.65,1.16,1.85,1.85,0,0,0,0,.89l.22-.34h0A3.69,3.69,0,0,0,422,76.85Z"/><path class="cls-11" d="M425.83,75s.2-.3.8.4c.2.8.2,3.3-.4,3-.3-.1-.5-1.6-.8-2.7C425.33,75.51,425.53,75.21,425.83,75Z"/><path class="cls-12" d="M426.33,78.94a.8.8,0,0,1-.33-.08c-.39-.12-.53-.68-.8-1.93-.08-.36-.16-.74-.25-1.09s0-.84.55-1.21a.69.69,0,0,1,.43-.18,1.49,1.49,0,0,1,1.08.64l.07.09,0,.11c.14.53.34,2.93-.36,3.49A.63.63,0,0,1,426.33,78.94Zm-.42-3.33c.11.4.19.76.27,1.1l.06.3a6.39,6.39,0,0,0-.07-1.36L426,75.5A.82.82,0,0,0,425.91,75.61Zm0-.12,0,.09A.29.29,0,0,0,425.88,75.49Z"/><path class="cls-11" d="M411.63,71.21a12.16,12.16,0,0,0-.2,2.3,3.13,3.13,0,0,0,.9-1.1,6.91,6.91,0,0,0,.4-2.5S411.73,70.51,411.63,71.21Z"/><path class="cls-12" d="M410.93,74.51v-1a11.81,11.81,0,0,1,.21-2.4,2.92,2.92,0,0,1,1.33-1.63l.76-.45v.88a6.6,6.6,0,0,1-.49,2.78,3.38,3.38,0,0,1-1,1.22Zm1.21-3.31s0,.06,0,.08v.07a2.79,2.79,0,0,0-.09.51A5.23,5.23,0,0,0,412.14,71.2Z"/><g id="Shape_27_copy-2" data-name="Shape 27 copy-2"><path class="cls-11" d="M405.33,71.81a12.16,12.16,0,0,0-.2,2.3A3.13,3.13,0,0,0,406,73a6.91,6.91,0,0,0,.4-2.5A2.46,2.46,0,0,0,405.33,71.81Z"/></g><path class="cls-12" d="M404.63,75.11v-1a12.06,12.06,0,0,1,.21-2.43,3,3,0,0,1,1.34-1.61l.75-.41v.85a6.74,6.74,0,0,1-.49,2.78,3.31,3.31,0,0,1-1,1.22Zm1.21-3.25,0,.07v0a2.79,2.79,0,0,0-.09.51C405.76,72.29,405.8,72.08,405.84,71.86Z"/><g id="Shape_27_copy_2-2" data-name="Shape 27 copy 2-2"><path class="cls-11" d="M414.63,62.31a16.21,16.21,0,0,0,.3,2.3,5.39,5.39,0,0,0,.7-1.3,6.16,6.16,0,0,0-.1-2.5A2.36,2.36,0,0,0,414.63,62.31Z"/></g><path class="cls-12" d="M414.66,65.8l-.22-1.09a15.39,15.39,0,0,1-.31-2.4,2.76,2.76,0,0,1,1.09-1.89l.63-.49.17.77a6.23,6.23,0,0,1,.07,2.81,5.9,5.9,0,0,1-.76,1.4Zm.55-3.82a.8.8,0,0,0-.08.33,7.6,7.6,0,0,0,.05.76A3.13,3.13,0,0,0,415.21,62Z"/><path class="cls-11" d="M411.73,74.51a2.66,2.66,0,0,0,.3-1.2c0-.7-.8.8-.8.8s.3-1.8-.1-1.2c-.1.2-.3.4-.4.6a2.69,2.69,0,0,0,0,2.1A5.82,5.82,0,0,0,411.73,74.51Z"/><path class="cls-12" d="M410.55,76.43l-.28-.61a3.21,3.21,0,0,1,0-2.53,2.07,2.07,0,0,1,.25-.38c.05-.07.11-.15.15-.22.32-.48.65-.41.78-.36a.51.51,0,0,1,.32.32.54.54,0,0,1,.31,0,.62.62,0,0,1,.44.67,3.24,3.24,0,0,1-.35,1.43h0A6.35,6.35,0,0,1,411.06,76Zm.49-2.3a2.25,2.25,0,0,0,0,.51,1.83,1.83,0,0,0,.27-.35l0-.06Z"/><path class="cls-11" d="M408,78.11c-1.1.8-.9,1.4-.8,2.3a2.71,2.71,0,0,0,2.1-1.3,13.81,13.81,0,0,0,1.1-3.6A24.1,24.1,0,0,1,408,78.11Z"/><path class="cls-12" d="M407.23,80.91h-.45l-.08-.68a2.26,2.26,0,0,1,1-2.52,12.75,12.75,0,0,0,1.79-1.9c.24-.28.43-.52.56-.65l1.11-1.1-.26,1.53a14,14,0,0,1-1.16,3.77A3.18,3.18,0,0,1,407.23,80.91Zm2.25-3.52a8.51,8.51,0,0,1-1.14,1.11l0,0c-.65.47-.71.76-.66,1.31a2.42,2.42,0,0,0,1.25-1A6.65,6.65,0,0,0,409.48,77.39Z"/><path class="cls-11" d="M408,75.81a4.29,4.29,0,0,0-1.1,2.1c-.1.9-.3,1.1-.6,1.1s-.6-.8-.2-1.7a2.83,2.83,0,0,1,1.3-1.3Z"/><path class="cls-12" d="M406.33,79.51a.72.72,0,0,1-.6-.37,2.24,2.24,0,0,1-.06-2,3.29,3.29,0,0,1,1.55-1.55l2.47-.83-1.29,1.42a3.6,3.6,0,0,0-1,1.76C407.37,78.47,407.25,79.51,406.33,79.51Z"/><path class="cls-11" d="M402.53,77.31a1.81,1.81,0,0,0-1.7,2.3c.3,1.2,1.4.4,2.8-.9a4.85,4.85,0,0,0,1.5-2.8C404.93,75.31,403.73,77.21,402.53,77.31Z"/><path class="cls-12" d="M401.4,80.7a.92.92,0,0,1-.29,0,1.15,1.15,0,0,1-.77-.93,2.32,2.32,0,0,1,.34-1.93,2.45,2.45,0,0,1,1.81-1,3.2,3.2,0,0,0,1.46-.9c.47-.41.81-.7,1.21-.59a.62.62,0,0,1,.44.43l0,.1V76A5.39,5.39,0,0,1,404,79.07C402.88,80.09,402.08,80.7,401.4,80.7Zm2.9-3.78a3.25,3.25,0,0,1-1.73.89,1.41,1.41,0,0,0-1.07.57,1.33,1.33,0,0,0-.19,1.11.73.73,0,0,0,.09.22c.1,0,.5-.07,1.89-1.36A5.12,5.12,0,0,0,404.3,76.92Z"/><path class="cls-11" d="M418,73.91c.3.9.7-.6.8-.9a4.37,4.37,0,0,0-.8-2.7C417.63,72.71,417.73,72.91,418,73.91Z"/><path class="cls-12" d="M418.24,74.7c-.22,0-.51-.11-.69-.63l0-.12c-.31-1-.37-1.38,0-3.72l.19-1.19.71,1a4.89,4.89,0,0,1,.88,3.07l-.05.19c-.25.8-.48,1.41-1,1.42Zm.05-2.67a3.85,3.85,0,0,0,0,1v0l0-.13A2.12,2.12,0,0,0,418.29,72Z"/><path class="cls-11" d="M419.13,66.51a5.42,5.42,0,0,1-.6,1.1,6.86,6.86,0,0,0,.4,1.9,7.91,7.91,0,0,0,.8-1.3,4.48,4.48,0,0,0,0-2.3C419.63,65.71,419.33,65.91,419.13,66.51Z"/><path class="cls-12" d="M418.75,70.57l-.3-.9a5.71,5.71,0,0,1-.41-2.18l0-.1a3.24,3.24,0,0,1,.26-.43,1.91,1.91,0,0,0,.31-.61h0c.21-.62.54-1,.93-1a.6.6,0,0,1,.59.35l0,.1a5,5,0,0,1,0,2.56,8.42,8.42,0,0,1-.88,1.46Zm.26-2.8a3.16,3.16,0,0,0,.1.56,2.09,2.09,0,0,0,.15-.3,2.84,2.84,0,0,0,.12-.84,2.51,2.51,0,0,1-.22.34Z"/><path class="cls-11" d="M329.33,119.41l-.9-.6-1.3.2v-.8l-.6-.4h-.9l.6-1.1-3,.9-1.5-.6v-.6l-1.7.6h-2.7v-1.5l-1.9,1.1h-1.5l.8-1.3-3.2.8.8-1.5-1.9.6-.4-1.5-5.9,3.8,1.3.2,1.7-.6h2.1l1.7-.4-.2.6,1.9-.2s.1.6.4.6a16.68,16.68,0,0,1,3.2.2,9.66,9.66,0,0,0,1.7-.6l1.9.6a3.61,3.61,0,0,1,1.9.4c.9.8,1.9,1.6,2.8,2.3l3.4-.4.9-.6Z"/><path class="cls-15" d="M451.23,29.91h0a13.87,13.87,0,0,0-2.1-1.7c-2.5-1.6-4.8-2.8-10-3.4v.4a5.17,5.17,0,0,0-.7-.6,5.13,5.13,0,0,1,1.3-.2c1.1-.1,1.2-.7,1.5-1.9a3.15,3.15,0,0,0,2.5-.4,2.08,2.08,0,0,0,.8-2.5c-.7-.4-.45-.77-.45-.77s.37-.19,1.55,1.17a13.79,13.79,0,0,1,6.3,5.9,4.54,4.54,0,0,1,.1,4.8C451.93,30.51,451.68,30.36,451.23,29.91Z"/><g class="cls-3"><path class="cls-16" d="M438.64,24.77c5.2.6,7.89,1.84,10.39,3.44a13.87,13.87,0,0,1,2.1,1.7,2.44,2.44,0,0,1-1.1.2c-2.31.09-5.57-1.32-6.27-1.64a2.19,2.19,0,0,0-.33-.12,9,9,0,0,0-2.3-.34,5.38,5.38,0,0,0-2.1-2.8C438.87,25.11,438.64,24.87,438.64,24.77Z"/></g><path class="cls-4" d="M458.3,93.81a110.52,110.52,0,0,0-39.7-46.6A106.8,106.8,0,0,0,391,34.31a105.16,105.16,0,0,0-60.2,0,105.61,105.61,0,0,0-27.7,12.8,110.9,110.9,0,0,0-39.8,46.4,99.94,99.94,0,0,1,37.1-50.3A105.3,105.3,0,0,1,329,28.81a104,104,0,0,1,63.4.1A102.53,102.53,0,0,1,421,43.31,99,99,0,0,1,458.3,93.81Z"/><path class="cls-4" d="M135.87,209.51h3.4v25.3h-3.4Zm2.84,23H148c2.85,0,5-.4,6.25-1.2a3.83,3.83,0,0,0,1.94-3.4v-.1a4.21,4.21,0,0,0-3-4.3,11.43,11.43,0,0,0-4.09-.6H138.71v-2.3h10.45a9.7,9.7,0,0,0,5-1.1,3.59,3.59,0,0,0,1.71-3.3,3.73,3.73,0,0,0-1.82-3.4,11.33,11.33,0,0,0-5.46-1.1h-9.77v-2.3h10.57a17,17,0,0,1,5.45.8,6,6,0,0,1,3.3,2.4,6.4,6.4,0,0,1,1.13,3.7,4.26,4.26,0,0,1-.68,2.4,5.93,5.93,0,0,1-2,2,10.13,10.13,0,0,1-3.41,1.1,9.46,9.46,0,0,1,3.52,1.1,6.4,6.4,0,0,1,2.27,2.2,5,5,0,0,1,.8,2.8v.1a5.68,5.68,0,0,1-1.25,3.6A7.18,7.18,0,0,1,155,234a14.15,14.15,0,0,1-5.23.9H138.82v-2.4Z"/><rect class="cls-4" x="176.89" y="209.51" width="3.41" height="25.3"/><path class="cls-4" d="M198.93,209.51h3.41v25.4h-3.41Zm2,12.3h11.59a8.26,8.26,0,0,0,3.29-.6,4.49,4.49,0,0,0,2.16-1.8,4.2,4.2,0,0,0,.8-2.6,4,4,0,0,0-.8-2.6,6,6,0,0,0-2.16-1.8,6.83,6.83,0,0,0-3.29-.6H201v-2.3h11.36a13.47,13.47,0,0,1,5.11.9,7.65,7.65,0,0,1,3.41,2.6,6.41,6.41,0,0,1,1.25,3.8,6.19,6.19,0,0,1-1.25,3.8,7.65,7.65,0,0,1-3.41,2.6,13.47,13.47,0,0,1-5.11.9H201Zm10.91,1.5,3.06-.8,8.64,12.3h-4Z"/><path class="cls-4" d="M239.61,209.51H243v25.3h-3.41Zm3.18,23h7.62c3.18,0,5.45-.5,7-1.6a5.71,5.71,0,0,0,2.39-5v-7.5a5.71,5.71,0,0,0-2.39-5c-1.59-1.1-3.86-1.6-7-1.6h-7.62v-2.3h7.5a21.28,21.28,0,0,1,7.16,1,9.27,9.27,0,0,1,4.32,3,8.73,8.73,0,0,1,1.48,5.1v7.2a7.9,7.9,0,0,1-1.48,5,8.16,8.16,0,0,1-4.32,3,24.16,24.16,0,0,1-7.16,1h-7.5Z"/><rect class="cls-4" x="281.09" y="209.51" width="3.41" height="25.3"/><polygon class="cls-4" points="303.13 209.51 306.54 209.51 326.2 232.31 324.84 231.61 324.84 209.51 328.24 209.51 328.24 234.81 324.84 234.81 304.72 211.81 306.54 212.81 306.54 234.81 303.13 234.81 303.13 209.51 303.13 209.51"/><path class="cls-4" d="M369.27,221.91v3.7a9.62,9.62,0,0,1-1.37,5.3,8,8,0,0,1-4,3.2,18.25,18.25,0,0,1-6.59,1,18.55,18.55,0,0,1-6.7-1,8.23,8.23,0,0,1-4-3,8.6,8.6,0,0,1-1.36-5v-7.5a9.62,9.62,0,0,1,1.36-5.3,7.83,7.83,0,0,1,4-3.1,17.89,17.89,0,0,1,6.59-1,19.12,19.12,0,0,1,5.68.8,8.91,8.91,0,0,1,3.87,2.5,9.63,9.63,0,0,1,2.15,4.2h-3.63a9.47,9.47,0,0,0-1.71-2.9,6,6,0,0,0-2.72-1.7,10.38,10.38,0,0,0-3.75-.6,12.94,12.94,0,0,0-4.78.8,5.78,5.78,0,0,0-2.84,2.4,7.37,7.37,0,0,0-.91,4v7.5a7.39,7.39,0,0,0,.91,3.7,6,6,0,0,0,2.84,2.2,13.11,13.11,0,0,0,4.78.7,12.27,12.27,0,0,0,4.66-.8,5.3,5.3,0,0,0,2.72-2.3,8.22,8.22,0,0,0,.91-4v-1.4h-8.18v-2.4Z"/><path class="cls-4" d="M404.26,209.51h23.87v3.4H404.26Zm9.55,2.1h4.77v23.3h-4.77Z"/><path class="cls-4" d="M446.19,234a8.32,8.32,0,0,1-4.09-3.2,9.16,9.16,0,0,1-1.36-5.1v-7.2a9.16,9.16,0,0,1,1.36-5.1,8.32,8.32,0,0,1,4.09-3.2,19.64,19.64,0,0,1,13,0,8.28,8.28,0,0,1,4.09,3.2,9.16,9.16,0,0,1,1.36,5.1v7.2a9.16,9.16,0,0,1-1.36,5.1,8.28,8.28,0,0,1-4.09,3.2,18,18,0,0,1-6.48,1.1A17.57,17.57,0,0,1,446.19,234Zm11-2.1a6,6,0,0,0,2.95-2.4,6.81,6.81,0,0,0,1-3.7v-7.4a6.36,6.36,0,0,0-1-3.7,6.64,6.64,0,0,0-2.95-2.4,12.69,12.69,0,0,0-4.66-.8,13.12,13.12,0,0,0-4.66.8,6.06,6.06,0,0,0-3,2.4,6.81,6.81,0,0,0-1,3.7v7.4a6.36,6.36,0,0,0,1,3.7,6.73,6.73,0,0,0,3,2.4,12.69,12.69,0,0,0,4.66.8A10.91,10.91,0,0,0,457.22,231.91Z"/><path class="cls-4" d="M486.53,234.11a8.34,8.34,0,0,1-4-3.1,9.27,9.27,0,0,1-1.37-5.2v-16.4h3.41v16.5a5.83,5.83,0,0,0,2.16,5c1.36,1.1,3.52,1.7,6.36,1.7a10.72,10.72,0,0,0,6.48-1.7,5.83,5.83,0,0,0,2.16-5v-16.5h3.41v16.4a9.35,9.35,0,0,1-1.36,5.2,7.83,7.83,0,0,1-4,3.1,18.32,18.32,0,0,1-6.59,1A21.57,21.57,0,0,1,486.53,234.11Z"/><path class="cls-4" d="M522.55,209.51H526v25.4h-3.41Zm2.05,12.3h11.59a8.31,8.31,0,0,0,3.3-.6,4.54,4.54,0,0,0,2.16-1.8,4.26,4.26,0,0,0,.79-2.6,4.06,4.06,0,0,0-.79-2.6,6,6,0,0,0-2.16-1.8,8.31,8.31,0,0,0-3.3-.6H524.6v-2.3H536a13.53,13.53,0,0,1,5.12.9,7.76,7.76,0,0,1,3.41,2.6,6.48,6.48,0,0,1,1.25,3.8,6.25,6.25,0,0,1-1.25,3.8,7.76,7.76,0,0,1-3.41,2.6,13.53,13.53,0,0,1-5.12.9H524.6Zm10.91,1.5,3.07-.8,8.63,12.3h-4Z"/><path class="cls-4" d="M571,235.11l-2.16-.3a24,24,0,0,1-4.09-1,13.83,13.83,0,0,1-3.52-1.7l2-2a17.29,17.29,0,0,0,4.65,2.1,19.63,19.63,0,0,0,5.57.7,13.61,13.61,0,0,0,6.71-1.3,4,4,0,0,0,2.38-3.6h0a2.84,2.84,0,0,0-1-2.3,6.56,6.56,0,0,0-2.73-1.3,29.51,29.51,0,0,0-4.2-.8h-.34l-.68-.1a37.8,37.8,0,0,1-5.69-1.1,9.43,9.43,0,0,1-3.63-1.9,4.6,4.6,0,0,1-1.48-3.7h0a6.06,6.06,0,0,1,1.36-4,8,8,0,0,1,4.09-2.5,24.23,24.23,0,0,1,6.48-.9,19.89,19.89,0,0,1,3.52.3,22.86,22.86,0,0,1,3.53.9,25.86,25.86,0,0,1,3.41,1.5l-1.94,2a19.29,19.29,0,0,0-4.31-1.7,14.72,14.72,0,0,0-4.21-.6,13.24,13.24,0,0,0-6.48,1.3,4,4,0,0,0-2.27,3.7h0a2.62,2.62,0,0,0,1.14,2.3,6.36,6.36,0,0,0,2.84,1.2c1.14.3,2.61.5,4.66.8h.91a41.85,41.85,0,0,1,5.34,1.1,7.75,7.75,0,0,1,3.52,2,4.83,4.83,0,0,1,1.36,3.6h0a5.73,5.73,0,0,1-1.47,4,9.71,9.71,0,0,1-4.21,2.5,21.77,21.77,0,0,1-6.7.9C571.76,235.11,571,235.11,571,235.11Z"/><rect class="cls-4" x="6.3" y="219.71" width="87" height="2"/><rect class="cls-4" x="628.3" y="219.71" width="87" height="2"/></g></g></svg>